<svg width="88" height="88" viewBox="0 0 88 88" fill="none" xmlns="http://www.w3.org/2000/svg">
<path d="M20.1477 0.78891H63.8794C66.9659 0.78891 69.4679 3.29097 69.4679 6.37744V81.6224C69.4679 84.7089 66.9659 87.211 63.8794 87.211H6.85782C3.77135 87.211 1.26929 84.7089 1.26929 81.6224V19.6675C1.26929 18.1854 1.85802 16.7638 2.90623 15.7157L20.1477 0.78891ZM20.1477 0.78891C18.6656 0.78891 17.2442 1.37766 16.1961 2.42586C16.1961 2.42587 16.1961 2.42588 16.1961 2.42589L2.90627 15.7157L20.1477 0.78891Z" fill="#C5DEFF" stroke="black"/>
<path d="M3.25987 16.0693L16.5498 2.77941C16.985 2.34422 17.4908 1.99617 18.0403 1.74609V14.4049C18.0403 16.1472 16.6278 17.5596 14.8855 17.5596H2.22656C2.47664 17.0101 2.82469 16.5043 3.25987 16.0693Z" fill="#E28086"/>
<path d="M29.9778 18.0596H56.4411C57.601 18.0596 58.5416 17.1192 58.5416 15.9591V11.7767C58.5416 10.6166 57.6012 9.67621 56.4411 9.67621H29.9778C28.8177 9.67621 27.8773 10.6166 27.8773 11.7767V15.9591C27.8773 17.1192 28.8177 18.0596 29.9778 18.0596Z" fill="white" stroke="black"/>
<path d="M63.2204 76.5543L63.2203 76.5543C62.5897 76.9426 61.7773 76.4889 61.7773 75.7481V57.5268H76.159V75.7478C76.159 75.7479 76.159 75.7479 76.159 75.7479C76.1588 76.4888 75.3464 76.9425 74.7157 76.5543L69.9887 73.6443C69.3628 73.259 68.5733 73.259 67.9474 73.6443L63.2204 76.5543Z" fill="#A5FAEE" stroke="#25282B"/>
<path d="M76.304 32.8882L76.3039 32.8882C74.5816 33.3908 72.7271 32.7883 71.6292 31.3693M76.304 32.8882L85.5569 45.3365C84.6624 46.6495 84.6624 48.376 85.5569 49.6887C86.9803 51.778 86.0476 54.6492 83.6678 55.5027C82.1725 56.0392 81.1575 57.4358 81.1096 59.0238L80.6098 59.0087C80.6098 59.0087 80.6098 59.0087 80.6098 59.0087C80.5432 61.2088 78.417 62.7537 76.304 62.137L76.1639 62.617L76.3039 62.137C74.5816 61.6345 72.7273 62.237 71.6292 63.6559L71.6292 63.6559C70.2821 65.3968 67.6539 65.3968 66.3068 63.6559C65.2089 62.237 63.3544 61.6345 61.6321 62.137C59.519 62.7535 57.3928 61.2088 57.3262 59.0087M76.304 32.8882C78.417 32.2716 80.5432 33.8164 80.6098 36.0166M76.304 32.8882L80.6098 36.0166M71.6292 31.3693L72.0246 31.0633M71.6292 31.3693L72.0246 31.0633M71.6292 31.3693C70.2819 29.6284 67.6539 29.6284 66.3068 31.3693L66.3068 31.3693C65.2087 32.7883 63.3544 33.3908 61.6321 32.8882L61.632 32.8882C59.519 32.2716 57.3928 33.8164 57.3262 36.0166M72.0246 31.0633C70.4772 29.0637 67.4586 29.0637 65.9114 31.0633C64.9391 32.3197 63.2972 32.8532 61.7721 32.4082C59.3451 31.7 56.9029 33.4744 56.8264 36.0015M72.0246 31.0633C72.9967 32.3197 74.6388 32.8532 76.1639 32.4082L54.2682 39.5225C55.7635 38.9861 56.7784 37.5894 56.8264 36.0015M57.3262 36.0166L56.8264 36.0015M57.3262 36.0166L56.8264 36.0015M57.3262 36.0166C57.272 37.81 56.1258 39.3873 54.437 39.9931L54.437 39.9931C52.3652 40.7362 51.553 43.236 52.7923 45.055C53.8025 46.5376 53.8025 48.4875 52.7924 49.9702L52.7923 49.9703C51.5529 51.7892 52.3651 54.2888 54.437 55.0321L54.2682 55.5027L54.437 55.0321C56.1258 55.6379 57.272 57.2153 57.3262 59.0087M57.3262 59.0087L56.8264 59.0238L57.3262 59.0087ZM80.6098 36.0166C80.6098 36.0166 80.6098 36.0166 80.6098 36.0166L81.1096 36.0015L80.6098 36.0166Z" fill="#63F9E4" stroke="#25282B"/>
<path d="M77.982 47.5128C77.982 52.4912 73.9462 56.5269 68.9679 56.5269C63.9895 56.5269 59.9537 52.4912 59.9537 47.5128C59.9537 42.5344 63.9895 38.4987 68.9679 38.4987C73.9462 38.4987 77.982 42.5344 77.982 47.5128Z" fill="#1BD2B9" stroke="#25282B"/>
<path d="M18.5403 1.74609V0.969189L17.8331 1.29101C17.2298 1.56562 16.6742 1.94787 16.1962 2.42585L2.90639 15.7157C2.90637 15.7157 2.90634 15.7157 2.90632 15.7157C2.42832 16.1936 2.04608 16.7491 1.77148 17.3525L1.44966 18.0596H2.22656H14.8855C16.9039 18.0596 18.5403 16.4233 18.5403 14.4049V1.74609Z" fill="#4488F4" stroke="black"/>
<path d="M44.4768 30.6964H11.4796C10.4915 30.6964 9.69067 31.4974 9.69067 32.4852C9.69067 33.4733 10.4915 34.2741 11.4796 34.2741H44.477C45.4651 34.2741 46.2659 33.4731 46.2659 32.4852C46.2659 31.4974 45.465 30.6964 44.4768 30.6964Z" fill="white" stroke="black"/>
<path d="M44.4768 39.7535H11.4796C10.4915 39.7535 9.69067 40.5545 9.69067 41.5424C9.69067 42.5302 10.4915 43.3313 11.4796 43.3313H44.477C45.4651 43.3313 46.2659 42.5302 46.2659 41.5424C46.2659 40.5545 45.465 39.7535 44.4768 39.7535Z" fill="white" stroke="black"/>
<path d="M44.4768 48.8104H11.4796C10.4915 48.8104 9.69067 49.6115 9.69067 50.5993C9.69067 51.5872 10.4915 52.3882 11.4796 52.3882H44.477C45.4651 52.3882 46.2659 51.5872 46.2659 50.5993C46.2659 49.6114 45.465 48.8104 44.4768 48.8104Z" fill="white" stroke="black"/>
<path d="M46.2659 59.6566C46.2659 58.6685 45.465 57.8677 44.477 57.8677H11.4796C10.4915 57.8677 9.69067 58.6688 9.69067 59.6566C9.69067 60.6444 10.4915 61.4455 11.4796 61.4455H44.477C45.465 61.4455 46.2659 60.6446 46.2659 59.6566Z" fill="white" stroke="black"/>
<path d="M11.4796 71.1411C10.4915 71.1411 9.69067 71.9422 9.69067 72.93C9.69067 73.9178 10.4915 74.7189 11.4796 74.7189H28.0205C29.0086 74.7189 29.8094 73.9178 29.8094 72.93C29.8094 71.9422 29.0086 71.1411 28.0205 71.1411H11.4796Z" fill="white" stroke="black"/>
</svg>
