<svg width="74" height="80" viewBox="0 0 74 80" fill="none" xmlns="http://www.w3.org/2000/svg">
<rect width="74" height="80" rx="4" fill="#DCEAFF"/>
<mask id="mask0" mask-type="alpha" maskUnits="userSpaceOnUse" x="0" y="7" width="74" height="73">
<path d="M0 7H74V76C74 78.2091 72.2091 80 70 80H0V7Z" fill="#C4C4C4"/>
</mask>
<g mask="url(#mask0)">
<path d="M31.1593 29.4512C31.8004 29.8232 32.0221 30.6472 31.6551 31.2942L29.4142 35.2308L20.9129 40.9209L18.4783 38.2619C18.2562 36.9861 18.5583 33.955 19.2816 32.7633C20.0367 31.5181 21.2524 30.6262 22.6609 30.2839C24.0694 29.9416 25.5552 30.1769 26.7913 30.9382C27.2913 31.2445 27.7384 31.6307 28.1152 32.0815L29.3272 29.9522C29.6973 29.3064 30.5162 29.0833 31.1593 29.453V29.4512Z" fill="white"/>
<path fill-rule="evenodd" clip-rule="evenodd" d="M18.3855 43.1691L22.2774 47.4218L35.4887 38.5879L38.9403 32.5263C39.5117 31.4375 39.1234 30.0886 38.0624 29.4763C37.0014 28.8639 35.6492 29.2082 35.0049 30.2549L33.3009 33.2433C31.4846 31.2332 28.8346 30.2011 26.1477 30.4573C23.4608 30.7135 21.0503 32.2282 19.6411 34.5459C18.4806 36.4561 18.0457 41.1631 18.3855 43.1061V43.1691ZM22.3456 46.8506L18.7934 42.97C18.4917 41.0927 18.9184 36.5581 20.0001 34.7765C21.3678 32.5353 23.7193 31.0897 26.3242 30.8887C28.929 30.6878 31.4718 31.7559 33.1625 33.7613L33.3609 33.9993L35.3694 30.4746C35.6108 30.0491 36.0104 29.7379 36.48 29.6096C36.9496 29.4812 37.4506 29.5463 37.8725 29.7904C38.2943 30.0335 38.6028 30.4353 38.7302 30.9075C38.8577 31.3797 38.7935 31.8835 38.552 32.3081L35.152 38.2822L22.3456 46.8506Z" fill="black"/>
<path d="M50.2971 30.8077C47.987 28.9794 44.6543 29.3194 42.7553 31.5771L42.6611 31.6988L42.6292 31.7381L42.5705 31.8169L36.5286 39.7007L28.3542 32.8368L20.928 40.9174L33.2588 51.2741C35.5829 53.0843 38.9127 52.719 40.7953 50.4474L40.8326 50.3991L41.4332 51.088L51.3562 38.3837C53.0918 35.9845 52.623 32.6312 50.2971 30.8077Z" fill="white"/>
<path fill-rule="evenodd" clip-rule="evenodd" d="M39.9157 63.1121C41.3864 64.2067 43.1665 64.7984 44.9953 64.8006C47.4826 64.7873 49.8409 63.6844 51.4556 61.7794L52.3797 62.8385L67.7136 43.1894L67.8441 43.0116C70.4342 39.2627 69.662 34.1291 66.0856 31.3207C62.5302 28.4949 57.4024 28.9548 54.399 32.3688H54.3827L54.0593 32.7875L54.0022 32.8641L44.854 44.7876L32.3683 34.3009L20.8529 46.8319L20.717 46.9988L39.7418 62.978L39.9157 63.1121ZM40.0132 62.6395L39.9289 62.5766L21.3309 46.9613L32.4033 34.9201L44.9188 45.4315L54.3143 33.1742L54.3524 33.1222L54.4013 33.0537L54.5943 32.8211C57.4165 29.4448 62.3921 28.937 65.8297 31.6745C69.2836 34.3908 69.9707 39.3781 67.3816 42.9385L67.3218 43.026L52.3738 62.1825L51.4579 61.1316L51.2405 61.4053C48.4442 64.8041 43.4719 65.3508 40.0132 62.6395Z" fill="black"/>
<path d="M29.959 35.9803C30.646 35.9803 31.2029 36.5411 31.2029 37.2329V99.4428H29.959V35.9803Z" fill="#0057E0"/>
<path d="M29.9592 38.475L27.5602 38.5519L27.5282 37.5499L18.8456 37.8272C17.6887 41.02 14.4863 42.9767 11.1396 42.5359C7.79283 42.095 5.19814 39.3746 4.89587 35.9896C4.88165 35.85 4.87455 35.7087 4.86921 35.5673C4.75866 32.0905 7.113 29.0235 10.4823 28.255C13.8516 27.4865 17.2887 29.2327 18.6768 32.4181L27.3576 32.1407L27.3292 31.1387L29.7282 31.0617L29.8828 35.9896L29.9592 38.475Z" fill="white"/>
<path fill-rule="evenodd" clip-rule="evenodd" d="M4.7557 35.9929C5.09769 39.8079 8.27295 42.7304 12.0771 42.7315L12.3099 42.7244C15.2779 42.6366 17.8992 40.7521 18.9453 37.954L27.3898 37.6838L27.4218 38.6876L30.1051 38.6L29.8635 30.9058L27.1801 30.9917L27.2104 31.9937L18.7676 32.2621C17.316 29.0519 13.8164 27.319 10.4051 28.1212C6.99374 28.9234 4.61844 32.0378 4.72905 35.5634C4.7326 35.6923 4.73971 35.8444 4.7557 35.9929ZM11.8479 28.2098H12.0771H12.0824C14.8867 28.2011 17.4282 29.8702 18.5509 32.4577L18.5899 32.5471L27.5089 32.2626L27.4787 31.2606L29.5934 31.1926L29.8173 38.3195L27.7026 38.3875L27.6688 37.3855L18.7481 37.67L18.7161 37.7613C17.5881 40.9014 14.443 42.8291 11.1548 42.3956C7.86652 41.9622 5.32016 39.2843 5.03293 35.9576C5.01694 35.8145 5.00627 35.6695 5.00627 35.5461C4.88859 31.6198 7.94888 28.3382 11.8479 28.2098Z" fill="black"/>
<path d="M29.9591 38.4748L27.5601 38.5517L27.5281 37.5497L18.8455 37.827C17.6886 41.0198 14.4862 42.9765 11.1395 42.5357C7.79272 42.0948 5.19803 39.3744 4.89575 35.9894H29.8756L29.9591 38.4748Z" fill="#0057E0"/>
<path fill-rule="evenodd" clip-rule="evenodd" d="M21.6513 34.662L21.2657 30.4391C21.2356 30.1109 21.3362 29.7841 21.5456 29.5307C21.7549 29.2773 22.0557 29.1181 22.3817 29.0882L22.5949 29.0685C22.9208 29.0382 23.2454 29.1396 23.4971 29.3503C23.7487 29.5611 23.9068 29.864 23.9366 30.1922L24.3222 34.415C24.3523 34.7432 24.2516 35.07 24.0423 35.3234C23.833 35.5768 23.5322 35.7361 23.2062 35.766L22.993 35.7857C22.667 35.816 22.3425 35.7146 22.0908 35.5039C21.8392 35.2931 21.681 34.9902 21.6513 34.662ZM20.0929 35.8642L20.4483 35.8051C21.0811 35.6957 21.507 35.0918 21.4008 34.4542L20.8073 30.9327C20.6987 30.2956 20.0988 29.8668 19.4656 29.9737L19.1102 30.0345C18.8056 30.0857 18.5338 30.257 18.3551 30.5106C18.1763 30.7641 18.1053 31.079 18.1577 31.3854L18.7513 34.9051C18.859 35.5428 19.4595 35.9721 20.0929 35.8642ZM27.2081 30.4663L27.0464 34.3867C27.0326 34.7054 26.8936 35.0055 26.6599 35.221C26.4263 35.4364 26.1172 35.5496 25.8007 35.5355L25.5093 35.5247C24.85 35.4967 24.3378 34.9361 24.3649 34.2722L24.5266 30.3518C24.5395 30.0329 24.678 29.7324 24.9114 29.5165C25.1448 29.3006 25.4539 29.1872 25.7705 29.2012L26.0637 29.2137C26.3805 29.2268 26.6792 29.3661 26.8939 29.6011C27.1086 29.836 27.2216 30.1473 27.2081 30.4663Z" fill="white"/>
<path fill-rule="evenodd" clip-rule="evenodd" d="M18.9353 38.1132C19.0981 39.0787 19.9277 39.7859 20.9003 39.7881C21.0134 39.7868 21.1261 39.7758 21.2373 39.7552L21.7809 39.6622C22.6216 39.5133 23.2762 38.8442 23.4116 37.9956C23.6434 39.0334 24.6046 39.7364 25.6565 39.6376L25.9826 39.6074C26.8056 39.5302 27.5079 38.976 27.7791 38.1899C28.1253 38.8137 28.7686 39.2117 29.4777 39.2407L29.9262 39.2599C30.4674 39.2829 30.9954 39.088 31.3936 38.7183C31.7919 38.3486 32.0276 37.8345 32.0488 37.2895L32.2961 31.2936C32.3189 30.7484 32.1255 30.2164 31.7584 29.815C31.3913 29.4135 30.8808 29.1756 30.3393 29.1535L29.8936 29.1344C29.3528 29.1121 28.8255 29.3073 28.4279 29.677C28.0302 30.0466 27.7949 30.5602 27.7737 31.1047L27.6351 34.4817L27.3008 30.842C27.1931 29.6773 26.1693 28.8202 25.0124 28.9264L24.6862 28.9565C23.5291 29.0663 22.6783 30.098 22.7837 31.2635L23.2539 36.3946L22.5065 31.9613C22.3184 30.8683 21.288 30.1342 20.2018 30.3193L19.6583 30.4096C18.5719 30.5977 17.8422 31.6362 18.0276 32.7303L18.9353 38.1132ZM20.2614 30.749C20.3513 30.7345 20.4422 30.7272 20.5332 30.7271C21.2922 30.7321 21.9383 31.2846 22.0661 32.038L22.9738 37.4209C23.0431 37.8325 22.9471 38.2548 22.707 38.5951C22.467 38.9354 22.1025 39.1657 21.6937 39.2353L21.1502 39.3283C20.7415 39.3981 20.322 39.3014 19.984 39.0597C19.6461 38.818 19.4174 38.4509 19.3483 38.0394L18.4405 32.6564C18.2962 31.8004 18.8678 30.9884 19.7179 30.842L20.2614 30.749ZM23.7947 37.6843C23.8794 38.609 24.6918 39.2898 25.6102 39.2059L25.9363 39.1758C26.8542 39.0877 27.5293 38.2698 27.4474 37.345L26.8549 30.8865C26.8143 30.4427 26.6001 30.0333 26.2597 29.7484C25.9192 29.4636 25.4802 29.3266 25.0394 29.3677L24.7133 29.3978C24.2725 29.4387 23.8659 29.6543 23.583 29.9972C23.3001 30.34 23.1641 30.782 23.2049 31.2259L23.7947 37.6843ZM28.1948 31.1239C28.2297 30.256 28.9383 29.5703 29.801 29.5695L29.8662 29.5723L30.3147 29.5914C30.741 29.6092 31.1429 29.7968 31.4319 30.1129C31.7209 30.4291 31.8733 30.8479 31.8557 31.2772L31.6084 37.2732C31.5687 38.1658 30.8209 38.8588 29.9342 38.8248L29.4857 38.8057C28.599 38.7672 27.9106 38.0129 27.9475 37.1199L28.1948 31.1239Z" fill="black"/>
<path d="M42.0452 102.379H70.181L64.9494 30.8595L45.7663 29.7859C45.7663 29.7859 43.0847 89.3225 42.0452 102.379Z" fill="white"/>
<path fill-rule="evenodd" clip-rule="evenodd" d="M41.8906 102.522H70.3339L65.0845 30.8485L65.0756 30.7232L45.6242 29.6263V29.7713C45.5975 30.3671 42.932 89.4618 41.9031 102.368L41.8906 102.522ZM70.0372 102.236H42.1999C43.0922 90.7737 45.2057 45.1546 45.776 32.8461C45.8473 31.3053 45.8945 30.2865 45.9121 29.922L64.8269 30.9956L70.0372 102.236Z" fill="black"/>
<path d="M47.0615 54.3352H60.5812L60.9366 124.307H43.8628L47.0615 54.3352Z" fill="#1DEBCE"/>
<path d="M68.3968 52.3223L83.7202 118.1L67.2524 122.64L54.8486 52.5101L68.3968 52.3223Z" fill="#1DEBCE"/>
<path d="M45.7662 29.7787L63.8369 26.361C65.0268 26.1344 66.2573 26.3936 67.2573 27.0813C68.2573 27.769 68.9447 28.8289 69.168 30.0274L69.5021 31.8167C69.6404 32.5482 69.5983 33.3027 69.3795 34.014L69.3244 52.0541L52.1884 55.2427L43.7244 39.3337C43.0872 38.6931 42.6541 37.8757 42.4804 36.9861C42.4804 36.9682 42.4715 36.9503 42.468 36.9324L42.1339 35.1431C41.9089 33.945 42.1662 32.7059 42.8492 31.699C43.5322 30.692 44.5848 29.9999 45.7751 29.7751L45.7662 29.7787Z" fill="#1DEBCE"/>
<path fill-rule="evenodd" clip-rule="evenodd" d="M44.5338 46.4022L57.5222 70.8157L83.8552 65.9062L83.9829 65.8815L84.0672 38.1841C84.4006 37.0781 84.4649 35.9077 84.2547 34.7715L83.7411 32.0349C83.0106 28.1383 79.2847 25.5732 75.4137 26.3016L47.7734 31.5286C43.8987 32.2603 41.3446 36.0138 42.066 39.9164L42.5688 42.601L42.5172 42.6147L42.6014 42.7734C42.8786 44.1475 43.5505 45.4093 44.5338 46.4022ZM44.7701 46.1976C43.8161 45.2403 43.1662 44.0192 42.9029 42.6892L42.3838 39.8677C41.693 36.1437 44.1235 32.5584 47.8195 31.8494L75.4515 26.6334C79.15 25.9378 82.7107 28.3851 83.4148 32.1067L83.9284 34.8433C84.1309 35.9369 84.0675 37.0636 83.7436 38.1272V38.1491L83.6594 65.6332L57.6906 70.466L44.7973 46.2359L44.7701 46.1976Z" fill="black"/>
<path d="M52.0586 55.3159L43.6052 39.4266C42.9601 38.7733 42.519 37.9441 42.3364 37.0414L42.26 36.8983L42.3044 36.8857L41.9845 35.168C41.5083 32.5978 43.188 30.1244 45.7394 29.6389L45.7927 29.9198C43.3985 30.3764 41.8215 32.6963 42.2653 35.1089L42.6118 36.9609C42.783 37.8219 43.2034 38.6126 43.8202 39.2333L43.8451 39.2673L52.3109 55.1764L52.0586 55.3159Z" fill="black"/>
<path d="M47.9177 29.3706V102.376H38.2524L44.218 55.2462L41.8118 32.7936C41.8118 32.7936 43.3596 29.3688 47.9177 29.3706Z" fill="white"/>
<path fill-rule="evenodd" clip-rule="evenodd" d="M38.0908 102.522H48.06V29.2273H47.9125C45.5153 29.2273 43.9497 30.1792 43.0612 30.9755C42.4934 31.4684 42.0252 32.0668 41.6822 32.738L41.6662 32.7738L44.0741 55.2479L38.0908 102.522ZM47.7757 102.237H38.4125L44.3602 55.2682V55.2503L41.9577 32.8227C42.2869 32.2046 42.7246 31.6518 43.2496 31.1908C44.0866 30.4411 45.5455 29.5518 47.7757 29.516V102.237Z" fill="black"/>
<path d="M56.7095 27.7087L70.1848 102.38L84.7565 96.3782L69.3264 52.0598L69.3815 34.0197C69.3815 34.0197 71.7716 26.4097 62.8776 26.4097L56.7095 27.7087Z" fill="white"/>
<path fill-rule="evenodd" clip-rule="evenodd" d="M70.0409 102.399L70.0729 102.578L84.936 96.4547L69.458 52.0308L69.5131 34.0372C69.6055 33.7312 70.4336 30.7663 68.8343 28.5618C67.7219 27.0355 65.7102 26.2607 62.867 26.2607L56.5354 27.592L70.0409 102.399ZM70.2894 102.176L56.8692 27.8215L62.8863 26.5457C65.6318 26.5492 67.5563 27.2829 68.6083 28.7286C70.0902 30.7636 69.3411 33.5914 69.2497 33.9367C69.2441 33.9578 69.2409 33.9697 69.2409 33.9714L69.1788 52.0795L84.5821 96.2905L70.2894 102.176Z" fill="black"/>
<path d="M52.7571 31.0905C51.4547 31.6238 49.9696 30.9935 49.4393 29.6823L47.9573 26.007L52.6735 24.0781L54.1556 27.7516C54.4099 28.3811 54.4054 29.0866 54.1431 29.7127C53.8808 30.3389 53.3822 30.8345 52.7571 31.0905Z" fill="white"/>
<path fill-rule="evenodd" clip-rule="evenodd" d="M49.3129 29.7357C49.7258 30.754 50.7085 31.4204 51.8008 31.423C52.1474 31.4229 52.4907 31.3555 52.8119 31.2244C54.1858 30.66 54.8465 29.0821 54.2887 27.6976L52.7533 23.8899L47.7776 25.9279L49.3129 29.7357ZM49.5634 29.629L48.1417 26.0861L52.595 24.2646L54.0166 27.8057C54.5156 29.0439 53.9238 30.455 52.6945 30.9585C51.4653 31.4611 50.064 30.8661 49.5634 29.629Z" fill="black"/>
<path d="M51.0686 26.9085C49.7203 27.4598 48.2096 27.449 46.8692 26.8785C45.5287 26.308 44.4683 25.2246 43.9214 23.8667L42.6775 20.7944C42.1295 19.4367 42.14 17.9154 42.7066 16.5655C43.2732 15.2157 44.3495 14.148 45.6984 13.5976C47.0465 13.046 48.5571 13.0566 49.8974 13.6271C51.2377 14.1977 52.2977 15.2814 52.8439 16.6395L54.0878 19.7118C54.6352 21.0693 54.6244 22.5901 54.0578 23.9395C53.4912 25.289 52.4153 26.3564 51.0668 26.9067L51.0686 26.9085Z" fill="white"/>
<path fill-rule="evenodd" clip-rule="evenodd" d="M44.6514 29.6395C45.9748 32.9077 49.1311 35.0442 52.6363 35.0444C53.7434 35.0445 54.84 34.828 55.8651 34.4067C60.2656 32.6016 62.3829 27.5491 60.5968 23.1154L58.6943 18.4138C56.8565 14.0563 51.886 11.99 47.5305 13.7729C43.1749 15.5557 41.046 20.5279 42.7489 24.9407L44.6514 29.6395ZM43.9489 17.0889C45.4643 14.8185 48.0011 13.4547 50.7178 13.45C54.0447 13.4497 57.0408 15.4769 58.2978 18.5785L60.2003 23.28C61.8934 27.4892 59.8838 32.2842 55.7077 33.9994C53.6999 34.821 51.4502 34.8057 49.4536 33.9568C47.4571 33.1079 45.8773 31.495 45.062 29.473L43.1595 24.7742C42.1377 22.2396 42.4336 19.3593 43.9489 17.0889Z" fill="black"/>
<path d="M51.6324 16.5878L42.8467 17.8027C40.8973 18.0711 39.1006 16.6984 38.8324 14.7358C38.5658 12.7729 39.9291 10.9638 41.8782 10.6937L47.1347 9.96721C48.071 9.8359 49.0208 10.0856 49.7738 10.6612C50.5268 11.2368 51.0211 12.0907 51.1472 13.0341L51.6324 16.5878Z" fill="black"/>
<path fill-rule="evenodd" clip-rule="evenodd" d="M38.7517 14.4901C38.8811 16.4026 40.4557 17.8897 42.3595 17.8972C42.5253 17.8966 42.6909 17.8852 42.8553 17.8632L51.7067 16.6393L51.2127 13.0195C51.0825 12.0593 50.5786 11.1905 49.812 10.6045C49.0455 10.0186 48.079 9.76343 47.1255 9.89532L41.8672 10.6218C39.9821 10.8893 38.6223 12.5776 38.7517 14.4901ZM47.1435 10.0281C47.3032 10.0067 47.464 9.99598 47.6251 9.99594V9.99952C49.3697 10.0029 50.8446 11.301 51.0814 13.0414L51.5577 16.5288L42.8378 17.733C41.5998 17.904 40.3652 17.397 39.5991 16.403C38.833 15.4089 38.6518 14.0788 39.1237 12.9137C39.5957 11.7487 40.649 10.9256 41.887 10.7546L47.1435 10.0281Z" fill="black"/>
<path d="M53.6024 22.9076C55.4954 22.6969 56.8606 20.9811 56.6518 19.0749L56.3533 16.2871C56.2161 15.0334 55.5899 13.886 54.6124 13.0974C53.6349 12.3088 52.3862 11.9436 51.1412 12.0822L48.7227 12.3362L51.0541 20.8499C51.1937 22.1266 52.3345 23.0477 53.6024 22.9076Z" fill="black"/>
<path fill-rule="evenodd" clip-rule="evenodd" d="M50.9815 20.8586C51.1145 22.0734 52.133 22.9933 53.3467 22.9951C53.4347 22.9919 53.5225 22.9841 53.6097 22.9718C55.5394 22.7573 56.9314 21.0089 56.7195 19.0657L56.4121 16.2726C56.1181 13.6276 53.755 11.7202 51.1272 12.0068L48.6287 12.2698L50.9815 20.8586ZM55.8656 21.5931C55.3044 22.2981 54.4877 22.7492 53.5956 22.8468H53.5992C53.598 22.847 53.5968 22.8471 53.5956 22.8472C53.0016 22.9123 52.4062 22.7372 51.9403 22.3603C51.4735 21.9826 51.1752 21.4333 51.1113 20.8338L48.8012 12.3971L51.1415 12.1502C53.6966 11.8698 55.9952 13.7241 56.2807 16.2961L56.5864 19.0892C56.6861 19.9871 56.4267 20.8881 55.8656 21.5931Z" fill="black"/>
<path d="M50.9176 17.9923L49.6737 18.5416C48.7854 18.9303 47.7523 18.5222 47.3635 17.6291L46.5745 15.8111C46.1887 14.9162 46.5949 13.8758 47.4826 13.4849L48.7265 12.9356C49.6147 12.5459 50.6486 12.9543 51.0366 13.8482L51.8257 15.6644C52.2126 16.5597 51.8063 17.6015 50.9176 17.9923Z" fill="black"/>
<path fill-rule="evenodd" clip-rule="evenodd" d="M47.7599 20.3118C48.2151 21.355 49.2401 22.0284 50.3717 22.0277C50.7616 22.0269 51.1473 21.9459 51.505 21.7896L53.4075 20.9467C54.0985 20.6424 54.6412 20.0741 54.9159 19.3668C55.1906 18.6595 55.175 17.8713 54.8724 17.1756L53.6684 14.398C53.039 12.9491 51.3627 12.2877 49.9233 12.9202L48.0208 13.7603C46.5842 14.3964 45.9282 16.0819 46.5532 17.5314L47.7599 20.3118ZM50.0594 13.2106C50.3783 13.0705 50.7224 12.9978 51.0703 12.9972C52.0773 12.999 52.9885 13.5988 53.3941 14.527L54.5981 17.3047C54.8677 17.9244 54.8813 18.6267 54.6361 19.2566C54.3909 19.8865 53.9069 20.3923 53.2908 20.6625L51.3884 21.5027C50.1072 22.0649 48.6158 21.4775 48.0536 20.1891L46.8496 17.4086C46.2899 16.1179 46.8751 14.6147 48.1569 14.0508L50.0594 13.2106ZM51.0703 12.9972C51.0713 12.9972 51.0722 12.9972 51.0731 12.9972H51.0677C51.0686 12.9972 51.0695 12.9972 51.0703 12.9972Z" fill="black"/>
<path d="M50.8945 18.4522L51.4631 19.8622C51.5709 20.1292 51.5689 20.4283 51.4576 20.6937C51.3463 20.9592 51.1347 21.1692 50.8696 21.2776C50.3176 21.5025 49.6889 21.2352 49.464 20.68L48.8953 19.2718C48.672 18.7159 48.9374 18.0828 49.4888 17.8564C49.7537 17.7473 50.0507 17.7488 50.3145 17.8606C50.5782 17.9724 50.7869 18.1853 50.8945 18.4522Z" fill="white"/>
<path fill-rule="evenodd" clip-rule="evenodd" d="M49.6815 22.3754C49.969 23.0838 50.6527 23.5475 51.4128 23.5494C52.0342 23.5491 52.6147 23.2376 52.9614 22.7183C53.3081 22.199 53.3756 21.5401 53.1413 20.9606L52.2716 18.8041C51.8828 17.8421 50.7932 17.3796 49.8378 17.771C48.8824 18.1625 48.423 19.2597 48.8118 20.2217L49.6815 22.3754ZM49.5276 18.5003C49.7958 18.2292 50.1603 18.0768 50.5404 18.0768V18.085C51.1233 18.0846 51.6486 18.4394 51.8694 18.9826L52.7391 21.1391L52.7527 21.1692C52.9401 21.6487 52.8592 22.1925 52.5404 22.5957C52.2216 22.9989 51.7135 23.2003 51.2073 23.1239C50.7011 23.0476 50.2739 22.7051 50.0865 22.2255L49.2168 20.0691C49.1452 19.8957 49.1091 19.7095 49.1108 19.5217C49.1094 19.139 49.2593 18.7715 49.5276 18.5003Z" fill="black"/>
<path d="M34.7908 58.7395L38.6114 56.1951V56.0555C38.6255 55.4667 38.7323 54.8839 38.9277 54.3288L36.4914 54.3431C36.1359 54.346 35.7939 54.2063 35.5408 53.9548C35.2878 53.7034 35.1445 53.3609 35.1426 53.0029C35.1387 52.2575 35.7351 51.6497 36.4754 51.6448L40.9784 51.6162L52.8099 41.5422C55.1224 39.7212 58.4506 40.0662 60.3462 42.3232C62.2418 44.5803 62.0268 47.9423 59.8594 49.936L47.5979 60.375C46.78 61.0693 45.7766 61.5051 44.7137 61.6275L42.6097 65.7698C42.4479 66.0886 42.167 66.3295 41.8287 66.4396C41.4904 66.5497 41.1225 66.5199 40.806 66.3567C40.1469 66.0174 39.8853 65.2047 40.2214 64.5405L41.9096 61.2177C41.7911 61.1617 41.6685 61.102 41.5417 61.0388L38.8584 64.061C38.3585 64.5882 37.5334 64.621 36.9937 64.1351C36.4541 63.6492 36.3946 62.8199 36.8592 62.2609L39.5426 59.2369C39.475 59.1367 39.4093 59.033 39.3489 58.9274L36.2728 60.9905C35.8754 61.2596 35.3656 61.2948 34.9354 61.0828C34.5052 60.8708 34.22 60.4438 34.1872 59.9627C34.1545 59.4816 34.3791 59.0194 34.7766 58.7502L34.7925 58.7395H34.7908Z" fill="white"/>
<path fill-rule="evenodd" clip-rule="evenodd" d="M43.3647 79.5576C43.7758 80.2353 44.5066 80.65 45.2953 80.653C46.1465 80.656 46.928 80.1796 47.32 79.4187L50.508 73.1655C52.0617 72.9603 53.5294 72.3288 54.7506 71.3402L73.6666 55.2324L73.827 55.0846C77.0916 51.9303 77.3593 46.7642 74.4386 43.2848C71.5178 39.8054 66.4143 39.2109 62.7817 41.9269L62.7681 41.9132L44.5587 57.4107L37.7506 57.4545C36.9216 57.4282 36.1443 57.8594 35.7235 58.5792C35.3027 59.2989 35.3054 60.1924 35.7305 60.9096C36.1555 61.6267 36.9353 62.0533 37.7642 62.022L41.1859 62.0001C40.9401 62.7824 40.8065 63.5961 40.7891 64.4165V64.5178L35.0436 68.3491C34.0452 69.0627 33.789 70.4451 34.4646 71.4733C35.1402 72.5015 36.504 72.8047 37.5468 72.1585L42.0665 69.1482L42.1589 69.2932L38.1664 73.8004C37.3319 74.7405 37.4122 76.1838 38.3458 77.0242C39.2794 77.8645 40.7128 77.7837 41.5474 76.8436L45.5399 72.3473L45.7573 72.4513L43.2786 77.328C42.9211 78.0358 42.9537 78.8798 43.3647 79.5576ZM45.5914 71.8828L45.4419 71.8035L41.1777 76.5652C40.7484 77.0852 40.0713 77.3275 39.4124 77.1968C38.7535 77.0662 38.2181 76.5835 38.0168 75.9384C37.8154 75.2933 37.9801 74.589 38.4462 74.1022L42.6643 69.3514L42.5692 69.2119C42.4578 69.0449 42.3626 68.8944 42.2784 68.7494L42.1642 68.5496L37.2721 71.8144L37.2504 71.8308C36.7013 72.2148 35.9882 72.2675 35.3892 71.9685C34.7902 71.6695 34.4002 71.066 34.3713 70.3935C34.3423 69.7209 34.679 69.0858 35.2501 68.7357L41.1912 64.7785V64.4529C41.2096 63.5755 41.3684 62.7069 41.6614 61.8804L41.7647 61.5849L37.7287 61.6122C36.7156 61.616 35.8912 60.7921 35.8874 59.7719C35.8837 58.7517 36.702 57.9216 37.7152 57.9178L44.6836 57.874L62.6702 42.5489L62.836 42.4175C66.2803 39.6997 71.2425 40.2114 74.0682 43.5758C76.8939 46.9402 76.5712 51.9524 73.3376 54.9212L73.2615 54.9923L54.7613 70.7471L54.5955 70.8894C53.3788 71.9275 51.8852 72.5814 50.3014 72.7695L50.1845 72.7832L46.9231 79.2197C46.628 79.8117 46.0403 80.1989 45.3835 80.2341C44.7266 80.2694 44.1014 79.9473 43.7455 79.3902C43.3896 78.8332 43.3576 78.1268 43.6617 77.5395L46.347 72.2495L46.135 72.1565C46.0589 72.1176 45.9824 72.0798 45.9063 72.042C45.8 71.9894 45.6943 71.937 45.5914 71.8828Z" fill="black"/>
<path d="M69.106 34.4481C70.5111 31.8408 69.6097 28.5813 67.0687 27.0804C64.5276 25.5794 61.2622 26.3778 59.6877 28.885L51.6502 42.314L40.9773 51.5488L47.5985 60.3166L59.8601 49.8776C60.3716 49.4085 60.7896 48.8456 61.0916 48.2188L69.1114 34.4588L69.106 34.4481Z" fill="white"/>
<path fill-rule="evenodd" clip-rule="evenodd" d="M51.0487 78.5865L51.19 78.7534L70.0924 62.6264L70.2501 62.4814C70.9814 61.7786 71.5823 60.9501 72.0248 60.0348L84.399 38.8013H84.3827C86.4326 34.7331 84.9845 29.7612 81.0773 27.4521C77.1701 25.1429 72.153 26.294 69.625 30.0796L57.2371 50.7741L40.7834 65.0045L51.0487 78.5865ZM51.2501 78.133L41.379 65.071L57.5365 51.0868L57.5636 51.0649L69.7667 30.6825L69.8781 30.5046C72.2329 26.7929 77.0805 25.6198 80.8532 27.8486C84.6259 30.0774 85.9738 34.9106 83.9048 38.7911L83.8586 38.8869L71.642 59.8495C71.1917 60.7806 70.569 61.6166 69.8074 62.3125L69.7313 62.3864L51.2501 78.133Z" fill="black"/>
</g>
</svg>
