<svg width="185" height="136" viewBox="0 0 185 136" fill="none" xmlns="http://www.w3.org/2000/svg">
<path d="M43.4158 81.1803L57.7791 6.16523C58.1087 4.44042 59.11 2.91723 60.5628 1.93087C62.0156 0.944506 63.8008 0.57581 65.5255 0.90592L178.841 22.6002C182.432 23.2891 184.785 26.7581 184.098 30.3494L169.737 105.364C169.049 108.957 165.58 111.311 161.988 110.624L48.6751 88.9295C45.0829 88.2419 42.7283 84.7725 43.4158 81.1803Z" fill="#00388F"/>
<path fill-rule="evenodd" clip-rule="evenodd" d="M161.866 111.365C162.325 111.454 162.791 111.499 163.259 111.498C166.803 111.492 169.846 108.975 170.516 105.495L184.869 30.4634C185.63 26.4551 183.004 22.5866 178.999 21.8128L65.664 0.132094C63.738 -0.236972 61.7443 0.174555 60.1218 1.27607C58.4993 2.37758 57.3812 4.07876 57.0135 6.00504L42.6583 81.0337C41.8961 85.0433 44.5234 88.9132 48.5312 89.6843L161.866 111.365ZM58.5259 6.2874C59.0536 3.5336 61.4591 1.54019 64.263 1.53311L64.2739 1.53854C64.6466 1.53852 65.0184 1.57398 65.3844 1.64443L178.719 23.3252C181.892 23.9373 183.971 27.0013 183.367 30.1756L169.004 105.199C168.39 108.371 165.328 110.45 162.154 109.85L48.8191 88.1665C45.6462 87.5571 43.5669 84.4923 44.1734 81.3188L58.5259 6.2874Z" fill="white"/>
<path d="M51.3469 86.5618L67.1357 4.09082L172.629 24.2864L156.84 106.757L51.3469 86.5618Z" fill="white"/>
<path d="M171.233 63.2411C172.6 63.5019 173.675 64.5603 173.957 65.9229C174.239 67.2854 173.673 68.6837 172.522 69.4657C171.371 70.2477 169.862 70.2594 168.699 69.4954C167.536 68.7314 166.948 67.342 167.209 65.9753C167.567 64.11 169.367 62.8866 171.233 63.2411Z" fill="white"/>
<path d="M51.8248 56.9337L56.6388 31.7911C56.7152 31.4172 57.0788 31.1748 57.4534 31.2481H57.4805C57.8527 31.3271 58.0938 31.6887 58.0235 32.0626L53.2095 57.2052C53.1345 57.5801 52.7698 57.8232 52.395 57.7483H52.3678C51.9956 57.6693 51.7545 57.3077 51.8248 56.9337Z" fill="white"/>
<path d="M114.065 19.4778L147.614 25.9019L147.185 28.1447L113.636 21.7232L114.065 19.4778Z" fill="#0043AC"/>
<path d="M62.9733 49.7086L96.5222 56.1327L96.0932 58.3782L62.5416 51.9677L62.9733 49.7086Z" fill="#0043AC"/>
<path d="M154.198 35.8205C154.182 35.9019 144.825 34.1913 133.305 31.9785C121.784 29.7656 112.452 27.9193 112.466 27.8378C112.479 27.7564 121.833 29.4669 133.373 31.6825C144.912 33.8981 154.212 35.7417 154.198 35.8205Z" fill="#0043AC"/>
<path d="M153.259 40.7241C153.242 40.8055 143.889 39.095 132.352 36.8794C120.815 34.6638 111.499 32.8229 111.515 32.7414C111.532 32.66 120.883 34.3705 132.422 36.5861C143.962 38.8017 153.275 40.6426 153.259 40.7241Z" fill="#0043AC"/>
<path d="M152.322 45.625C152.306 45.7064 142.949 43.9959 131.415 41.7803C119.881 39.5647 110.562 37.7238 110.576 37.6423C110.59 37.5609 119.946 39.2715 131.483 41.487C143.02 43.7026 152.338 45.5435 152.322 45.625Z" fill="#0043AC"/>
<path d="M151.385 50.5259C151.369 50.6074 142.012 48.8968 130.492 46.6812C118.971 44.4656 109.636 42.6247 109.653 42.5433C109.669 42.4618 119.023 44.1724 130.546 46.388C142.069 48.6035 151.399 50.4444 151.385 50.5259Z" fill="#0043AC"/>
<path d="M150.446 55.4295C150.446 55.5109 141.076 53.7868 129.555 51.5821C118.034 49.3773 108.702 47.5256 108.716 47.4441C108.73 47.3627 118.083 49.0732 129.623 51.2888C141.162 53.5044 150.462 55.348 150.446 55.4295Z" fill="#0043AC"/>
<path d="M140.356 58.5791C140.34 58.6606 133.025 57.3301 124.038 55.6087C115.05 53.8873 107.76 52.4265 107.777 52.3505C107.793 52.2745 115.108 53.5995 124.095 55.3209C133.082 57.0423 140.372 58.4977 140.356 58.5791Z" fill="#0043AC"/>
<path d="M116.392 69.0896C116.376 69.1711 104.108 66.893 88.9929 64.0013C73.8775 61.1097 61.632 58.6986 61.6483 58.6171C61.6646 58.5357 73.9291 60.8164 89.05 63.7081C104.171 66.5998 116.408 69.0109 116.392 69.0896Z" fill="#0043AC"/>
<path d="M115.61 73.176C115.594 73.2574 103.326 70.9794 88.2137 68.085C73.1009 65.1906 60.8527 62.785 60.869 62.7035C60.8853 62.622 73.1498 64.9028 88.268 67.7945C103.386 70.6861 115.626 73.0945 115.61 73.176Z" fill="#0043AC"/>
<path d="M114.828 77.2623C114.828 77.3438 102.544 75.0657 87.429 72.1713C72.3136 69.2769 60.0708 66.8713 60.0844 66.7898C60.0979 66.7084 72.3679 68.9864 87.486 71.8781C102.604 74.7698 114.844 77.1808 114.828 77.2623Z" fill="#0043AC"/>
<path d="M114.049 81.3487C114.032 81.4301 101.765 79.1494 86.6497 76.2577C71.5343 73.366 59.2888 70.9577 59.3051 70.8762C59.3214 70.7947 71.5858 73.0728 86.704 75.9645C101.822 78.8561 114.062 81.2672 114.049 81.3487Z" fill="#0043AC"/>
<path d="M113.267 85.435C113.25 85.5165 100.983 83.2357 85.8677 80.3468C70.7523 77.4578 58.5068 75.0413 58.5231 74.9626C58.5394 74.8838 70.8039 77.1591 85.9247 80.0508C101.046 82.9425 113.28 85.3644 113.267 85.435Z" fill="#0043AC"/>
<path d="M70.9424 10.0344L104.578 16.4748L98.3467 49.0135L64.7137 42.5758L70.9424 10.0344Z" fill="#0043AC"/>
<path d="M67.8579 40.2924L80.3695 25.3263L85.9329 37.4876L91.6348 32.6871L96.2723 45.72L67.8579 40.2924Z" fill="white"/>
<path d="M91.8465 24.1452C91.6596 25.1248 90.9008 25.8953 89.9241 26.0973C88.9475 26.2992 87.9453 25.8929 87.3851 25.0678C86.8249 24.2426 86.8171 23.1613 87.3652 22.328C87.9133 21.4948 88.9094 21.0739 89.8889 21.2616C91.2254 21.5178 92.1017 22.8084 91.8465 24.1452Z" fill="white"/>
<path d="M96.2641 45.8205C96.2666 45.7748 96.273 45.7293 96.2831 45.6847C96.2994 45.587 96.3211 45.4648 96.3483 45.3046C96.4107 44.9597 96.4976 44.4683 96.6198 43.8384C96.8587 42.546 97.2036 40.6779 97.6407 38.3048C98.534 33.5478 99.8129 26.7734 101.331 18.6415L101.442 18.8044L73.0167 13.3876C72.9733 13.4147 73.3751 13.1432 73.2041 13.2627V13.2844V13.3143V13.3713L73.1823 13.4881L73.1389 13.7188L73.0493 14.1831L72.8728 15.109C72.756 15.7227 72.6366 16.3363 72.5198 16.9445C72.2863 18.1627 72.0555 19.371 71.8275 20.5693C71.3659 22.9622 70.9133 25.3 70.4699 27.5826C69.5929 32.1387 68.7647 36.4476 67.999 40.4091L67.8877 40.2435L88.4254 44.2457L94.2114 45.3915L95.7482 45.7037L96.1446 45.7879C96.1917 45.7958 96.238 45.8076 96.2831 45.8232C96.241 45.8208 96.1992 45.8145 96.1582 45.8042L95.7727 45.7417L94.2576 45.4702L88.4878 44.4031L67.8334 40.5259L67.6949 40.4987L67.7194 40.3575C68.4742 36.3933 69.2942 32.0816 70.163 27.5256L71.4989 20.5095C71.727 19.3148 71.9587 18.1075 72.194 16.8875L72.5443 15.0493L72.7208 14.1261L72.8076 13.6618L72.8538 13.431L72.8755 13.3143V13.2545V13.2274V13.203L73.071 13.0699L101.488 18.5302L101.627 18.5573L101.599 18.6931C100.008 26.8522 98.6833 33.6483 97.7547 38.4189C97.2877 40.7729 96.9185 42.6274 96.6687 43.909C96.5411 44.5253 96.446 44.995 96.3781 45.3426C96.3456 45.4946 96.3184 45.6141 96.2994 45.7064C96.2916 45.7456 96.2798 45.7838 96.2641 45.8205Z" fill="white"/>
<path d="M124.809 66.016L148.61 70.5721L144.203 93.5996L120.399 89.0435L124.809 66.016Z" fill="#0043AC"/>
<path d="M122.626 87.4307L131.477 76.8415L135.414 85.4486L139.457 82.0492L142.74 91.2808L122.626 87.4307Z" fill="white"/>
<path d="M139.601 76.0025C139.469 76.6961 138.932 77.2419 138.24 77.3851C137.549 77.5283 136.839 77.2408 136.442 76.6567C136.045 76.0727 136.039 75.307 136.427 74.7168C136.815 74.1266 137.52 73.8282 138.214 73.9606C139.161 74.1415 139.782 75.0555 139.601 76.0025Z" fill="white"/>
<path d="M142.729 91.3378C142.726 91.3062 142.726 91.2744 142.729 91.2428C142.729 91.1722 142.756 91.0853 142.775 90.9713C142.819 90.7242 142.881 90.3766 142.963 89.9313C143.131 89.0163 143.378 87.694 143.685 86.016C144.317 82.6492 145.216 77.8542 146.297 72.098L146.376 72.2121L126.259 68.3809C126.229 68.3999 126.511 68.2099 126.392 68.294V68.3158V68.3565V68.4379L126.359 68.6036L126.297 68.9294L126.169 69.5838C126.088 70.0182 126.004 70.4526 125.922 70.8843C125.756 71.7478 125.592 72.603 125.431 73.4502C125.105 75.1426 124.787 76.7971 124.478 78.4135C123.859 81.6365 123.269 84.6856 122.729 87.4904L122.65 87.3736L137.185 90.2056L141.282 91.0201L142.368 91.2401L142.639 91.2971L142.737 91.3242C142.707 91.3224 142.677 91.3178 142.648 91.3107L142.376 91.2645L141.29 91.0717L137.217 90.3169L122.601 87.5746L122.501 87.5556L122.523 87.4578C123.066 84.6503 123.636 81.5984 124.247 78.3728C124.556 76.76 124.872 75.1055 125.194 73.4094C125.355 72.5623 125.52 71.707 125.683 70.8436L125.933 69.5457L126.058 68.8914L126.12 68.5628L126.153 68.3972V68.3158V68.275V68.256V68.2587C126.033 68.3375 126.316 68.142 126.289 68.1637L146.4 72.0274L146.498 72.0464L146.479 72.1442C145.352 77.9167 144.415 82.7334 143.764 86.1029C143.435 87.7673 143.174 89.0896 142.995 89.9884C142.906 90.4255 142.838 90.7622 142.789 91.0038C142.767 91.1097 142.748 91.1939 142.735 91.2591C142.734 91.2854 142.732 91.3117 142.729 91.3378Z" fill="white"/>
<path d="M36.352 70.4889C25.1019 74.0009 17.0075 63.3408 12.1563 54.7415C8.96606 49.0472 6.41713 43.0167 4.5562 36.7605L11.1345 34.5895C13.086 33.9443 12.0966 30.9131 10.1346 31.5612L2.16181 34.1909C1.73184 34.3171 1.38297 34.6326 1.21439 35.0478C1.00877 35.4147 0.961378 35.8496 1.08313 36.2522C5.26589 51.2911 17.2087 79.8044 37.3485 73.5153C39.3015 72.9062 38.3102 69.8784 36.352 70.4889Z" fill="#1DEBCE"/>
<path d="M46.6873 19.4988L38.7178 22.1304C36.7629 22.7738 37.7549 25.8042 39.7169 25.1561L46.0658 23.0621C48.2695 29.2051 49.8092 35.5664 50.6585 42.0372C51.9541 51.8177 51.674 65.2345 40.5885 69.0899C38.6475 69.7633 39.6342 72.7952 41.5883 72.1182C61.2903 65.2595 54.3065 35.8359 48.7444 21.0855C48.7457 20.1053 47.9059 19.0969 46.6873 19.4988Z" fill="#1DEBCE"/>
<path d="M10.1346 31.5612L6.80429 32.6609L7.80343 35.6865L11.1345 34.5895C13.086 33.9443 12.0868 30.9186 10.1346 31.5612Z" fill="#0043AC"/>
<path d="M38.7178 22.1304L42.0481 21.0308L43.0446 24.0572L39.7169 25.1561C37.7635 25.8047 36.763 22.7738 38.7178 22.1304Z" fill="#0043AC"/>
<path d="M73.1343 123.129L70.4597 124.012C62.6035 126.594 54.1397 122.331 51.5371 114.482L37.453 71.8029L40.4813 70.8031L54.5621 113.48C56.6098 119.661 63.2744 123.018 69.4599 120.984L72.1352 120.104C78.315 118.055 81.6713 111.391 79.639 105.206L70.5147 77.5551L73.5404 76.5559L82.6647 104.207C85.2497 112.063 80.9858 120.529 73.1343 123.129Z" fill="#1DEBCE"/>
<path d="M45.8417 69.0366C46.6644 71.5348 45.3075 74.2271 42.81 75.0519L38.1342 76.5939C35.6368 77.418 32.9443 76.0619 32.1196 73.5648C31.7238 72.3651 31.8208 71.0573 32.3894 69.9291C32.958 68.801 33.9515 67.945 35.1513 67.5495L39.8265 66.0049C42.3246 65.1822 45.0169 66.5391 45.8417 69.0366Z" fill="#0043AC"/>
<path fill-rule="evenodd" clip-rule="evenodd" d="M31.9056 73.4984C32.6787 76.0639 35.3485 77.5526 37.9374 76.8619L38.1826 76.7805L42.8584 75.2385L42.9736 75.2069C44.685 74.6579 45.9659 73.2266 46.3223 71.465C46.6787 69.7034 46.0549 67.8867 44.6915 66.7156C43.3281 65.5446 41.4381 65.202 39.7504 65.8202L35.0746 67.3622C32.5351 68.2169 31.1325 70.9329 31.9056 73.4984ZM39.8729 66.1948L40.1034 66.1316L40.0983 66.1133C42.4449 65.474 44.8805 66.787 45.6363 69.0986C46.4254 71.4919 45.1256 74.0719 42.7325 74.862L38.0567 76.404L38.0122 76.4162C35.6519 77.083 33.1866 75.7652 32.4298 73.4321C31.6731 71.099 32.8955 68.5851 35.1978 67.7395L39.8729 66.1948Z" fill="#0043AC"/>
<path d="M64.8315 79.6325C65.8076 82.5937 68.4715 84.6753 71.5808 84.9064C74.6902 85.1376 77.6326 83.4729 79.0359 80.6886C80.4392 77.9044 80.027 74.5489 77.9916 72.187C75.9561 69.8252 72.6983 68.9221 69.7373 69.8989C65.6962 71.2337 63.5005 75.5901 64.8315 79.6325Z" fill="#1DEBCE"/>
<path d="M67.7918 78.6626C68.3742 80.4266 69.9621 81.6658 71.8148 81.8022C73.6674 81.9385 75.4197 80.9451 76.254 79.2853C77.0883 77.6256 76.8403 75.6266 75.6257 74.2211C74.4111 72.8156 72.4692 72.2804 70.706 72.8654C68.3039 73.6654 67.0009 76.2574 67.7918 78.6626Z" fill="#0043AC"/>
</svg>
