<svg width="442" height="404" viewBox="0 0 442 404" fill="none" xmlns="http://www.w3.org/2000/svg">
<mask id="mask0" mask-type="alpha" maskUnits="userSpaceOnUse" x="0" y="0" width="442" height="404">
<path d="M0 0H442V400C442 402.209 440.209 404 438 404H0V0Z" fill="#C4C4C4"/>
</mask>
<g mask="url(#mask0)">
<path d="M185.713 133.386C189.548 135.596 190.874 140.491 188.679 144.335L175.273 167.723L124.416 201.529L109.852 185.732C108.523 178.152 110.33 160.143 114.657 153.063C119.174 145.665 126.447 140.366 134.873 138.333C143.299 136.299 152.188 137.697 159.582 142.22C162.573 144.04 165.248 146.334 167.502 149.013L174.753 136.362C176.967 132.525 181.866 131.2 185.713 133.396V133.386Z" fill="white"/>
<path fill-rule="evenodd" clip-rule="evenodd" d="M109.065 186.104L124.288 202.624L175.964 168.308L189.465 144.761C191.7 140.531 190.182 135.291 186.031 132.912C181.881 130.533 176.592 131.871 174.072 135.937L167.407 147.546C160.302 139.737 149.937 135.728 139.427 136.723C128.917 137.719 119.489 143.603 113.976 152.606C109.437 160.026 107.736 178.311 109.065 185.859V186.104ZM124.554 200.402L110.659 185.328C109.479 178.035 111.148 160.42 115.38 153.499C120.729 144.793 129.927 139.177 140.116 138.396C150.305 137.616 160.251 141.765 166.864 149.555L167.64 150.48L175.497 136.787C176.441 135.135 178.004 133.926 179.841 133.427C181.677 132.929 183.637 133.181 185.287 134.13C186.937 135.074 188.144 136.635 188.642 138.469C189.141 140.304 188.89 142.261 187.945 143.91L174.646 167.117L124.554 200.402Z" fill="black"/>
<path d="M300.206 141.444C286.387 130.581 266.449 132.601 255.089 146.015L254.526 146.738L254.334 146.972L253.984 147.439L217.839 194.279L168.937 153.499L124.511 201.508L198.278 263.038C212.182 273.793 232.102 271.623 243.363 258.127L243.587 257.84L247.18 261.933L306.542 186.454C316.925 172.2 314.121 152.278 300.206 141.444Z" fill="white"/>
<path fill-rule="evenodd" clip-rule="evenodd" d="M198.342 264.187C204.095 268.438 211.058 270.737 218.211 270.746C227.94 270.694 237.164 266.41 243.48 259.009L247.095 263.123L307.074 186.795L307.584 186.104C317.715 171.541 314.695 151.599 300.706 140.689C286.799 129.712 266.741 131.498 254.993 144.761H254.93L253.665 146.387L253.441 146.685L217.658 193.003L168.82 152.266L123.778 200.944L123.246 201.593L197.662 263.666L198.342 264.187ZM198.725 262.347L198.395 262.103L125.649 201.444L168.959 154.668L217.913 195.501L254.664 147.886L254.813 147.684L255.004 147.418L255.759 146.515C266.798 133.399 286.26 131.426 299.706 142.06C313.216 152.612 315.904 171.986 305.777 185.817L305.543 186.157L247.074 260.572L243.491 256.49L242.641 257.553C231.703 270.756 212.254 272.88 198.725 262.347Z" fill="black"/>
<path d="M178.537 172.177C182.647 172.177 185.979 175.509 185.979 179.619V549.219H178.537V172.177Z" fill="#0057E0"/>
<path d="M178.537 186.997L164.185 187.454L163.994 181.5L112.052 183.148C105.131 202.117 85.9732 213.742 65.952 211.123C45.9308 208.504 30.4086 192.341 28.6003 172.23C28.5152 171.401 28.4727 170.561 28.4408 169.722C27.7794 149.065 41.8638 130.844 62.0199 126.278C82.1759 121.712 102.738 132.087 111.042 151.011L162.973 149.364L162.803 143.41L177.155 142.953L178.079 172.23L178.537 186.997Z" fill="white"/>
<path fill-rule="evenodd" clip-rule="evenodd" d="M27.7607 172.252C29.8066 194.917 48.802 212.28 71.5595 212.287L72.9521 212.245C90.7076 211.723 106.389 200.527 112.647 183.903L163.165 182.298L163.356 188.262L179.409 187.741L177.963 142.028L161.91 142.539L162.091 148.492L111.584 150.087C102.9 131.014 81.9643 120.719 61.5568 125.485C41.1493 130.251 26.9396 148.754 27.6013 169.7C27.6225 170.466 27.6651 171.369 27.7607 172.252ZM70.1882 126.008H71.5596H71.5915C88.3671 125.956 103.571 135.873 110.287 151.245L110.521 151.777L163.877 150.087L163.696 144.133L176.347 143.729L177.687 186.072L165.036 186.476L164.834 180.522L111.467 182.213L111.276 182.755C104.528 201.411 85.7131 212.864 66.0419 210.289C46.3706 207.713 31.1375 191.804 29.4192 172.039C29.3235 171.189 29.2597 170.328 29.2597 169.594C28.5557 146.267 46.8633 126.771 70.1882 126.008Z" fill="black"/>
<path d="M178.537 186.997L164.185 187.454L163.994 181.5L112.052 183.148C105.131 202.117 85.9735 213.742 65.9523 211.123C45.9311 208.504 30.4089 192.341 28.6006 172.23H178.037L178.537 186.997Z" fill="#0057E0"/>
<path fill-rule="evenodd" clip-rule="evenodd" d="M128.838 164.342L126.531 139.254C126.351 137.304 126.954 135.362 128.206 133.857C129.458 132.351 131.257 131.405 133.208 131.228L134.483 131.111C136.433 130.93 138.375 131.533 139.88 132.785C141.386 134.037 142.332 135.837 142.509 137.787L144.816 162.875C144.997 164.825 144.394 166.767 143.142 168.272C141.89 169.778 140.09 170.724 138.14 170.902L136.865 171.019C134.915 171.199 132.973 170.596 131.468 169.344C129.962 168.092 129.016 166.293 128.838 164.342ZM119.515 171.486L121.641 171.135C125.427 170.486 127.974 166.897 127.339 163.109L123.789 142.188C123.139 138.402 119.551 135.855 115.763 136.49L113.636 136.851C111.814 137.155 110.188 138.173 109.119 139.68C108.049 141.186 107.625 143.057 107.938 144.877L111.489 165.788C112.133 169.577 115.726 172.127 119.515 171.486ZM162.081 139.413L161.113 162.705C161.031 164.599 160.199 166.382 158.801 167.662C157.404 168.942 155.555 169.614 153.661 169.53L151.918 169.466C147.973 169.3 144.91 165.969 145.072 162.025L146.039 138.733C146.116 136.839 146.944 135.053 148.341 133.77C149.737 132.488 151.586 131.814 153.48 131.897L155.235 131.972C157.13 132.049 158.916 132.877 160.201 134.273C161.485 135.669 162.161 137.518 162.081 139.413Z" fill="white"/>
<path fill-rule="evenodd" clip-rule="evenodd" d="M110.649 165.937C111.285 169.688 114.531 172.435 118.335 172.443C118.777 172.438 119.218 172.395 119.653 172.315L121.779 171.954C125.068 171.376 127.628 168.777 128.158 165.48C129.065 169.511 132.824 172.242 136.939 171.858L138.214 171.741C141.433 171.441 144.18 169.289 145.241 166.235C146.596 168.658 149.112 170.204 151.886 170.317L153.64 170.391C155.757 170.48 157.822 169.723 159.38 168.287C160.937 166.851 161.859 164.854 161.942 162.737L162.91 139.445C162.999 137.327 162.242 135.261 160.806 133.701C159.371 132.142 157.374 131.217 155.256 131.132L153.512 131.057C151.397 130.971 149.335 131.729 147.779 133.165C146.224 134.601 145.303 136.596 145.22 138.712L144.678 151.83L143.37 137.691C142.949 133.167 138.945 129.837 134.419 130.25L133.144 130.366C128.617 130.793 125.289 134.801 125.702 139.328L127.541 159.261L124.618 142.039C123.882 137.793 119.851 134.942 115.603 135.661L113.477 136.011C109.227 136.742 106.373 140.776 107.098 145.026L110.649 165.937ZM115.837 137.33C116.188 137.273 116.544 137.245 116.9 137.245C119.869 137.264 122.396 139.41 122.896 142.337L126.446 163.247C126.717 164.846 126.342 166.487 125.403 167.809C124.464 169.131 123.038 170.025 121.439 170.296L119.313 170.657C117.714 170.928 116.074 170.553 114.752 169.614C113.43 168.674 112.535 167.249 112.265 165.65L108.714 144.739C108.15 141.414 110.386 138.259 113.711 137.691L115.837 137.33ZM129.657 164.268C129.988 167.86 133.166 170.505 136.758 170.179L138.034 170.062C141.624 169.719 144.265 166.542 143.944 162.95L141.627 137.861C141.468 136.137 140.63 134.547 139.299 133.44C137.967 132.333 136.25 131.801 134.526 131.961L133.25 132.078C131.526 132.237 129.935 133.075 128.829 134.406C127.722 135.738 127.19 137.455 127.35 139.179L129.657 164.268ZM146.868 138.786C147.005 135.414 149.776 132.751 153.151 132.748L153.406 132.758L155.16 132.833C156.828 132.902 158.4 133.631 159.53 134.859C160.66 136.087 161.257 137.714 161.188 139.381L160.22 162.673C160.065 166.141 157.14 168.833 153.672 168.701L151.918 168.627C148.449 168.477 145.757 165.547 145.901 162.078L146.868 138.786Z" fill="black"/>
<path d="M250.837 566.664H419.154L387.857 141.752L273.098 135.374C273.098 135.374 257.056 489.091 250.837 566.664Z" fill="white"/>
<path fill-rule="evenodd" clip-rule="evenodd" d="M249.912 567.514H420.068L388.665 141.688L388.612 140.944L272.247 134.427V135.289C272.088 138.829 256.141 489.92 249.986 566.6L249.912 567.514ZM418.293 565.813H251.762C257.1 497.712 269.744 226.681 273.155 153.554C273.582 144.4 273.864 138.347 273.97 136.181L387.123 142.56L418.293 565.813Z" fill="black"/>
<path d="M280.848 281.228H361.727L363.853 696.944H261.712L280.848 281.228Z" fill="#1DEBCE"/>
<path d="M408.481 269.268L500.15 660.066L401.635 687.036L327.432 270.384L408.481 269.268Z" fill="#1DEBCE"/>
<path d="M273.098 135.331L381.202 115.026C388.32 113.68 395.682 115.22 401.664 119.305C407.646 123.391 411.758 129.688 413.094 136.809L415.093 147.439C415.92 151.785 415.668 156.268 414.359 160.494L414.03 267.673L311.517 286.617L260.883 192.099C257.071 188.293 254.48 183.437 253.441 178.152C253.441 178.045 253.388 177.939 253.367 177.833L251.368 167.202C250.022 160.084 251.562 152.722 255.647 146.74C259.733 140.758 266.03 136.645 273.151 135.31L273.098 135.331Z" fill="#1DEBCE"/>
<path fill-rule="evenodd" clip-rule="evenodd" d="M260.362 192.503L311.166 287.34L414.168 268.269L414.668 268.173L414.997 160.579C416.301 156.283 416.553 151.736 415.731 147.323L413.721 136.692C410.864 121.555 396.29 111.591 381.149 114.42L273.034 134.725C257.878 137.568 247.888 152.148 250.709 167.308L252.676 177.737L252.474 177.79L252.803 178.407C253.888 183.745 256.516 188.646 260.362 192.503ZM261.287 191.706C257.555 187.987 255.013 183.244 253.983 178.077L251.953 167.117C249.251 152.65 258.758 138.723 273.214 135.969L381.297 115.707C395.764 113.005 409.691 122.511 412.446 136.968L414.455 147.599C415.247 151.847 414.999 156.224 413.732 160.356V160.441L413.402 267.206L311.825 285.98L261.393 191.855L261.287 191.706Z" fill="black"/>
<path d="M310.741 287.053L260.171 192.652C256.311 188.771 253.673 183.845 252.58 178.481L252.123 177.631L252.389 177.556L250.475 167.351C247.626 152.081 257.675 137.386 272.938 134.502L273.257 136.171C258.934 138.884 249.5 152.666 252.155 167L254.228 178.003C255.252 183.118 257.767 187.816 261.457 191.504L261.606 191.706L312.251 286.224L310.741 287.053Z" fill="black"/>
<path d="M285.971 132.907V566.643H228.15L263.838 286.639L249.444 153.244C249.444 153.244 258.703 132.897 285.971 132.907Z" fill="white"/>
<path fill-rule="evenodd" clip-rule="evenodd" d="M227.183 567.514H286.822V132.057H285.939C271.598 132.057 262.233 137.712 256.917 142.443C253.521 145.371 250.72 148.927 248.668 152.914L248.572 153.127L262.977 286.649L227.183 567.514ZM285.121 565.813H229.107L264.689 286.766V286.66L250.316 153.414C252.285 149.742 254.904 146.457 258.044 143.719C263.051 139.264 271.779 133.981 285.121 133.768V565.813Z" fill="black"/>
<path d="M338.562 123.031L419.175 566.664L506.347 531.008L414.04 267.705L414.37 160.526C414.37 160.526 428.668 115.313 375.461 115.313L338.562 123.031Z" fill="white"/>
<path fill-rule="evenodd" clip-rule="evenodd" d="M418.314 566.781L418.505 567.844L507.421 531.465L414.827 267.535L415.157 160.632C415.709 158.814 420.663 141.199 411.096 128.102C404.441 119.034 392.407 114.431 375.397 114.431L337.52 122.34L418.314 566.781ZM419.802 565.452L339.519 123.701L375.514 116.121C391.939 116.143 403.452 120.501 409.745 129.091C418.61 141.181 414.129 157.981 413.582 160.032C413.549 160.158 413.53 160.229 413.53 160.239L413.158 267.822L505.305 530.487L419.802 565.452Z" fill="black"/>
<path d="M314.919 143.123C307.128 146.292 298.243 142.547 295.071 134.757L286.205 112.921L314.419 101.461L323.285 123.286C324.806 127.026 324.779 131.217 323.21 134.938C321.641 138.658 318.659 141.602 314.919 143.123Z" fill="white"/>
<path fill-rule="evenodd" clip-rule="evenodd" d="M294.316 135.076C296.786 141.126 302.665 145.085 309.199 145.101C311.273 145.1 313.327 144.699 315.248 143.921C323.467 140.567 327.42 131.193 324.082 122.967L314.897 100.345L285.131 112.454L294.316 135.076ZM295.815 134.438L287.311 113.389L313.952 102.567L322.456 123.605C325.441 130.962 321.901 139.346 314.547 142.337C307.193 145.323 298.811 141.788 295.815 134.438Z" fill="black"/>
<path d="M304.82 118.279C296.753 121.554 287.716 121.49 279.697 118.101C271.678 114.711 265.335 108.275 262.063 100.207L254.621 81.954C251.343 73.8879 251.406 64.8496 254.795 56.8298C258.185 48.8101 264.624 42.4667 272.693 39.197C280.758 35.9193 289.795 35.9823 297.813 39.3722C305.831 42.7621 312.172 49.2006 315.44 57.2693L322.881 75.5223C326.156 83.5871 326.091 92.6228 322.702 100.64C319.312 108.657 312.876 114.999 304.809 118.269L304.82 118.279Z" fill="white"/>
<path fill-rule="evenodd" clip-rule="evenodd" d="M261.276 100.558C266.453 113.254 278.799 121.553 292.509 121.554C296.84 121.554 301.129 120.713 305.139 119.077C322.351 112.064 330.633 92.4371 323.647 75.214L316.205 56.9504C309.016 40.023 289.574 31.9963 272.538 38.922C255.501 45.8476 247.174 65.1627 253.835 82.3047L261.276 100.558ZM258.527 51.8019C264.455 42.9822 274.377 37.6845 285.004 37.6662C298.017 37.6651 309.736 45.5397 314.653 57.5882L322.095 75.8519C328.717 92.203 320.857 110.83 304.522 117.493C296.668 120.684 287.869 120.625 280.059 117.327C272.249 114.03 266.07 107.764 262.881 99.9093L255.44 81.6563C251.443 71.8102 252.6 60.6216 258.527 51.8019Z" fill="black"/>
<path d="M308.19 56.961L255.631 64.1793C243.969 65.7737 233.221 57.6185 231.616 45.9582C230.022 34.2965 238.177 23.5481 249.837 21.9433L281.283 17.6272C286.885 16.847 292.566 18.3308 297.071 21.7503C301.576 25.1698 304.533 30.2432 305.287 35.8483L308.19 56.961Z" fill="black"/>
<path fill-rule="evenodd" clip-rule="evenodd" d="M231.136 44.5004C231.91 55.8631 241.33 64.6978 252.718 64.7427C253.71 64.739 254.701 64.6715 255.684 64.5407L308.636 57.2693L305.681 35.7633C304.902 30.0584 301.888 24.897 297.302 21.4156C292.716 17.9342 286.934 16.4184 281.23 17.2019L249.774 21.518C238.496 23.1071 230.362 33.1378 231.136 44.5004ZM281.336 17.9886C282.291 17.8614 283.254 17.7975 284.217 17.7972V17.8185C294.654 17.8386 303.478 25.5509 304.894 35.8908L307.743 56.6102L255.578 63.7647C248.172 64.7807 240.786 61.7683 236.204 55.8624C231.621 49.9565 230.537 42.0543 233.36 35.1324C236.183 28.2106 242.485 23.3207 249.891 22.3047L281.336 17.9886Z" fill="black"/>
<path d="M319.979 94.5089C331.304 93.2568 339.471 83.0628 338.222 71.7378L336.436 55.175C335.615 47.7268 331.869 40.9098 326.021 36.2244C320.174 31.5391 312.704 29.3693 305.256 30.1927L290.787 31.7023L304.735 82.2835C305.57 89.8684 312.394 95.3412 319.979 94.5089Z" fill="black"/>
<path fill-rule="evenodd" clip-rule="evenodd" d="M304.299 82.3366C305.095 89.5536 311.188 95.0194 318.448 95.0298C318.975 95.0106 319.5 94.9645 320.022 94.8916C331.566 93.617 339.893 83.2292 338.626 71.6846L336.786 55.09C335.028 39.3757 320.891 28.0435 305.17 29.7462L290.224 31.3089L304.299 82.3366ZM333.516 86.6988C330.159 90.8874 325.273 93.5676 319.936 94.1474H319.958C319.951 94.1482 319.944 94.149 319.936 94.1498C316.383 94.5367 312.821 93.4962 310.034 91.2568C307.241 89.0129 305.457 85.7497 305.075 82.1878L291.255 32.0638L305.255 30.5967C320.54 28.9311 334.291 39.9479 336 55.2282L337.828 71.8228C338.425 77.1575 336.873 82.5101 333.516 86.6988Z" fill="black"/>
<path d="M303.916 65.3061L296.475 68.5698C291.161 70.8791 284.98 68.4544 282.655 63.1481L277.934 52.3472C275.626 47.0307 278.056 40.8491 283.367 38.5272L290.808 35.2636C296.122 32.948 302.307 35.3744 304.628 40.6853L309.348 51.4755C311.663 56.7949 309.232 62.9842 303.916 65.3061Z" fill="black"/>
<path fill-rule="evenodd" clip-rule="evenodd" d="M282.038 63.3926C283.818 67.4451 287.827 70.0608 292.254 70.0581C293.779 70.0551 295.288 69.7403 296.687 69.1332L304.128 65.859C306.831 64.6768 308.954 62.469 310.029 59.7215C311.103 56.9741 311.042 53.9121 309.858 51.2098L305.149 40.4195C302.687 34.7912 296.13 32.2218 290.5 34.6789L283.058 37.9426C277.439 40.4134 274.873 46.961 277.318 52.5918L282.038 63.3926ZM291.032 35.8058C292.279 35.2612 293.625 34.979 294.986 34.9766C298.925 34.9837 302.489 37.3135 304.075 40.9192L308.785 51.7094C309.839 54.1169 309.893 56.8449 308.933 59.2918C307.974 61.7388 306.081 63.7037 303.672 64.7533L296.23 68.017C291.219 70.2013 285.385 67.9191 283.186 62.9142L278.477 52.1134C276.287 47.0993 278.576 41.2598 283.59 39.0694L291.032 35.8058ZM294.986 34.9766C294.99 34.9766 294.993 34.9766 294.997 34.9766H294.976C294.979 34.9766 294.983 34.9766 294.986 34.9766Z" fill="black"/>
<path d="M303.778 68.0383L307.18 76.4153C307.825 78.0012 307.813 79.7783 307.147 81.3554C306.481 82.9325 305.215 84.1803 303.629 84.8242C300.327 86.1604 296.566 84.5723 295.22 81.2736L291.818 72.9071C290.482 69.6046 292.07 65.8437 295.369 64.4982C296.953 63.85 298.731 63.859 300.308 64.5232C301.886 65.1873 303.134 66.4521 303.778 68.0383Z" fill="white"/>
<path fill-rule="evenodd" clip-rule="evenodd" d="M294.433 81.5925C295.558 84.3445 298.232 86.1456 301.205 86.1531C303.636 86.152 305.907 84.9417 307.263 82.9245C308.619 80.9074 308.883 78.3477 307.966 76.0964L304.565 67.7193C303.044 63.9823 298.782 62.1856 295.045 63.7062C291.308 65.2269 289.511 69.4891 291.032 73.2261L294.433 81.5925ZM293.831 66.5369C294.88 65.4836 296.306 64.8915 297.793 64.8915V64.9234C300.073 64.922 302.127 66.3 302.991 68.4103L306.393 76.7874L306.446 76.9043C307.179 78.7672 306.863 80.8797 305.616 82.446C304.369 84.0123 302.381 84.7944 300.401 84.4977C298.422 84.2011 296.75 82.8707 296.017 81.0078L292.616 72.6307C292.335 71.9572 292.194 71.234 292.201 70.5046C292.195 69.0179 292.782 67.5901 293.831 66.5369Z" fill="black"/>
<path d="M207.442 307.39L230.298 292.273V291.444C230.382 287.946 231.021 284.483 232.19 281.185L217.616 281.27C215.489 281.287 213.443 280.457 211.929 278.963C210.415 277.469 209.558 275.435 209.547 273.308C209.523 268.879 213.091 265.268 217.52 265.239L244.458 265.069L315.238 205.218C329.071 194.399 348.982 196.448 360.322 209.858C371.662 223.268 370.376 243.242 357.41 255.087L284.058 317.107C279.165 321.232 273.163 323.821 266.804 324.548L254.217 349.158C253.249 351.052 251.568 352.484 249.545 353.138C247.521 353.792 245.32 353.614 243.427 352.645C239.484 350.629 237.919 345.801 239.93 341.855L250.029 322.114C249.32 321.781 248.587 321.426 247.828 321.051L231.776 339.006C228.785 342.138 223.849 342.333 220.621 339.446C217.393 336.559 217.037 331.632 219.816 328.311L235.869 310.345C235.465 309.75 235.071 309.133 234.71 308.506L216.308 320.764C213.93 322.362 210.88 322.572 208.307 321.312C205.733 320.053 204.027 317.516 203.831 314.657C203.635 311.799 204.979 309.053 207.357 307.454L207.453 307.39H207.442Z" fill="white"/>
<path fill-rule="evenodd" clip-rule="evenodd" d="M239.522 350.187C241.13 352.819 243.988 354.43 247.074 354.442C250.403 354.453 253.46 352.603 254.993 349.647L267.463 325.356C273.54 324.559 279.281 322.106 284.058 318.265L358.048 255.693L358.675 255.119C371.445 242.865 372.492 222.797 361.068 209.281C349.643 195.765 329.681 193.455 315.472 204.006L315.419 203.953L244.193 264.155L217.562 264.325C214.32 264.223 211.28 265.898 209.634 268.694C207.988 271.489 207.998 274.96 209.661 277.746C211.323 280.532 214.374 282.189 217.616 282.068L231 281.982C230.038 285.022 229.516 288.183 229.448 291.369V291.763L206.974 306.646C203.069 309.418 202.067 314.788 204.709 318.782C207.352 322.777 212.687 323.954 216.765 321.444L234.444 309.75L234.806 310.313L219.189 327.822C215.925 331.474 216.239 337.081 219.891 340.345C223.543 343.61 229.149 343.296 232.414 339.644L248.03 322.177L248.881 322.581L239.185 341.525C237.787 344.275 237.914 347.554 239.522 350.187ZM248.232 320.37L247.647 320.062L230.968 338.559C229.289 340.579 226.64 341.521 224.063 341.013C221.486 340.506 219.392 338.63 218.604 336.124C217.816 333.619 218.461 330.883 220.284 328.992L236.783 310.537L236.411 309.995C235.975 309.346 235.603 308.761 235.273 308.198L234.827 307.422L215.691 320.104L215.606 320.168C213.458 321.66 210.669 321.865 208.326 320.703C205.983 319.541 204.458 317.197 204.345 314.585C204.231 311.972 205.548 309.505 207.782 308.145L231.021 292.773V291.508C231.093 288.099 231.714 284.725 232.86 281.515L233.264 280.367L217.477 280.473C213.514 280.488 210.29 277.287 210.275 273.324C210.26 269.361 213.461 266.136 217.424 266.121L244.682 265.951L315.036 206.419L315.684 205.909C329.157 195.351 348.567 197.339 359.619 210.408C370.672 223.478 369.41 242.948 356.762 254.481L356.464 254.757L284.1 315.958L283.452 316.511C278.693 320.544 272.85 323.084 266.655 323.815L266.198 323.868L253.441 348.871C252.287 351.171 249.988 352.675 247.419 352.812C244.85 352.949 242.404 351.697 241.012 349.534C239.62 347.37 239.495 344.625 240.684 342.344L251.188 321.795L250.358 321.433C250.061 321.282 249.762 321.135 249.464 320.989C249.048 320.784 248.635 320.581 248.232 320.37Z" fill="black"/>
<path d="M412.721 163.072C421.127 147.582 415.735 128.216 400.533 119.299C385.332 110.382 365.797 115.125 356.378 130.021L308.295 209.805L244.447 264.67L284.057 316.761L357.409 254.741C360.469 251.955 362.97 248.61 364.776 244.886L412.753 163.136L412.721 163.072Z" fill="white"/>
<path fill-rule="evenodd" clip-rule="evenodd" d="M283.441 317.702L283.994 318.35L357.931 255.703L358.548 255.14C361.408 252.41 363.759 249.191 365.49 245.636L413.891 163.152H413.828C421.846 147.348 416.182 128.034 400.898 119.064C385.615 110.094 365.991 114.566 356.103 129.271L307.647 209.661L243.289 264.941L283.441 317.702ZM284.228 315.937L245.617 265.196L308.817 210.873L308.923 210.788L356.655 131.61L357.091 130.919C366.302 116.501 385.264 111.944 400.02 120.602C414.777 129.26 420.05 148.035 411.957 163.109L411.776 163.481L363.991 244.913C362.229 248.53 359.794 251.777 356.815 254.481L356.517 254.768L284.228 315.937Z" fill="black"/>
</g>
</svg>
