<svg width="229" height="150" viewBox="0 0 229 150" fill="none" xmlns="http://www.w3.org/2000/svg">
<mask id="mask0" mask-type="alpha" maskUnits="userSpaceOnUse" x="0" y="0" width="229" height="150">
<rect width="229" height="150" fill="#0043AC"/>
</mask>
<g mask="url(#mask0)">
<path d="M176.419 117.912C176.419 117.912 124.175 59.3537 140.571 46.8485C156.966 34.3432 180.918 78.393 176.419 117.912Z" fill="#0043AC"/>
<path fill-rule="evenodd" clip-rule="evenodd" d="M176.124 118.086L176.694 118.729L176.783 117.938C180.418 86.0298 165.658 51.3277 151.025 45.2985C147.216 43.7261 143.516 44.186 140.326 46.6201C133.382 51.9161 137.323 65.5758 152.029 87.2164C162.926 103.243 175.993 117.938 176.124 118.086ZM140.822 47.0703C142.636 45.6837 144.578 44.9859 146.624 44.9834C148.041 45.0046 149.433 45.2996 150.688 45.8451C157.706 48.7295 164.945 58.569 170.064 72.1644C175.431 86.4125 177.636 102.735 176.147 117.086C170.521 110.648 125.772 58.5498 140.822 47.0703ZM146.624 44.9834C146.628 44.9834 146.631 44.9834 146.635 44.9834H146.623C146.624 44.9834 146.624 44.9834 146.624 44.9834Z" fill="white"/>
<path d="M145.651 53.6911C155.604 66.1323 163.429 79.6594 168.901 93.8854C173.515 105.865 176.742 118.183 178.539 130.671C179.337 136.115 179.833 141.575 180.282 147.045C180.294 147.101 180.352 147.141 180.42 147.141C180.488 147.141 180.546 147.101 180.557 147.045C180.228 136.456 178.566 125.822 176.113 115.436C172.935 101.995 168.099 88.792 161.294 76.3028C156.99 68.3582 151.851 60.7433 145.938 53.5464C145.821 53.4049 145.55 53.5464 145.662 53.6782L145.651 53.6911Z" fill="#1DEBCE"/>
<path d="M173.582 89.3836C173.47 92.001 173.427 94.6185 173.303 97.2392C173.195 99.5511 172.916 101.892 172.951 104.207C172.951 104.313 173.164 104.346 173.183 104.233C173.602 101.982 173.629 99.6669 173.737 97.4064C173.865 94.7342 173.95 92.0557 173.857 89.3675C173.853 89.3048 173.79 89.2563 173.714 89.2582C173.636 89.2633 173.578 89.319 173.582 89.3836Z" fill="#1DEBCE"/>
<path d="M165.448 69.3154C165.336 71.9329 165.293 74.5536 165.169 77.171C165.061 79.483 164.782 81.8239 164.813 84.1391C164.813 84.2452 165.026 84.2806 165.049 84.1648C165.468 81.9139 165.495 79.5987 165.6 77.3382C165.727 74.6661 165.817 71.9876 165.724 69.2994C165.724 69.2689 165.709 69.2398 165.682 69.2186C165.656 69.1974 165.621 69.1859 165.584 69.1868C165.544 69.1865 165.507 69.2005 165.481 69.2252C165.455 69.25 165.443 69.2829 165.448 69.3154Z" fill="#1DEBCE"/>
<path d="M153.521 51.2376C153.792 53.4564 153.97 55.6751 154.021 57.9067C154.071 60.1897 153.854 62.4728 153.912 64.7526C153.912 64.8587 154.125 64.8941 154.149 64.7783C154.571 62.5274 154.513 60.1704 154.459 57.9067C154.439 55.6621 154.215 53.422 153.788 51.2055C153.761 51.0801 153.502 51.109 153.517 51.2376H153.521Z" fill="#1DEBCE"/>
<path d="M144.205 61.6656C146.48 62.8618 148.704 64.1127 150.851 65.4568C152.998 66.8009 155.075 68.3765 157.268 69.7431C157.381 69.8138 157.501 69.6659 157.415 69.5887C155.59 67.9649 153.366 66.579 151.239 65.2478C149.06 63.844 146.756 62.5808 144.345 61.4695C144.278 61.4405 144.196 61.4604 144.159 61.5145C144.123 61.568 144.143 61.6358 144.205 61.6688V61.6656Z" fill="#1DEBCE"/>
<path d="M145.837 65.1738C148.111 66.3667 150.332 67.6208 152.482 68.9649C154.633 70.309 156.706 71.8846 158.9 73.2512C159.012 73.322 159.132 73.174 159.043 73.0936C157.222 71.4859 154.997 70.0871 152.866 68.7527C150.688 67.351 148.385 66.089 145.976 64.9776C145.933 64.9522 145.876 64.9491 145.83 64.9698C145.783 64.9905 145.754 65.0313 145.756 65.0752C145.757 65.1191 145.789 65.1585 145.837 65.177V65.1738Z" fill="#1DEBCE"/>
<path d="M154.788 82.8496C157.063 84.0458 159.287 85.2934 161.434 86.6408C163.581 87.9881 165.658 89.5605 167.851 90.9271C167.963 90.9978 168.084 90.8499 167.998 90.7727C166.173 89.165 163.949 87.763 161.821 86.4317C159.642 85.029 157.338 83.766 154.928 82.6535C154.861 82.6236 154.778 82.6419 154.738 82.6953C154.7 82.7504 154.722 82.8207 154.788 82.8528V82.8496Z" fill="#1DEBCE"/>
<path d="M189.823 105.764C189.823 105.764 240.198 46.083 223.404 33.9379C206.609 21.7928 184.068 66.3538 189.823 105.764Z" fill="white"/>
<path d="M218.262 40.7581C208.493 53.2987 201.211 67.087 196.123 81.3897C191.88 93.4805 189.048 105.882 187.668 118.423C187.04 123.922 186.614 129.462 186.614 134.986C186.62 135.049 186.686 135.096 186.761 135.093C186.832 135.091 186.889 135.045 186.893 134.986C187.428 124.33 188.4 113.738 190.574 103.217C193.357 89.7533 197.782 76.5085 204.137 63.9003C208.158 55.9118 212.979 48.2169 218.548 40.8963C218.657 40.7484 218.382 40.6166 218.269 40.7613L218.262 40.7581Z" fill="#1DEBCE"/>
<path d="M191.473 77.1837C191.473 79.8559 191.64 82.5312 191.861 85.2001C192.039 87.451 192.136 89.7855 192.636 92.0138C192.663 92.1232 192.872 92.0974 192.872 91.9849C192.845 89.6697 192.485 87.3416 192.295 85.0297C192.09 82.4154 191.962 79.798 191.768 77.1837C191.762 77.1206 191.697 77.0725 191.621 77.0744C191.584 77.0727 191.547 77.0832 191.52 77.1037C191.492 77.1242 191.475 77.153 191.473 77.1837Z" fill="#1DEBCE"/>
<path d="M198.972 56.9612C198.972 59.6334 199.138 62.3087 199.359 64.9776C199.537 67.2285 199.638 69.563 200.134 71.7913C200.161 71.9039 200.371 71.8749 200.371 71.7656C200.343 69.4504 199.983 67.1191 199.793 64.8104C199.588 62.1929 199.46 59.5755 199.266 56.9612C199.266 56.9308 199.251 56.9017 199.225 56.8805C199.199 56.8593 199.163 56.8478 199.127 56.8487C199.088 56.844 199.048 56.8537 199.018 56.8754C198.988 56.897 198.971 56.9284 198.972 56.9612Z" fill="#1DEBCE"/>
<path d="M210.326 38.5811C209.97 40.8054 209.817 43.0487 209.868 45.292C209.868 47.5429 209.899 49.9256 210.395 52.1572C210.422 52.2697 210.632 52.2408 210.632 52.1315C210.632 49.8516 210.329 47.575 210.306 45.292C210.287 43.0604 210.399 40.8352 210.597 38.6133C210.597 38.4847 210.349 38.4525 210.326 38.5811Z" fill="#1DEBCE"/>
<path d="M220.098 48.6361C217.826 49.7483 215.655 50.9983 213.604 52.3758C211.422 53.8067 209.136 55.3019 207.288 57.0351C207.257 57.0604 207.245 57.0972 207.256 57.1318C207.267 57.1663 207.3 57.1933 207.342 57.2025C207.383 57.2118 207.428 57.2019 207.458 57.1766C209.558 55.7939 211.5 54.2376 213.596 52.8453C215.693 51.4529 217.959 50.0992 220.238 48.8323C220.303 48.8003 220.325 48.7305 220.286 48.6763C220.248 48.6222 220.164 48.6042 220.098 48.6361Z" fill="#1DEBCE"/>
<path d="M218.591 52.1765C216.319 53.2895 214.15 54.5405 212.1 55.9194C209.915 57.3503 207.632 58.8455 205.784 60.5787C205.738 60.6169 205.738 60.6788 205.784 60.7169C205.83 60.7551 205.905 60.7551 205.951 60.7169C208.055 59.3343 209.992 57.7812 212.089 56.3888C214.185 54.9965 216.452 53.6428 218.731 52.3758C218.779 52.3574 218.81 52.318 218.811 52.2741C218.813 52.2302 218.784 52.1894 218.738 52.1687C218.691 52.148 218.634 52.151 218.591 52.1765Z" fill="#1DEBCE"/>
<path d="M210.19 70.0452C207.917 71.1559 205.748 72.406 203.699 73.7848C201.518 75.2158 199.231 76.711 197.383 78.4442C197.353 78.4689 197.342 78.5049 197.352 78.5386C197.363 78.5723 197.395 78.5987 197.436 78.6077C197.476 78.6168 197.52 78.6071 197.55 78.5824C199.654 77.1998 201.591 75.6466 203.688 74.2543C205.784 72.862 208.051 71.5082 210.329 70.2413C210.372 70.2206 210.397 70.1828 210.397 70.1421C210.397 70.1015 210.37 70.0641 210.327 70.0441C210.285 70.0241 210.232 70.0245 210.19 70.0452Z" fill="#1DEBCE"/>
<path d="M184.739 90.0461C184.739 90.0461 134.049 30.5585 150.766 18.3394C167.483 6.12037 190.28 50.6171 184.739 90.0461Z" fill="#0043AC"/>
<path fill-rule="evenodd" clip-rule="evenodd" d="M184.425 90.2261L184.975 90.8692L185.087 90.0846C189.559 58.2475 175.714 23.2849 161.244 16.9953C157.485 15.3586 153.765 15.7444 150.51 18.1239C143.434 23.2913 147.011 37.0185 161.147 58.9196C171.289 74.6395 183.507 89.1376 184.376 90.1687C184.405 90.2021 184.421 90.2214 184.425 90.2261ZM150.983 18.5709C152.812 17.2525 154.699 16.5901 156.687 16.5901L156.714 16.5934C158.179 16.6194 159.613 16.9406 160.895 17.5291C167.82 20.5388 174.795 30.507 179.557 44.1924C184.549 58.5305 186.323 74.8912 184.459 89.21C179.003 82.676 135.634 29.7771 150.983 18.5709Z" fill="#1DEBCE"/>
<path d="M155.672 25.285C165.31 37.9349 172.784 51.6343 177.88 65.9906C182.163 78.0294 185.055 90.3792 186.517 102.873C187.176 108.323 187.525 113.786 187.827 119.256C187.827 119.32 187.889 119.372 187.966 119.372C188.043 119.372 188.106 119.32 188.106 119.256C188.052 108.645 186.664 97.9531 184.471 87.4962C181.646 74.0198 177.159 60.7557 170.691 48.1636C166.606 40.1489 161.678 32.448 155.966 25.15C155.854 25.0085 155.579 25.15 155.691 25.285H155.672Z" fill="white"/>
<path d="M182.65 61.4631C182.468 64.0806 182.355 66.698 182.162 69.3155C181.991 71.6243 181.639 73.9587 181.623 76.2739C181.623 76.38 181.836 76.4122 181.859 76.2997C182.336 74.0681 182.425 71.74 182.592 69.4827C182.786 66.8138 182.944 64.1385 182.925 61.4631C182.919 61.4004 182.853 61.3533 182.778 61.357C182.709 61.3602 182.654 61.4059 182.65 61.4631Z" fill="white"/>
<path d="M175.051 41.263C174.869 43.8804 174.756 46.4979 174.563 49.1154C174.396 51.4241 174.039 53.7586 174.024 56.0738C174.024 56.1799 174.237 56.2121 174.26 56.0995C174.741 53.8679 174.826 51.5399 174.993 49.2826C175.19 46.6137 175.345 43.9383 175.326 41.2662C175.335 41.2209 175.311 41.1753 175.265 41.1501C175.218 41.1249 175.158 41.1249 175.112 41.1501C175.066 41.1753 175.042 41.2209 175.051 41.2662V41.263Z" fill="white"/>
<path d="M163.6 22.973C163.809 25.1981 163.933 27.4233 163.925 29.6517C163.925 31.9347 163.639 34.2145 163.639 36.4943C163.639 36.6005 163.848 36.6326 163.871 36.5201C164.356 34.2692 164.359 31.9186 164.363 29.6517C164.402 27.4086 164.236 25.1664 163.867 22.944C163.844 22.8154 163.584 22.8476 163.596 22.973H163.6Z" fill="white"/>
<path d="M154.017 33.2306C156.299 34.4879 158.531 35.803 160.678 37.2179C162.825 38.6327 164.732 40.1504 166.84 41.5267C166.887 41.5658 166.963 41.5658 167.01 41.5267C167.057 41.4876 167.057 41.4243 167.01 41.3852C165.154 39.6585 162.856 38.1697 160.667 36.7484C158.611 35.378 156.435 34.1365 154.157 33.0344C154.125 33.0196 154.087 33.0161 154.052 33.0245C154.017 33.033 153.988 33.0528 153.971 33.0795C153.935 33.132 153.955 33.1987 154.017 33.2306Z" fill="white"/>
<path d="M155.525 36.7677C157.811 38.025 160.039 39.3402 162.19 40.755C164.34 42.1698 166.239 43.6876 168.351 45.0638C168.373 45.0825 168.403 45.093 168.434 45.093C168.466 45.093 168.496 45.0825 168.518 45.0638C168.54 45.0451 168.553 45.0197 168.553 44.9931C168.553 44.9665 168.54 44.9411 168.518 44.9223C166.661 43.1956 164.367 41.7068 162.178 40.2887C160.122 38.917 157.946 37.6745 155.668 36.5716C155.602 36.5399 155.517 36.5586 155.478 36.6134C155.46 36.6394 155.455 36.6703 155.464 36.6993C155.474 36.7283 155.497 36.7529 155.528 36.7677H155.525Z" fill="white"/>
<path d="M164.049 54.6011C166.336 55.8584 168.564 57.1735 170.715 58.5884C172.865 60.0032 174.768 61.5209 176.876 62.8972C176.899 62.916 176.929 62.9266 176.961 62.9266C176.993 62.9266 177.024 62.916 177.046 62.8972C177.089 62.859 177.089 62.8003 177.046 62.7621C175.19 61.0354 172.896 59.5466 170.707 58.1253C168.648 56.7556 166.471 55.5132 164.193 54.4081C164.126 54.3791 164.044 54.399 164.007 54.4532C163.968 54.5064 163.989 54.5755 164.053 54.6075L164.049 54.6011Z" fill="white"/>
<path d="M180.03 107.4C180.03 107.4 211.225 71.8235 201.254 64.3409C191.283 56.8584 177.077 83.557 180.03 107.4Z" fill="#1DEBCE"/>
<path d="M198.003 68.386C186.765 82.1807 180.716 98.5157 178.476 114.973C177.988 118.306 177.713 121.658 177.655 125.015C177.655 125.079 177.717 125.131 177.794 125.131C177.871 125.131 177.934 125.079 177.934 125.015C178.503 118.584 179.162 112.207 180.619 105.866C182.455 97.6904 185.405 89.714 189.412 82.0907C191.922 77.3762 194.889 72.8382 198.282 68.5211C198.394 68.3764 198.115 68.2477 198.003 68.386Z" fill="white"/>
<path d="M181.406 90.1618C181.275 93.1563 181.44 96.1548 181.902 99.1267C181.902 99.1943 182.045 99.175 182.045 99.1267C182.018 96.1524 181.731 93.149 181.572 90.1779C181.572 90.1388 181.534 90.1071 181.487 90.1071C181.448 90.1065 181.413 90.1296 181.406 90.1618Z" fill="white"/>
<path d="M186.199 78.0102C186.068 81.0047 186.234 84.0032 186.695 86.9751C186.695 87.0427 186.835 87.0234 186.835 86.9751C186.812 84.0008 186.525 80.9974 186.366 78.0263C186.366 78.0078 186.357 77.9901 186.341 77.9774C186.325 77.9646 186.303 77.9579 186.281 77.9588C186.236 77.9588 186.199 77.989 186.199 78.0263V78.0102Z" fill="white"/>
<path d="M193.298 67.0259C192.763 69.7384 192.718 72.5019 193.163 75.2255C193.163 75.293 193.302 75.2738 193.302 75.2255C193.302 72.4859 193.163 69.7977 193.461 67.0613C193.469 66.968 193.31 66.9487 193.298 67.0259Z" fill="white"/>
<path d="M199.061 73.1837C196.167 74.5071 193.525 76.1767 191.217 78.1388C191.152 78.1967 191.249 78.2707 191.318 78.2257C193.899 76.5278 196.356 74.7947 199.146 73.3059C199.179 73.2966 199.202 73.2717 199.204 73.2429C199.206 73.2141 199.186 73.1872 199.155 73.1749C199.123 73.1626 199.086 73.1674 199.061 73.1869V73.1837Z" fill="white"/>
<path d="M198.104 75.3091C195.21 76.6324 192.567 78.302 190.26 80.2643C190.195 80.3222 190.291 80.3961 190.365 80.3479C192.946 78.6533 195.403 76.9169 198.189 75.4313C198.228 75.4107 198.241 75.3688 198.22 75.3349C198.196 75.3012 198.144 75.2897 198.104 75.3091Z" fill="white"/>
<path d="M192.799 86.0201C189.904 87.3414 187.261 89.0113 184.955 90.9753C184.937 90.9902 184.93 91.012 184.937 91.0324C184.944 91.0528 184.963 91.0687 184.987 91.0742C185.012 91.0796 185.038 91.0738 185.056 91.0589C187.637 89.3643 190.094 87.6279 192.88 86.1391C192.899 86.1303 192.913 86.1154 192.919 86.0979C192.925 86.0803 192.922 86.0616 192.911 86.0458C192.9 86.0299 192.882 86.0181 192.861 86.0133C192.84 86.0085 192.818 86.0109 192.799 86.0201Z" fill="white"/>
<path d="M200.979 133.273L200.758 134.504L200.289 137.122L195.775 162.267H168.843L164.329 137.122L163.86 134.504L163.639 133.273H200.979Z" fill="white"/>
<path d="M200.758 134.504L200.289 137.122H164.329L163.86 134.504H200.758Z" fill="#0043AC"/>
<path fill-rule="evenodd" clip-rule="evenodd" d="M164.015 137.427H200.603L201.18 134.211H163.437L164.015 137.427ZM199.975 136.819H164.642L164.294 134.806H200.332L199.975 136.819Z" fill="white"/>
<path d="M96.0689 45.7054C103.691 45.7054 109.87 51.8843 109.87 59.5063C109.87 67.1282 103.691 73.3071 96.0689 73.3071C88.4469 73.3071 82.2681 67.1282 82.2681 59.5063C82.2669 55.8457 83.7205 52.3347 86.3089 49.7463C88.8973 47.1579 92.4083 45.7043 96.0689 45.7054V45.7054Z" fill="black"/>
<path fill-rule="evenodd" clip-rule="evenodd" d="M83.483 66.3516C85.9884 70.9537 90.8065 73.8208 96.0465 73.8277C102.926 73.8485 108.851 68.9808 110.165 62.2282C111.479 55.4755 107.813 48.7409 101.428 46.1798C95.0434 43.6186 87.7393 45.9527 84.0229 51.7419C81.1846 56.1466 80.9775 61.7494 83.483 66.3516ZM85.1673 67.06C82.1127 62.6504 82.0153 56.8348 84.9206 52.3253C88.887 46.1689 97.0927 44.3928 103.25 48.3579C107.76 51.2623 110.076 56.5975 109.119 61.8757C108.161 67.1538 104.118 71.3353 98.8751 72.4702C93.6322 73.605 88.2219 71.4697 85.1673 67.06Z" fill="black"/>
<path d="M85.9887 100.639L62.7854 85.6987L84.741 51.5894L107.944 66.5301L85.9887 100.639Z" fill="black"/>
<path fill-rule="evenodd" clip-rule="evenodd" d="M62.0315 85.8602L86.1504 101.384L108.707 66.382L84.5751 50.8533L62.0315 85.8602ZM85.8273 99.8989L63.5306 85.5371L84.9028 52.3478L107.204 66.7096L85.8273 99.8989Z" fill="black"/>
<path d="M23.6361 134.125C24.7708 143.826 33.1271 151.053 42.89 150.777C52.653 150.502 60.5885 142.815 61.1743 133.066C61.2562 131.716 61.1914 130.362 60.9813 129.026C59.5286 119.737 51.4528 112.939 42.0519 113.091C32.6511 113.244 24.8001 120.301 23.6496 129.632C23.4645 131.124 23.46 132.632 23.6361 134.125Z" fill="#231FFD"/>
<path d="M127.795 132.787C127.205 124.012 120.152 117.061 111.369 116.599L46.1393 113.103C39.7057 111.719 33.0105 113.709 28.3773 118.383C23.744 123.056 21.8114 129.768 23.2502 136.189L22.9719 222.118L65.7926 222.472L62.3951 151.166L110.305 151.332C119.899 151.397 127.732 143.678 127.809 134.084C127.836 133.654 127.827 133.218 127.795 132.787Z" fill="#1DEBCE"/>
<path d="M52.4092 160.447C55.1554 169.818 64.6029 175.54 74.1795 173.633C83.7561 171.726 90.291 162.821 89.2383 153.114C89.0945 151.77 88.8041 150.445 88.3721 149.164C85.379 140.256 76.2815 134.913 67.0437 136.639C57.8058 138.364 51.2497 146.63 51.6732 156.018C51.7393 157.518 51.9864 159.006 52.4092 160.447Z" fill="#231FFD"/>
<path d="M159.091 128.254C155.828 120.086 147.651 115.378 140.057 117.281L69.3696 135.96C66.7097 136.116 64.1113 136.824 61.7399 138.038C59.9518 138.873 58.3377 140.038 56.9826 141.472C53.1108 145.299 51.0414 150.588 51.2872 156.027L52.0412 160.515L66.5197 247.291L108.793 240.465L92.9544 168.306L150.105 150.511C158.714 147.881 162.847 137.643 159.091 128.254Z" fill="#1DEBCE"/>
<path fill-rule="evenodd" clip-rule="evenodd" d="M50.982 156.085L66.2414 247.682L109.201 240.734L93.3538 168.526L150.227 150.825C154.172 149.6 157.412 146.759 159.14 143.007C161.303 138.501 161.406 133.057 159.423 128.12C156.102 119.803 147.745 115.001 139.989 116.944L69.3337 135.615C66.648 135.776 64.0253 136.495 61.6322 137.724C59.8076 138.571 58.161 139.757 56.7806 141.22C52.8385 145.114 50.7313 150.496 50.982 156.031V156.085ZM66.7979 246.905L51.6417 156.013L51.6552 155.991V155.95C51.4232 150.615 53.4596 145.43 57.2608 141.678C58.5875 140.27 60.172 139.129 61.9284 138.317C64.2497 137.122 66.795 136.427 69.401 136.275H69.4369L140.151 117.586C147.57 115.724 155.59 120.355 158.79 128.358C160.711 132.972 160.615 138.179 158.525 142.719C156.873 146.308 153.772 149.025 149.998 150.192L92.5505 168.077L108.384 240.173L66.7979 246.905Z" fill="white"/>
<path d="M157.475 85.6583L97.5727 73.4776C91.0785 72.1582 85.814 65.0176 85.814 57.5315V57.0154C85.814 49.5293 91.0785 44.5296 97.5727 45.8491L157.475 58.0252C163.969 59.3447 169.234 66.4852 169.234 73.9713V74.4875C169.234 81.978 163.969 86.9778 157.475 85.6583Z" fill="white"/>
<path fill-rule="evenodd" clip-rule="evenodd" d="M157.403 86.0083C158.1 86.1514 158.81 86.2236 159.521 86.2237C161.699 86.239 163.812 85.491 165.495 84.1098C168.098 81.9825 169.593 78.4728 169.593 74.4874V73.9713C169.593 66.3326 164.189 59.017 157.547 57.6706L97.622 45.4945C94.7819 44.8566 91.8061 45.5527 89.5435 47.384C86.9359 49.5158 85.4414 53.021 85.4414 57.0109V57.527C85.4414 65.1657 90.845 72.4812 97.4874 73.8277L157.403 86.0083ZM165.042 83.5848C162.941 85.2796 160.18 85.921 157.547 85.3262L97.6267 73.1276C91.303 71.8395 86.1552 64.8471 86.1552 57.5316V57.0154C86.1552 53.2455 87.5554 49.9377 89.9924 47.945C92.0932 46.2493 94.8536 45.6063 97.4875 46.1992L157.408 58.4022C163.731 59.6858 168.879 66.6827 168.879 73.9983V74.5144C168.879 78.2889 167.479 81.5921 165.042 83.5848Z" fill="black"/>
<path d="M169.234 76.6553L157.452 123.933L97.5996 111.765L86.2043 59.7756L169.234 76.6553Z" fill="white"/>
<path fill-rule="evenodd" clip-rule="evenodd" d="M97.2989 112.071L157.717 124.354L169.66 76.3725L85.7332 59.3178L97.2989 112.071ZM157.179 123.511L97.9004 111.46L86.6533 60.2379L168.785 76.9335L157.179 123.511Z" fill="black"/>
<path d="M113.55 48.497L124.254 41.37L129.766 49.655C130.71 51.0748 131.052 52.8119 130.715 54.4836C130.378 56.1554 129.391 57.6248 127.97 58.5683C125.013 60.5326 121.023 59.729 119.057 56.773L113.546 48.4926L113.55 48.497Z" fill="white"/>
<path fill-rule="evenodd" clip-rule="evenodd" d="M123.069 59.8698C123.513 59.9592 123.964 60.0043 124.416 60.0045C125.75 60.0092 127.056 59.6171 128.168 58.878C129.671 57.8807 130.714 56.3261 131.069 54.5577C131.424 52.7893 131.059 50.9525 130.057 49.453L124.344 40.8763L113.043 48.3939L118.756 56.975C119.749 58.4781 121.302 59.5207 123.069 59.8698ZM119.349 56.5801L114.035 48.5958L124.142 41.8682L129.456 49.8525C131.311 52.6438 130.553 56.4101 127.764 58.2676C124.974 60.1233 121.208 59.3681 119.349 56.5801Z" fill="black"/>
<path d="M110.759 16.0887C118.378 15.3899 125.121 21 125.821 28.6194L126.579 36.8999C126.916 40.5584 125.785 44.2009 123.436 47.0257C121.087 49.8504 117.712 51.6261 114.053 51.9618C110.394 52.2973 106.753 51.1656 103.929 48.8155C101.105 46.4655 99.3302 43.0897 98.9955 39.4311L98.237 31.1462C97.5383 23.5292 103.146 16.7879 110.763 16.0887H110.759Z" fill="white"/>
<path fill-rule="evenodd" clip-rule="evenodd" d="M98.6185 39.467C99.2902 46.7722 105.411 52.366 112.747 52.3792C113.196 52.3792 113.645 52.3613 114.093 52.3209C121.901 51.5956 127.647 44.6865 126.938 36.8774L126.175 28.5925C125.458 20.7771 118.54 15.0233 110.725 15.7409C102.91 16.4585 97.1559 23.3757 97.8734 31.191L98.6185 39.467ZM110.781 16.4433C111.198 16.3849 111.62 16.3849 112.033 16.3849L112.047 16.3804C119.013 16.3953 124.825 21.7088 125.462 28.6463L126.22 36.9313V37.0794C126.731 44.4282 121.254 50.829 113.915 51.4612C106.576 52.0933 100.085 46.7232 99.332 39.3952L98.5735 31.1103C97.8956 23.6895 103.36 17.1236 110.781 16.4433Z" fill="black"/>
<path d="M125.502 6.9286C125.143 7.01836 124.797 7.13056 124.456 7.24725C123.698 6.47313 122.872 5.76867 121.988 5.14235C115.404 0.488221 106.984 1.07167 103.187 6.44389C99.3903 11.8161 100.18 24.2705 108.259 24.5981C115.44 24.8898 115.888 31.0071 118.339 31.3796C120.852 40.1358 125.789 35.9215 126.498 39.3055C127.396 43.6634 139.778 32.2368 137.983 18.2116C137.431 14.1364 133.446 4.88653 125.502 6.9286Z" fill="black"/>
<path d="M91.5003 11.0846L105.485 4.03829C107.69 2.93978 110.367 3.82305 111.486 6.01753L118.756 20.4467L100.804 29.5036C95.7174 32.0607 89.5207 30.0165 86.9539 24.9347C84.3936 19.854 86.427 13.6595 91.5003 11.0846Z" fill="black"/>
<path d="M122.172 29.4363L122.522 33.2377C122.657 34.7353 121.555 36.0599 120.058 36.1998C119.338 36.2659 118.622 36.0434 118.066 35.5813C117.511 35.1193 117.162 34.4554 117.096 33.7358L116.746 29.9344C116.679 29.2149 116.902 28.4985 117.364 27.943C117.826 27.3875 118.49 27.0383 119.21 26.9723C119.929 26.9062 120.645 27.1287 121.201 27.5907C121.756 28.0528 122.106 28.7167 122.172 29.4363Z" fill="white"/>
<path fill-rule="evenodd" clip-rule="evenodd" d="M116.714 33.7717C116.86 35.3589 118.19 36.5742 119.784 36.5768L120.067 36.5633C121.762 36.4069 123.01 34.9061 122.854 33.2107L122.508 29.4093C122.352 27.7127 120.85 26.4638 119.154 26.62C117.457 26.7762 116.208 28.2782 116.364 29.9748L116.714 33.7717ZM119.223 27.3268H119.443V27.3044C120.664 27.3062 121.683 28.2378 121.795 29.4542L122.14 33.2511C122.22 34.0929 121.845 34.9135 121.157 35.4038C120.468 35.8942 119.569 35.9797 118.8 35.6282C118.031 35.2768 117.508 34.5417 117.428 33.6999L117.082 29.8985C116.965 28.5978 117.923 27.4477 119.223 27.3268Z" fill="black"/>
<path d="M104.749 121.823L25.4897 107.847L3.94702 53.0928L83.2063 67.0956L104.749 121.823Z" fill="white"/>
<path fill-rule="evenodd" clip-rule="evenodd" d="M25.2294 108.166L105.314 122.299L83.5383 66.943L83.4665 66.7545L3.37695 52.635L25.2294 108.166ZM104.179 121.37L25.75 107.538L4.51699 53.573L82.9415 67.4008L104.179 121.37Z" fill="black"/>
<path d="M147.04 105.451C146.539 98.0466 140.271 92.3654 132.853 92.5923L93.8072 95.2403L84.6022 88.5531C83.0875 87.4558 80.9703 87.7933 79.8718 89.3071C78.7736 90.8206 79.109 92.9376 80.6213 94.0375L85.6031 97.628C84.3774 98.4532 83.2937 99.4717 82.3941 100.644L82.1876 100.927L70.6309 100.352C68.7632 100.259 67.1737 101.698 67.0808 103.566C66.9878 105.433 68.4266 107.023 70.2943 107.116L79.607 107.565C79.5741 107.864 79.5516 108.163 79.5397 108.462L69.5851 110.549C67.8087 110.973 66.6878 112.729 67.0509 114.519C67.414 116.309 69.1303 117.489 70.9316 117.187H70.9585L80.913 115.1C81.0611 115.405 81.2227 115.71 81.3977 115.998L73.0275 120.185C71.9077 120.704 71.1588 121.791 71.0728 123.023C70.9867 124.254 71.5771 125.435 72.6138 126.105C73.6505 126.775 74.9696 126.828 76.0569 126.244L86.4917 121.024C88.8426 122.361 91.5353 122.977 94.2336 122.793L134.694 120.055C142.063 119.292 147.513 112.844 147.04 105.451Z" fill="white"/>
<path fill-rule="evenodd" clip-rule="evenodd" d="M70.9159 124.121C71.316 125.814 72.8278 127.009 74.5668 127.007C75.1416 126.996 75.7063 126.855 76.2184 126.594L86.4827 121.46C88.7489 122.71 91.3159 123.311 93.9014 123.196V123.201L134.716 120.436L135.075 120.396C142.508 119.459 147.91 112.874 147.377 105.401C146.902 97.9665 140.725 92.1844 133.275 92.2019H133.168V92.1704L93.8969 94.8319L84.7996 88.2254L84.7637 88.1985C83.6766 87.4184 82.2559 87.2776 81.0368 87.829C79.8176 88.3805 78.9853 89.5404 78.8533 90.8719C78.7213 92.2035 79.3097 93.5042 80.3968 94.2843L84.9702 97.6055C83.8821 98.3982 82.9133 99.3429 82.0933 100.411L81.9946 100.545L70.6353 99.9752C68.6134 99.9392 66.9276 101.514 66.8258 103.534C66.7241 105.553 68.243 107.289 70.2583 107.457L79.1985 107.906V108.188L69.5178 110.221C67.4939 110.647 66.1979 112.632 66.623 114.656C67.0481 116.68 69.0333 117.976 71.0572 117.55L80.7379 115.517C80.7963 115.634 80.8591 115.751 80.9219 115.867L72.8883 119.907C71.3325 120.684 70.5158 122.429 70.9159 124.121ZM81.254 114.974L81.1328 114.723L70.9045 116.868L70.7609 116.9C69.6822 117.132 68.5627 116.759 67.8386 115.926C67.1145 115.094 66.9002 113.933 67.2793 112.897C67.6585 111.861 68.5709 111.113 69.6613 110.944L79.8852 108.844V108.565C79.8986 108.229 79.9166 107.937 79.948 107.668L79.9884 107.286L70.2942 106.806C68.6516 106.688 67.4045 105.279 67.4863 103.634C67.568 101.989 68.9487 100.711 70.5949 100.756L82.3446 101.344L82.5331 101.084C82.5735 101.025 82.6139 100.967 82.6588 100.913C83.5424 99.7719 84.603 98.7795 85.8004 97.9735L86.2223 97.6863L80.8366 93.7682C79.4845 92.7854 79.1851 90.8926 80.1679 89.5405C81.1507 88.1883 83.0435 87.8889 84.3957 88.8717L93.7039 95.6308L132.517 93.0008H132.862C140.096 92.7529 146.217 98.2993 146.681 105.522C147.196 112.742 141.88 119.063 134.68 119.795H134.509L94.5926 122.487V122.465L94.2335 122.492C91.6053 122.673 88.9822 122.073 86.6936 120.768L86.5275 120.674L75.9177 125.979L75.8549 126.011C74.3565 126.705 72.5777 126.072 71.8558 124.586C71.1338 123.101 71.7348 121.311 73.2069 120.562L81.9227 116.204L81.7298 115.872C81.5592 115.567 81.4021 115.271 81.254 114.974Z" fill="black"/>
<path d="M48.1678 82.0857C50.6542 79.8103 54.873 80.3668 57.5928 83.3334C60.3125 86.3 60.4965 90.5547 58.0057 92.8347C55.5148 95.1146 51.2736 94.5536 48.5807 91.587C45.8879 88.6204 45.6769 84.3657 48.1678 82.0857Z" fill="#1DEBCE"/>
<path fill-rule="evenodd" clip-rule="evenodd" d="M53.024 94.4863C53.4329 94.5594 53.8474 94.597 54.2627 94.5985L54.6038 94.594C57.7715 94.4724 60.241 91.8061 60.1197 88.6383C60.1197 84.7921 56.9915 81.1118 53.1497 80.4342C51.3667 80.0667 49.513 80.5199 48.1006 81.6684C46.7613 82.8237 46.0103 84.5184 46.0541 86.2866C46.0541 90.1284 49.1822 93.8086 53.024 94.4863ZM48.3283 82.4293C49.293 81.5101 50.5834 81.012 51.9154 81.0445H51.9199C52.2917 81.0438 52.6627 81.0768 53.0285 81.1432C56.5426 81.7626 59.406 85.1242 59.406 88.6383C59.4466 90.1941 58.7879 91.6863 57.6108 92.7045C56.3588 93.7109 54.7229 94.1059 53.1497 93.7816C49.6355 93.1623 46.7721 89.7962 46.7721 86.2866V85.9455C46.8039 84.6134 47.3637 83.3485 48.3283 82.4293Z" fill="#25282B"/>
<path d="M162.676 60.6417C156.437 56.6256 148.139 58.2634 143.894 64.3489L124.775 93.436L148.333 115.778L167.102 79.2941C170.892 72.8998 168.936 64.6517 162.676 60.6417Z" fill="black"/>
<path fill-rule="evenodd" clip-rule="evenodd" d="M124.066 93.5079L148.467 116.653L167.564 79.5096L167.631 79.3749C171.421 72.8093 169.443 64.4284 163.118 60.2496C156.793 56.0707 148.308 57.5386 143.755 63.5994H143.723L124.066 93.5079ZM148.167 114.889L125.457 93.3463L144.064 65.0535L144.334 64.6675C148.383 58.7276 156.429 57.0973 162.471 60.9924C168.514 64.8876 170.351 72.8887 166.613 79.0294L166.357 79.4782H166.384L148.167 114.889Z" fill="black"/>
</g>
</svg>
