<svg width="743" height="676" viewBox="0 0 743 676" fill="none" xmlns="http://www.w3.org/2000/svg">
<mask id="mask0" mask-type="alpha" maskUnits="userSpaceOnUse" x="0" y="0" width="910" height="910">
<path d="M455 910C706.29 910 910 706.29 910 455C910 203.71 706.29 0 455 0C203.71 0 0 203.71 0 455C0 706.29 203.71 910 455 910Z" fill="white"/>
</mask>
<g mask="url(#mask0)">
<rect width="744" height="676" fill="white"/>
<path d="M82 567.437H861.293V568.352H82V567.437Z" fill="black"/>
<path d="M606.971 117.347C643.486 117.347 673.088 146.949 673.088 183.464C673.088 219.98 643.486 249.582 606.971 249.582C570.455 249.582 540.853 219.98 540.853 183.464C540.853 146.949 570.455 117.347 606.971 117.347Z" fill="#0057E0"/>
<path d="M648.283 180.906C649.903 171.459 644.801 162.141 635.969 158.416C627.137 154.691 616.903 157.542 611.269 165.297C608.15 154.77 597.327 148.536 586.657 151.12C575.987 153.704 569.216 164.2 571.259 174.986C572.449 196.889 602.523 216.373 602.523 216.373C602.523 216.373 637.387 208.008 645.796 187.747C647.024 185.632 647.866 183.316 648.283 180.906Z" fill="#1DEBCE"/>
<path d="M645.007 186.326C650.178 177.055 647.162 165.357 638.153 159.742C629.144 154.127 617.314 156.571 611.268 165.297C611.097 164.725 610.9 164.163 610.681 163.611C610.615 163.698 610.547 163.785 610.481 163.874C606.712 153.956 595.986 148.564 585.777 151.456C575.568 154.348 569.264 164.565 571.257 174.986C571.504 179.582 573.029 184.069 575.277 188.293C584.065 203.502 601.734 214.949 601.734 214.949C601.734 214.949 636.601 206.586 645.007 186.326Z" fill="#1DEBCE"/>
<path fill-rule="evenodd" clip-rule="evenodd" d="M601.511 215.298L601.66 215.394L601.833 215.353C602.184 215.269 636.971 206.713 645.382 186.51C650.875 177.163 648.046 165.149 638.959 159.236C629.872 153.323 617.742 155.602 611.421 164.41C611.312 164.094 611.194 163.777 611.068 163.458L610.795 162.772L610.634 162.984C610.319 162.064 609.941 161.167 609.503 160.298C604.249 151.595 593.519 147.9 584.02 151.521C574.52 155.143 568.974 165.043 570.846 175.035C571.083 179.335 572.451 183.862 574.921 188.501C583.657 203.622 601.333 215.182 601.511 215.298ZM575.961 158.273C579.799 153.644 585.501 150.968 591.514 150.973L591.511 150.969C598.57 150.968 605.116 154.656 608.773 160.693C609.303 161.751 609.741 162.853 610.081 163.987L610.318 164.785L610.557 164.462C610.672 164.782 610.776 165.098 610.868 165.41L611.108 166.213L611.602 165.538C616.779 158.106 626.376 155.192 634.811 158.489C643.247 161.787 648.322 170.437 647.086 179.409C646.677 181.771 645.851 184.041 644.649 186.115L644.625 186.163C636.698 205.264 604.484 213.819 601.813 214.498C600.081 213.343 583.85 202.29 575.648 188.094C573.237 183.566 571.901 179.146 571.675 174.961L571.668 174.909C570.549 169.001 572.123 162.902 575.961 158.273Z" fill="#1DEBCE"/>
<path d="M633.225 193.471L632.125 174.263C632.095 173.725 631.69 173.283 631.157 173.206C630.627 173.102 630.094 173.371 629.865 173.861L619.14 197.296L617.888 181.226C617.837 180.686 617.426 180.25 616.89 180.168C616.474 180.089 616.049 180.248 615.787 180.581L608.93 189.309L599.908 187.764L595.793 160.866C595.727 160.351 595.332 159.94 594.821 159.852C594.308 159.765 593.797 160.016 593.553 160.475L580.226 184.395L561.969 181.268L561.568 183.61L580.653 186.878C581.167 186.962 581.677 186.704 581.914 186.239L593.964 164.61L597.686 188.932C597.751 189.452 598.147 189.87 598.663 189.962L609.227 191.77C609.648 191.844 610.076 191.685 610.346 191.354L615.756 184.463L617.128 202.069C617.17 202.603 617.576 203.038 618.106 203.117C618.633 203.22 619.163 202.949 619.388 202.461L630.03 179.208L630.913 194.581C630.959 195.12 631.363 195.56 631.895 195.653L651.97 199.088L652.372 196.75L633.225 193.471Z" fill="white"/>
<path d="M364.733 278.838C401.249 278.838 430.851 249.236 430.851 212.72C430.851 176.204 401.249 146.602 364.733 146.602C328.217 146.602 298.615 176.204 298.615 212.72C298.615 249.236 328.217 278.838 364.733 278.838Z" fill="#1DEBCE"/>
<path fill-rule="evenodd" clip-rule="evenodd" d="M298.199 212.72C298.199 249.465 327.987 279.253 364.732 279.253C401.46 279.212 431.224 249.448 431.266 212.72C431.266 175.975 401.478 146.187 364.732 146.187C327.987 146.187 298.199 175.975 298.199 212.72ZM299.03 212.72C299.03 176.434 328.445 147.018 364.732 147.018C401.001 147.059 430.393 176.451 430.434 212.72C430.434 249.006 401.018 278.422 364.732 278.422C328.445 278.422 299.03 249.006 299.03 212.72Z" fill="#1DEBCE"/>
<path d="M327.373 253.436L333.678 170.488L392.554 174.964L386.248 257.911L327.373 253.436Z" fill="#0057E0"/>
<path d="M331.317 249.883L336.938 175.911L388.51 179.83L382.889 253.801L331.317 249.883Z" fill="white"/>
<path d="M384.744 191.684C384.495 194.965 382.295 197.772 379.169 198.797C376.044 199.823 372.608 198.864 370.465 196.369C368.321 193.873 367.893 190.332 369.378 187.397C370.864 184.462 373.971 182.711 377.251 182.961C381.729 183.301 385.084 187.206 384.744 191.684Z" fill="#1DEBCE"/>
<path fill-rule="evenodd" clip-rule="evenodd" d="M375.985 199.594C376.206 199.61 376.426 199.619 376.646 199.619C381.111 199.612 384.818 196.17 385.157 191.718C385.514 187.011 381.988 182.906 377.282 182.548C372.575 182.191 368.469 185.716 368.111 190.423C367.753 195.129 371.278 199.235 375.985 199.594ZM368.921 190.883C369.024 186.699 372.444 183.361 376.629 183.358V183.355C376.824 183.355 377.021 183.362 377.219 183.38C381.465 183.708 384.646 187.411 384.328 191.658C384.011 195.831 380.426 198.99 376.247 198.78C372.067 198.57 368.817 195.066 368.921 190.883Z" fill="#1DEBCE"/>
<path d="M380.885 189.902L378.231 189.701L378.432 187.045L375.466 186.819L375.264 189.475L372.609 189.274L372.384 192.239L375.038 192.44L374.837 195.096L377.804 195.322L378.004 192.666L380.661 192.868L380.885 189.902Z" fill="white"/>
<path d="M340.162 184.369L340.366 181.689L355.2 182.817L354.996 185.497L340.162 184.369Z" fill="#0057E0" fill-opacity="0.41"/>
<path d="M339.81 189.005L340.014 186.325L362.186 188.015L361.981 190.695L339.81 189.005Z" fill="#0057E0"/>
<path d="M339.457 193.641L339.661 190.96L361.836 192.646L361.632 195.327L339.457 193.641Z" fill="#0057E0"/>
<path d="M339.104 198.276L339.308 195.597L361.484 197.283L361.28 199.962L339.104 198.276Z" fill="#0057E0"/>
<path d="M338.672 205.003L338.875 202.325L382.607 205.649L382.403 208.328L338.672 205.003Z" fill="#0057E0" fill-opacity="0.41"/>
<path d="M338.319 209.64L338.523 206.961L382.255 210.285L382.051 212.964L338.319 209.64Z" fill="#0057E0"/>
<path d="M337.968 214.276L338.172 211.596L381.898 214.929L381.694 217.609L337.968 214.276Z" fill="#0057E0"/>
<path d="M337.615 218.912L337.819 216.231L381.549 219.556L381.346 222.237L337.615 218.912Z" fill="#0057E0"/>
<path d="M337.262 223.548L337.466 220.868L381.198 224.191L380.994 226.871L337.262 223.548Z" fill="#0057E0"/>
<path d="M336.663 231.43L336.867 228.748L380.599 232.072L380.395 234.753L336.663 231.43Z" fill="#0057E0" fill-opacity="0.41"/>
<path d="M336.31 236.065L336.514 233.386L380.246 236.71L380.042 239.389L336.31 236.065Z" fill="#0057E0"/>
<path d="M335.957 240.698L336.161 238.019L379.888 241.353L379.684 244.031L335.957 240.698Z" fill="#0057E0"/>
<path d="M335.605 245.335L335.81 242.657L379.536 245.99L379.331 248.668L335.605 245.335Z" fill="#0057E0"/>
<path fill-rule="evenodd" clip-rule="evenodd" d="M371.538 175.279L372.941 175.383L372.937 175.385C374.537 175.506 375.736 176.902 375.614 178.502C375.493 180.102 374.097 181.301 372.497 181.18L352.794 179.682C351.759 179.604 350.845 178.979 350.395 178.043C349.946 177.107 350.03 176.002 350.616 175.145C351.202 174.288 352.2 173.809 353.235 173.888L354.638 173.991C354.315 173.066 354.481 172.04 355.079 171.263C355.677 170.486 356.626 170.063 357.603 170.138L358.587 170.213L358.905 166.04L368.756 166.789L368.439 170.961L369.191 171.019C370.169 171.093 371.043 171.656 371.516 172.515C371.99 173.374 371.998 174.413 371.538 175.279ZM362.168 169.396C362.107 170.185 362.698 170.874 363.487 170.935H363.485C363.865 170.965 364.241 170.842 364.53 170.594C364.819 170.346 364.998 169.993 365.026 169.613C365.086 168.824 364.495 168.136 363.705 168.076C362.916 168.016 362.228 168.607 362.168 169.396Z" fill="white"/>
<path fill-rule="evenodd" clip-rule="evenodd" d="M372.468 181.593C372.554 181.599 372.639 181.602 372.725 181.602H372.729C374.514 181.6 375.979 180.188 376.045 178.404C376.111 176.62 374.755 175.102 372.975 174.969L372.143 174.906C372.219 174.667 372.266 174.419 372.284 174.169C372.352 173.29 372.068 172.421 371.494 171.752C370.92 171.083 370.104 170.67 369.225 170.604L368.887 170.578L369.204 166.406L358.524 165.594L358.206 169.766L357.635 169.722C356.625 169.647 355.637 170.035 354.948 170.776C354.26 171.518 353.947 172.533 354.098 173.534L353.269 173.471C352.077 173.365 350.921 173.909 350.241 174.894C349.562 175.879 349.464 177.153 349.987 178.23C350.509 179.307 351.57 180.019 352.764 180.095L372.468 181.593ZM350.533 176.594C350.632 175.297 351.711 174.295 353.012 174.293C353.076 174.293 353.141 174.295 353.207 174.298L355.238 174.451L355.031 173.854C354.753 173.06 354.895 172.18 355.407 171.514C355.92 170.848 356.734 170.485 357.572 170.55L358.97 170.657L359.288 166.484L368.31 167.17L367.993 171.342L369.16 171.431C369.998 171.494 370.747 171.976 371.153 172.712C371.558 173.448 371.565 174.339 371.171 175.081L370.875 175.642L372.908 175.798C373.801 175.857 374.594 176.391 374.984 177.197C375.375 178.003 375.302 178.956 374.795 179.694C374.287 180.432 373.423 180.84 372.53 180.763L352.828 179.266C351.457 179.16 350.43 177.965 350.533 176.594ZM363.597 171.354C363.55 171.354 363.502 171.354 363.455 171.349C362.449 171.273 361.688 170.406 361.744 169.399C361.8 168.391 362.653 167.614 363.661 167.651C364.669 167.688 365.463 168.525 365.445 169.534C365.428 170.543 364.606 171.352 363.597 171.354ZM362.58 169.467C362.601 168.921 363.048 168.489 363.594 168.488C363.62 168.488 363.646 168.488 363.673 168.49C364.234 168.533 364.653 169.022 364.61 169.583C364.567 170.143 364.078 170.563 363.517 170.52C362.973 170.477 362.559 170.012 362.58 169.467Z" fill="black"/>
<path d="M704.793 336.654C741.309 336.654 770.911 366.256 770.911 402.772C770.911 439.287 741.309 468.889 704.793 468.889C668.277 468.889 638.676 439.287 638.676 402.772C638.676 366.256 668.277 336.654 704.793 336.654Z" fill="#1DEBCE"/>
<path fill-rule="evenodd" clip-rule="evenodd" d="M638.261 402.773C638.262 439.517 668.049 469.305 704.794 469.305C741.523 469.264 771.287 439.499 771.327 402.77C771.326 366.025 741.538 336.238 704.793 336.239C668.048 336.24 638.261 366.028 638.261 402.773ZM644.092 377.629C654.261 353.078 678.219 337.07 704.793 337.07C741.062 337.11 770.453 366.501 770.495 402.77C770.496 429.344 754.489 453.302 729.938 463.472C705.387 473.642 677.127 468.021 658.335 449.231C639.544 430.44 633.923 402.181 644.092 377.629Z" fill="#1DEBCE"/>
<path d="M704.699 386.522L676.558 381.431C669.201 380.076 661.681 382.758 656.841 388.462C652.002 394.166 650.581 402.022 653.115 409.06C655.65 416.098 661.754 421.244 669.119 422.552L697.252 427.644L704.699 386.522Z" fill="white"/>
<path fill-rule="evenodd" clip-rule="evenodd" d="M669.045 422.963L697.587 428.128L705.18 386.187L676.63 381.024C669.117 379.621 661.429 382.348 656.48 388.172C651.531 393.995 650.079 402.023 652.675 409.211C655.271 416.399 661.517 421.646 669.045 422.963ZM652.44 400.184C653.374 389.633 662.199 381.535 672.791 381.509C674.03 381.509 675.265 381.621 676.484 381.842L704.216 386.858L696.917 427.162L669.193 422.146C658.77 420.258 651.506 410.735 652.44 400.184Z" fill="#0057E0"/>
<path d="M697.252 427.645L725.389 432.737C736.745 434.792 747.617 427.252 749.672 415.896C751.727 404.54 744.188 393.669 732.832 391.613L704.699 386.522L697.252 427.645Z" fill="#0057E0"/>
<path d="M219.299 280.173C255.815 280.173 285.417 309.775 285.417 346.291C285.417 382.807 255.815 412.408 219.299 412.408C182.783 412.408 153.181 382.807 153.181 346.291C153.181 309.775 182.783 280.173 219.299 280.173Z" fill="#0057E0"/>
<path d="M188.235 364.953L217.331 301.038L226.002 304.986L196.906 368.9L188.235 364.953Z" fill="white"/>
<path fill-rule="evenodd" clip-rule="evenodd" d="M187.685 365.157L197.112 369.451L226.553 304.781L217.127 300.487L187.685 365.157ZM196.7 368.35L188.785 364.745L217.539 301.588L225.452 305.193L196.7 368.35Z" fill="#1DEBCE"/>
<path d="M223.38 308.161C225.985 309.356 227.135 312.43 225.954 315.041L205.853 359.178C204.657 361.783 201.581 362.933 198.969 361.752L192.27 358.701C189.665 357.505 188.514 354.43 189.696 351.818L209.797 307.682C210.993 305.077 214.068 303.926 216.68 305.107L223.38 308.161Z" fill="#1DEBCE"/>
<path fill-rule="evenodd" clip-rule="evenodd" d="M198.797 362.13C199.525 362.463 200.316 362.635 201.116 362.635C203.319 362.637 205.32 361.351 206.234 359.347L226.334 315.21C227.61 312.391 226.368 309.071 223.555 307.781L216.853 304.727C214.032 303.447 210.707 304.691 209.419 307.509L189.318 351.645C188.041 354.466 189.284 357.787 192.098 359.078L198.797 362.13ZM210.177 307.854C210.956 306.148 212.66 305.054 214.536 305.055C215.216 305.056 215.889 305.202 216.508 305.484L223.21 308.539C225.606 309.639 226.663 312.467 225.577 314.869L205.477 359.005C204.379 361.406 201.546 362.465 199.142 361.374L192.444 358.322C190.047 357.222 188.989 354.393 190.075 351.99L210.177 307.854Z" fill="#1DEBCE"/>
<path d="M215.42 339.861C216.401 340.079 217.365 340.368 218.304 340.725C221.09 341.721 221.92 342.203 224.954 344.267C232.951 349.708 237.466 358.849 239.56 368.188C241.394 376.357 254.104 373.665 252.267 365.486C248.624 349.237 237.169 331.077 219.503 327.525C216.032 326.827 212.509 327.993 211.295 331.652C210.283 334.702 211.948 339.162 215.422 339.86L215.42 339.861Z" fill="#1DEBCE"/>
<path fill-rule="evenodd" clip-rule="evenodd" d="M239.153 368.279C239.763 371.418 242.561 373.649 245.756 373.544C246.332 373.544 246.906 373.48 247.468 373.354C250.674 372.634 253.669 369.837 252.672 365.396C248.976 348.912 237.311 330.683 219.585 327.119C215.472 326.291 212.062 328.02 210.9 331.522C210.309 333.513 210.573 335.661 211.627 337.451C212.398 338.883 213.751 339.911 215.338 340.268C216.299 340.484 217.244 340.767 218.165 341.117C220.915 342.099 221.738 342.584 224.719 344.61C233.62 350.667 237.481 360.825 239.153 368.279ZM211.688 331.784C212.679 328.797 215.157 327.749 217.606 327.749V327.75C218.214 327.752 218.82 327.814 219.416 327.936C236.778 331.427 248.22 349.359 251.857 365.581C252.731 369.464 250.099 371.913 247.285 372.545C244.385 373.196 240.858 372.083 239.963 368.1C238.258 360.498 234.312 350.136 225.186 343.925C222.133 341.847 221.285 341.352 218.444 340.337C217.486 339.972 216.502 339.677 215.502 339.453C214.149 339.141 212.998 338.259 212.346 337.034C211.419 335.447 211.181 333.55 211.688 331.784Z" fill="#1DEBCE"/>
<path d="M258.69 370.721C259.529 374.659 256.848 378.596 252.733 379.469L188.91 393.032C184.796 393.906 180.746 391.4 179.909 387.462C179.072 383.523 181.752 379.587 185.866 378.712L249.691 365.152C253.804 364.276 257.854 366.783 258.69 370.721Z" fill="white"/>
<path fill-rule="evenodd" clip-rule="evenodd" d="M182.962 392.405C184.25 393.203 185.736 393.625 187.251 393.623C187.838 393.624 188.423 393.563 188.997 393.442L252.82 379.879C254.893 379.448 256.718 378.23 257.912 376.481C259.099 374.781 259.528 372.665 259.097 370.636C258.666 368.608 257.414 366.849 255.638 365.779C253.836 364.666 251.673 364.295 249.604 364.744L185.779 378.304C183.706 378.735 181.881 379.954 180.687 381.703C179.5 383.403 179.071 385.519 179.502 387.547C179.933 389.576 181.186 391.335 182.962 392.405ZM249.778 365.557C250.294 365.446 250.821 365.391 251.349 365.391C252.71 365.389 254.045 365.768 255.202 366.485C256.781 367.44 257.897 369.004 258.285 370.808C258.664 372.614 258.281 374.496 257.227 376.011C256.153 377.583 254.512 378.677 252.647 379.064L188.824 392.623C186.965 393.028 185.02 392.696 183.401 391.696C181.818 390.745 180.701 389.179 180.317 387.373C179.933 385.567 180.316 383.682 181.375 382.169C182.448 380.598 184.089 379.503 185.953 379.117L249.778 365.557Z" fill="#1DEBCE"/>
<path d="M185.996 375.292L206.467 370.941L207.157 374.187L186.685 378.538L185.996 375.292Z" fill="black"/>
<path d="M232.299 330.357C233.645 336.688 231.044 343.206 225.71 346.872C220.376 350.537 213.359 350.629 207.931 347.103C202.503 343.578 199.734 337.13 200.914 330.766C202.095 324.402 206.992 319.376 213.323 318.032C221.967 316.196 230.462 321.714 232.299 330.357Z" fill="white"/>
<path fill-rule="evenodd" clip-rule="evenodd" d="M200.268 334.812C200.858 343.409 207.996 350.087 216.614 350.104C221.57 350.105 226.263 347.87 229.385 344.021C232.507 340.172 233.727 335.12 232.704 330.271C230.911 321.841 222.905 316.233 214.37 317.428C205.836 318.623 199.677 326.214 200.268 334.812ZM201.955 328.476C204.161 322.252 210.048 318.094 216.65 318.096H216.652C224.01 318.097 230.365 323.246 231.892 330.444C233.263 336.902 230.417 343.524 224.787 346.972C219.157 350.421 211.965 349.948 206.835 345.792C201.705 341.636 199.75 334.699 201.955 328.476Z" fill="#1DEBCE"/>
<path d="M223.034 332.325C223.583 334.908 222.523 337.567 220.347 339.063C218.172 340.558 215.309 340.596 213.095 339.158C210.88 337.72 209.75 335.09 210.231 332.494C210.713 329.898 212.71 327.848 215.293 327.299C218.818 326.551 222.283 328.8 223.034 332.325Z" fill="black"/>
<path d="M216.833 302.553C219.722 303.869 222.612 305.185 225.503 306.501C227.373 307.354 228.351 304.319 226.502 303.477C223.614 302.161 220.725 300.845 217.835 299.529C215.964 298.675 214.986 301.711 216.833 302.553V302.553Z" fill="black"/>
<path d="M398.501 456.54C393.706 470.329 394.609 495.804 403.597 506.894C412.586 517.984 425.476 533.865 423.38 552.749C421.416 570.418 436.771 580.43 445.505 581.646L445.648 581.667C446.165 581.733 446.685 581.768 447.206 581.771C447.206 581.771 472.531 548.551 453.35 521.279C434.169 494.008 437.465 493.406 436.868 476.022C436.271 458.637 432.67 440.655 418.284 434.962C403.991 429.302 412.186 416.838 392.295 415.209C392.265 415.209 392.236 415.205 392.203 415.205L391.911 415.179C391.911 415.179 403.295 442.752 398.501 456.54Z" fill="white"/>
<path fill-rule="evenodd" clip-rule="evenodd" d="M447.202 582.187H447.409L447.534 582.023C451.938 575.849 455.417 569.064 457.862 561.885C461.48 551.106 463.696 535.271 453.687 521.041C437.4 497.881 437.394 494.063 437.374 482.737V482.737C437.371 480.783 437.367 478.57 437.279 476.008C436.478 452.83 430.313 439.277 418.433 434.576C412.351 432.167 410.44 428.503 408.591 424.958L408.591 424.958C406.117 420.214 403.78 415.733 392.293 414.794L392.286 415.023L392.262 415.033L392.236 414.791L391.262 414.707L391.522 415.338C391.635 415.613 402.793 442.921 398.104 456.404C395.693 463.339 394.704 473.192 395.462 482.762C396.296 493.31 399.069 501.973 403.27 507.156L403.274 507.16C412.459 518.485 425.038 533.994 422.96 552.704C422.013 560.417 424.654 568.138 430.126 573.656C435.274 579.001 441.594 581.522 445.438 582.057L445.591 582.079C446.125 582.148 446.663 582.184 447.202 582.187ZM398.893 456.677L398.501 456.541L398.893 456.679C394.07 470.548 395.237 495.922 403.92 506.633L403.92 506.633C413.199 518.072 425.908 533.739 423.792 552.796C422.875 560.263 425.432 567.738 430.73 573.08C435.731 578.271 441.848 580.717 445.562 581.236L445.708 581.258C446.166 581.314 446.601 581.347 446.997 581.355C451.287 575.287 454.684 568.634 457.083 561.601C460.635 551.01 462.812 535.46 453.009 521.521C436.572 498.147 436.565 494.265 436.546 482.74C436.543 480.793 436.539 478.587 436.451 476.039C435.662 453.227 429.669 439.917 418.13 435.351C411.76 432.828 409.776 429.024 407.857 425.345C405.513 420.85 403.296 416.601 392.547 415.65C394.25 419.934 403.341 443.891 398.893 456.679L398.893 456.679C398.893 456.679 398.893 456.678 398.893 456.677Z" fill="#0057E0"/>
<path d="M309.789 520.377C309.789 520.377 309.989 520.561 310.357 520.913C310.42 520.971 310.49 521.038 310.564 521.108C313.739 524.137 325.798 536.004 330.462 545.853C335.859 557.244 346.348 570.431 365.829 570.431C385.31 570.431 406.292 579.123 406.593 591.111C406.835 600.844 432.949 608.337 443.175 594.812C443.212 594.76 443.25 594.708 443.287 594.656C445.593 591.536 447.063 587.312 447.202 581.772C447.202 581.772 429.07 552.45 411.985 553.046C394.9 553.643 388.611 550.95 380.215 545.257C371.818 539.564 363.732 536.564 353.841 535.666C343.949 534.768 337.06 522.776 325.968 522.179C314.876 521.582 309.789 520.377 309.789 520.377Z" fill="white"/>
<path fill-rule="evenodd" clip-rule="evenodd" d="M417.097 601.107C420.118 602.076 423.272 602.572 426.445 602.577C428.043 602.581 429.638 602.446 431.213 602.172C436.439 601.25 440.69 598.792 443.51 595.063L443.624 594.907C446.143 591.5 447.487 587.084 447.619 581.784L447.622 581.661L447.557 581.557C444.222 576.368 440.459 571.468 436.308 566.906C427.372 557.183 419.18 552.381 411.972 552.634C395.487 553.214 389.178 550.833 380.45 544.914C371.92 539.127 363.726 536.148 353.881 535.254C349.261 534.835 345.324 531.944 341.156 528.883C336.604 525.54 331.897 522.083 325.993 521.765C315.097 521.175 309.952 519.991 309.884 519.975L309.884 519.975L308.337 519.611L309.504 520.684C309.506 520.686 309.705 520.868 310.069 521.216L310.277 521.41C313.763 524.735 325.497 536.341 330.087 546.031C335.452 557.352 346.007 570.846 365.831 570.846C375.488 570.846 385.473 572.962 393.227 576.651C401.444 580.559 406.043 585.698 406.179 591.122C406.278 595.086 410.563 599.005 417.097 601.107ZM330.84 545.678C326.3 536.093 314.925 524.719 311.116 521.063L311.117 521.06C316.026 521.862 320.978 522.375 325.948 522.594C331.605 522.902 336.21 526.281 340.664 529.552L340.664 529.552C344.928 532.683 348.955 535.641 353.806 536.081C363.503 536.961 371.577 539.898 379.984 545.602C388.87 551.628 395.284 554.053 412.002 553.463C428.165 552.898 445.576 579.976 446.785 581.888C446.64 586.955 445.352 591.169 442.957 594.408L442.846 594.564C438.621 600.152 429.1 604.097 417.351 600.318C411.159 598.325 407.1 594.71 407.01 591.104C406.699 578.678 385.058 570.018 365.831 570.018C346.442 570.018 336.101 556.782 330.84 545.678Z" fill="#0057E0"/>
<path d="M392.201 415.206C394.126 417.289 396.002 419.414 397.827 421.579C400.438 424.65 402.886 427.853 405.425 430.99C407.957 434.127 410.521 437.243 412.781 440.568C413.918 442.218 414.945 443.941 415.855 445.727C416.753 447.513 417.478 449.382 418.019 451.307C419.13 455.153 419.539 459.167 419.226 463.158C418.955 467.151 418.019 471.081 417.53 475.112C416.951 479.166 417.174 483.294 418.186 487.263C418.71 489.235 419.41 491.156 420.279 493.002C420.717 493.917 421.106 494.857 421.611 495.742C422.096 496.632 422.551 497.543 423.102 498.399C425.253 501.833 427.639 505.114 430.245 508.218C432.751 511.363 435.228 514.542 436.991 518.134L437.643 519.479C437.872 519.926 438.026 520.402 438.219 520.862L438.775 522.252L439.23 523.677C439.372 524.157 439.541 524.625 439.668 525.11L440.019 526.568C440.132 527.056 440.257 527.541 440.366 528.03L440.633 529.504C440.965 531.473 441.128 533.467 441.122 535.465C441.118 537.461 440.921 539.458 440.725 541.467C439.848 549.52 440.107 557.657 441.494 565.639C442.4 571.073 443.74 576.426 445.504 581.645L445.646 581.666C443.963 576.413 442.709 571.032 441.895 565.576C440.594 557.625 440.414 549.531 441.36 541.529C441.577 539.529 441.795 537.507 441.815 535.469C441.836 533.432 441.678 531.397 441.343 529.387L441.076 527.887C440.968 527.39 440.846 526.897 440.73 526.4L440.378 524.918C440.253 524.425 440.082 523.944 439.936 523.456L439.476 522.001L438.916 520.581C438.72 520.109 438.562 519.624 438.331 519.169L437.667 517.791C435.88 514.119 433.369 510.878 430.867 507.72C428.295 504.635 425.94 501.376 423.816 497.966C423.273 497.127 422.822 496.233 422.342 495.356C421.841 494.487 421.459 493.56 421.022 492.662C420.168 490.859 419.477 488.982 418.959 487.056C417.959 483.187 417.731 479.159 418.286 475.202C418.75 471.225 419.681 467.27 419.944 463.205C420.092 461.172 420.061 459.13 419.853 457.102C419.631 455.075 419.223 453.073 418.633 451.121C418.062 449.167 417.307 447.272 416.377 445.461C415.438 443.663 414.381 441.927 413.215 440.266C410.901 436.941 408.312 433.837 405.742 430.73C403.153 427.643 400.651 424.472 397.982 421.444C396.132 419.322 394.235 417.244 392.293 415.21C392.263 415.21 392.234 415.206 392.201 415.206Z" fill="#0057E0"/>
<path d="M293.005 407.991C293.494 408.367 324.784 432.452 326.572 456.24C328.368 480.216 335.559 496.101 350.247 508.39C364.935 520.679 370.927 552.75 401.499 560.54C432.071 568.33 447.204 581.771 447.204 581.771C447.204 581.771 447.287 581.308 447.379 580.456C447.387 580.36 447.4 580.264 447.413 580.159C448.031 573.856 448.553 550.461 424.878 534.768C397.301 516.485 378.421 506.894 374.224 482.317C370.027 457.74 362.534 443.053 348.151 435.559C333.767 428.066 334.663 422.373 323.573 416.68C313.987 411.759 298.135 408.852 294.009 408.15C293.858 408.125 293.72 408.104 293.603 408.087C293.247 408.025 293.043 407.991 293.005 407.991Z" fill="#1DEBCE"/>
<path d="M293.603 408.087C311.037 415.473 326.718 426.847 339.483 440.731C343.066 444.797 346.261 449.189 349.027 453.851C351.822 458.488 353.932 463.505 355.292 468.746C355.998 471.361 356.621 474.009 357.302 476.649C357.991 479.285 358.738 481.908 359.595 484.502C360.004 485.801 360.493 487.079 360.936 488.37C361.403 489.648 361.913 490.915 362.402 492.188C363.441 494.706 364.516 497.217 365.623 499.697C366.739 502.179 367.845 504.668 369.015 507.127C369.587 508.363 370.205 509.578 370.799 510.802C371.434 512.013 372.031 513.237 372.703 514.428C373.999 516.834 375.424 519.168 376.972 521.42C378.511 523.686 380.222 525.831 382.089 527.836L382.791 528.584C383.021 528.839 383.263 529.085 383.514 529.315L384.996 530.739C385.502 531.199 386.032 531.633 386.55 532.084C386.81 532.306 387.064 532.531 387.33 532.748L388.144 533.372C390.308 535.057 392.612 536.554 395.032 537.845C397.466 539.116 400.023 540.135 402.664 540.886C405.291 541.65 407.977 542.173 410.625 542.749C413.276 543.28 415.879 544.03 418.407 544.992C420.918 545.989 423.319 547.244 425.57 548.739C430.077 551.757 434.021 555.54 437.224 559.917C440.419 564.311 443.059 569.082 445.085 574.123C445.929 576.203 446.693 578.314 447.378 580.455C447.387 580.359 447.399 580.263 447.412 580.158C446.773 578.099 446.061 576.054 445.273 574.047C443.301 568.958 440.708 564.132 437.554 559.679C434.353 555.232 430.396 551.381 425.865 548.301C423.592 546.771 421.166 545.482 418.626 544.454C416.076 543.459 413.446 542.68 410.765 542.127C408.108 541.526 405.448 540.991 402.858 540.218C400.268 539.466 397.759 538.459 395.368 537.211C392.991 535.931 390.727 534.452 388.601 532.787L387.8 532.173C387.536 531.96 387.286 531.735 387.031 531.513C386.521 531.071 385.999 530.645 385.502 530.185L384.045 528.782C383.798 528.553 383.564 528.31 383.339 528.06L382.645 527.32C380.808 525.339 379.125 523.22 377.612 520.982C376.085 518.747 374.68 516.431 373.404 514.044C372.74 512.866 372.142 511.647 371.52 510.443C370.927 509.22 370.317 508.012 369.753 506.776C368.592 504.324 367.494 501.84 366.387 499.358C365.272 496.872 364.197 494.38 363.162 491.881C362.673 490.615 362.164 489.358 361.692 488.089C361.249 486.806 360.76 485.543 360.355 484.25C359.499 481.677 358.751 479.075 358.058 476.452C357.373 473.824 356.742 471.18 356.028 468.544C354.638 463.243 352.49 458.169 349.649 453.482C348.254 451.13 346.734 448.858 345.126 446.653C343.509 444.456 341.776 442.34 339.963 440.304C336.313 436.247 332.359 432.475 328.134 429.022C326.045 427.28 323.915 425.584 321.743 423.934C320.649 423.124 319.568 422.297 318.44 421.528L316.769 420.359L315.06 419.235C308.408 414.885 301.359 411.173 294.008 408.149C293.857 408.125 293.719 408.105 293.603 408.087Z" fill="white"/>
<path d="M303.28 520.349C305.725 520.414 308.16 520.668 310.565 521.109C310.49 521.038 310.419 520.971 310.357 520.913C308.017 520.539 305.65 520.351 303.28 520.349Z" fill="white"/>
<path d="M443.177 594.812C444.681 597.218 446.067 599.703 447.385 602.218C446.116 599.649 444.771 597.114 443.288 594.658C443.253 594.708 443.215 594.762 443.177 594.812Z" fill="white"/>
<path d="M310.357 520.91C310.42 520.968 310.491 521.035 310.565 521.106C311.708 521.323 312.84 521.591 313.961 521.908C317.433 522.874 320.704 524.455 323.618 526.574C323.974 526.854 324.353 527.094 324.687 527.393L325.711 528.261L326.668 529.201C326.989 529.513 327.265 529.865 327.566 530.196C328.71 531.575 329.726 533.056 330.602 534.619C331.475 536.216 332.449 537.757 333.518 539.23C334.633 540.695 335.97 541.976 337.482 543.027C338.995 544.069 340.626 544.928 342.341 545.588C344.063 546.212 345.845 546.656 347.659 546.912C349.455 547.196 351.244 547.4 353.001 547.739C354.757 548.071 356.486 548.538 358.172 549.134L359.429 549.597L360.662 550.128C361.485 550.475 362.286 550.897 363.097 551.271C364.692 552.09 366.28 552.933 367.792 553.898C369.312 554.85 370.778 555.882 372.215 556.969C373.651 558.055 375.06 559.182 376.522 560.26C377.984 561.337 379.5 562.352 381.066 563.288C382.631 564.218 384.246 565.061 385.903 565.815C389.202 567.377 392.688 568.51 396.275 569.186C399.871 569.838 403.517 569.934 407.093 570.231C408.881 570.369 410.661 570.608 412.423 570.945L413.735 571.237C413.952 571.289 414.173 571.333 414.386 571.388L415.033 571.576L416.324 571.947C416.755 572.068 417.168 572.244 417.59 572.386C420.975 573.591 424.186 575.24 427.138 577.289C430.08 579.362 432.794 581.741 435.234 584.386C437.685 587.031 439.923 589.867 441.925 592.866C442.351 593.509 442.769 594.156 443.178 594.808C443.216 594.756 443.254 594.704 443.291 594.652C442.911 594.008 442.512 593.373 442.109 592.743C440.149 589.696 437.95 586.809 435.534 584.109C433.102 581.412 430.388 578.983 427.44 576.863C424.467 574.753 421.229 573.047 417.808 571.789C417.382 571.638 416.96 571.458 416.525 571.329L415.214 570.936L414.558 570.74C414.341 570.677 414.115 570.632 413.894 570.577L412.561 570.265C410.776 569.911 408.972 569.66 407.158 569.514C403.541 569.202 399.941 569.098 396.415 568.44C392.895 567.764 389.476 566.641 386.24 565.099C384.612 564.347 383.025 563.509 381.486 562.588C379.95 561.665 378.466 560.662 377.018 559.593C375.57 558.524 374.157 557.404 372.706 556.314C371.255 555.223 369.757 554.184 368.212 553.223C366.675 552.246 365.062 551.398 363.442 550.574C362.619 550.193 361.813 549.772 360.969 549.425L359.712 548.886L358.425 548.414C356.701 547.81 354.934 547.341 353.137 547.011C351.345 546.673 349.541 546.472 347.765 546.197C345.999 545.953 344.262 545.529 342.582 544.931C340.914 544.306 339.325 543.49 337.845 542.5C336.376 541.497 335.072 540.272 333.978 538.87C332.91 537.426 331.935 535.917 331.057 534.35C330.15 532.771 329.101 531.276 327.925 529.885C327.613 529.551 327.328 529.192 326.994 528.883L326.003 527.935L324.951 527.062C324.608 526.761 324.223 526.514 323.86 526.243C320.878 524.152 317.547 522.611 314.022 521.694C312.815 521.371 311.591 521.109 310.357 520.91Z" fill="#0057E0"/>
<path d="M534.811 608.318C534.811 608.318 523.814 590.394 523.407 576.142C523 561.889 540.678 558.349 543.529 541.65C546.381 524.95 542.142 510.159 559.249 502.421C576.355 494.683 603.237 483.685 603.237 478.39C603.237 478.39 594.916 510.792 581.067 519.752C567.219 528.713 573.097 556.184 564.137 569.218L534.811 608.318Z" fill="white"/>
<path fill-rule="evenodd" clip-rule="evenodd" d="M534.457 608.537L534.777 609.057L564.48 569.455C568.392 563.768 569.528 555.281 570.626 547.07L570.628 547.054C572.073 536.26 573.566 525.104 581.294 520.103C593.939 511.921 601.86 485.015 603.383 479.46C603.553 479.129 603.646 478.764 603.654 478.392V475.103L602.836 478.288C602.832 478.305 602.74 478.657 602.566 479.285C600.155 483.814 581.272 492.184 567.213 498.416L567.165 498.437L566.656 498.663C564.008 499.836 561.449 500.97 559.079 502.044C545.879 508.015 545.167 518.168 544.342 529.925L544.342 529.927C544.131 533.83 543.723 537.719 543.121 541.581C541.737 549.679 536.868 554.576 532.159 559.312L532.158 559.313C527.335 564.163 522.779 568.745 522.991 576.155C523.397 590.357 534.346 608.357 534.457 608.537ZM567.502 499.197C584.053 491.863 597.462 485.691 601.998 481.253L602 481.251C600.562 486.098 598.88 490.87 596.961 495.549C592.006 507.534 586.432 515.782 580.841 519.4C572.791 524.608 571.272 535.96 569.803 546.938L569.803 546.939C568.716 555.06 567.593 563.454 563.804 568.967L534.852 607.575C533.056 604.51 524.184 588.756 523.823 576.132C523.622 569.078 528.055 564.619 532.749 559.898C537.326 555.295 542.513 550.078 543.939 541.721C544.547 537.833 544.958 533.916 545.171 529.986C545.977 518.491 546.672 508.568 559.421 502.802C561.943 501.661 564.674 500.45 567.502 499.197Z" fill="#0057E0"/>
<path d="M536.229 611.164C534.968 607.957 533.981 604.649 533.278 601.275C532.933 599.591 532.684 597.888 532.533 596.175C532.481 595.318 532.401 594.46 532.409 593.603C532.409 593.174 532.386 592.745 532.402 592.316L532.454 591.031C532.622 587.604 533.373 584.231 534.675 581.056C535.039 580.284 535.396 579.506 535.784 578.746L536.437 577.646L536.764 577.096C536.868 576.91 537.008 576.747 537.128 576.571L537.877 575.534C537.999 575.36 538.133 575.193 538.276 575.035L538.692 574.55L539.107 574.065L539.315 573.823L539.541 573.595L540.444 572.686C542.9 570.304 545.77 568.368 548.314 565.995C549.601 564.821 550.785 563.538 551.853 562.161L552.595 561.084C552.853 560.732 553.09 560.366 553.305 559.986L553.948 558.847C554.052 558.657 554.167 558.47 554.265 558.276L554.535 557.681C556.089 554.543 556.987 551.122 557.177 547.626C557.246 545.885 557.166 544.141 556.939 542.413C556.735 540.69 556.433 538.99 556.219 537.292C555.975 535.607 555.894 533.902 555.977 532.201C556.089 530.51 556.432 528.842 556.995 527.243C557.283 526.445 557.616 525.663 557.991 524.902C558.355 524.138 558.773 523.401 559.243 522.697C559.724 522.003 560.265 521.353 560.861 520.755C561.45 520.142 562.079 519.56 562.711 518.982C565.271 516.696 567.94 514.51 570.593 512.314L578.573 505.742C581.233 503.56 583.982 501.49 586.759 499.447C588.142 498.419 589.531 497.389 590.85 496.266C592.171 495.146 593.413 493.935 594.566 492.642C599.163 487.469 600.241 486.252 602.61 479.782C600.135 486.211 598.964 487.352 594.314 492.414C593.157 493.681 591.916 494.868 590.598 495.967C589.281 497.066 587.891 498.079 586.499 499.093C583.705 501.108 580.925 503.161 578.238 505.327C575.551 507.494 572.88 509.665 570.214 511.851C567.547 514.037 564.877 516.215 562.289 518.513C561.649 519.097 561.01 519.683 560.402 520.311C559.78 520.933 559.214 521.609 558.71 522.331C558.221 523.059 557.784 523.822 557.404 524.612C557.015 525.396 556.67 526.2 556.371 527.022C555.782 528.677 555.422 530.405 555.3 532.157C555.208 533.902 555.286 535.651 555.532 537.38C555.754 539.1 556.061 540.796 556.267 542.495C556.496 544.185 556.579 545.891 556.517 547.596C556.341 551.006 555.474 554.345 553.967 557.409L553.707 557.992C553.612 558.182 553.499 558.365 553.399 558.551L552.776 559.664C552.568 560.036 552.338 560.394 552.087 560.738L551.366 561.791C550.325 563.142 549.169 564.402 547.912 565.555C547.301 566.151 546.628 566.687 545.984 567.251L543.986 568.887C542.646 569.969 541.324 571.096 540.078 572.305L539.168 573.24L538.94 573.474L538.729 573.723L538.308 574.222L537.888 574.72C537.743 574.883 537.608 575.054 537.485 575.234L536.73 576.299C536.608 576.48 536.47 576.647 536.362 576.838L536.034 577.402L535.378 578.53C534.99 579.309 534.635 580.102 534.272 580.89L533.82 582.112L533.594 582.722C533.528 582.93 533.471 583.138 533.409 583.346L533.046 584.596C532.942 585.016 532.857 585.442 532.761 585.865C532.551 586.707 532.463 587.572 532.324 588.428C532.265 588.857 532.243 589.291 532.201 589.721C532.159 590.152 532.117 590.584 532.117 591.02L532.085 592.319C532.077 592.751 532.105 593.184 532.114 593.618C532.12 594.483 532.217 595.344 532.281 596.205C532.46 597.924 532.737 599.631 533.112 601.317C533.872 604.681 534.914 607.975 536.229 611.164Z" fill="#0057E0"/>
<path d="M534.812 608.317C535.215 608.168 535.615 608.025 536.011 607.89C536.115 607.855 536.219 607.817 536.317 607.786C546.323 604.37 554.206 604.201 564.731 601.433C573.796 599.048 581.979 589.459 588.393 583.041C591.432 580.004 594.462 576.907 597.901 574.328C600.942 572.042 604.647 571.502 608.362 571.387C618.314 571.076 628.376 571.519 637.232 566.17C644.594 561.728 648.041 554.036 648.041 545.594C648.041 521.305 660.089 496.645 661.375 494.087C661.413 494.007 661.441 493.948 661.461 493.91C661.467 493.897 661.472 493.884 661.479 493.872C661.271 493.958 653.554 497.352 639.895 513.826C626.047 530.523 625.231 546.407 595.092 550.074C564.954 553.742 555.205 573.903 549.473 584.286C542.955 596.1 534.812 608.317 534.812 608.317Z" fill="#1DEBCE"/>
<path d="M536.011 607.89C536.115 607.855 536.219 607.817 536.317 607.786C541.816 604.676 547.052 601.125 551.976 597.168C555.063 594.67 557.991 591.981 560.741 589.115C563.487 586.241 566.003 583.165 568.583 580.165C571.109 577.128 573.854 574.281 576.796 571.644C578.266 570.35 579.89 569.241 581.63 568.342C583.378 567.455 585.22 566.77 587.122 566.299C590.931 565.339 594.897 565.124 598.839 565.121C599.823 565.128 600.827 565.121 601.824 565.093L603.323 565.002L604.817 564.842C606.802 564.586 608.762 564.167 610.677 563.588C614.505 562.408 618.131 560.654 621.431 558.385C624.719 556.116 627.709 553.444 630.333 550.432C632.959 547.428 635.241 544.139 637.135 540.627C638.086 538.876 638.941 537.074 639.696 535.229C640.413 533.364 640.97 531.441 641.361 529.481C641.777 527.534 642.098 525.577 642.491 523.641C642.873 521.707 643.384 519.8 644.02 517.934L644.51 516.537C644.684 516.078 644.886 515.626 645.07 515.171C645.434 514.25 645.876 513.371 646.304 512.481C646.512 512.032 646.756 511.605 646.992 511.17L647.704 509.872L648.484 508.614C648.741 508.193 648.995 507.769 649.283 507.367C651.483 504.078 654.009 501.019 656.822 498.236C658.282 496.79 659.8 495.408 661.375 494.089C661.414 494.01 661.441 493.951 661.462 493.912C659.818 495.243 658.232 496.644 656.704 498.115C653.84 500.871 651.259 503.907 648.998 507.176C648.706 507.579 648.446 508.003 648.181 508.423L647.389 509.688L646.659 510.986C646.415 511.421 646.166 511.852 645.957 512.3C645.516 513.193 645.06 514.08 644.688 515.004C644.497 515.463 644.292 515.918 644.111 516.381L643.604 517.783C642.947 519.664 642.416 521.587 642.016 523.539C641.605 525.482 641.265 527.436 640.837 529.361C640.438 531.287 639.875 533.176 639.155 535.006C638.403 536.827 637.553 538.607 636.609 540.337C634.729 543.804 632.465 547.049 629.86 550.01C627.265 552.975 624.308 555.602 621.059 557.831C617.809 560.052 614.242 561.767 610.479 562.92C608.601 563.493 606.679 563.91 604.733 564.166L603.27 564.33L601.8 564.42C600.82 564.451 599.843 564.461 598.842 564.458C594.873 564.469 590.858 564.694 586.969 565.685C585.023 566.172 583.138 566.878 581.352 567.791C579.571 568.718 577.91 569.86 576.406 571.19C573.446 573.849 570.697 576.732 568.182 579.815C565.621 582.846 563.136 585.932 560.428 588.81C557.711 591.685 554.817 594.389 551.763 596.905C546.823 600.993 541.555 604.667 536.011 607.89H536.011Z" fill="white"/>
<path d="M456.751 360.504H516.901V505.847H456.751V360.504Z" fill="white"/>
<path fill-rule="evenodd" clip-rule="evenodd" d="M456.335 506.259H517.318V360.088H456.335V506.259ZM516.487 505.428H457.169L457.167 360.92H516.487V505.428Z" fill="black"/>
<path d="M505.09 561.348L510.283 606.807H543.985L536.668 557.215C535.515 549.403 528.811 543.615 520.913 543.615C516.375 543.615 512.052 545.551 509.03 548.938C506.008 552.324 504.575 556.839 505.09 561.348Z" fill="white"/>
<path fill-rule="evenodd" clip-rule="evenodd" d="M509.912 607.224H544.467L537.079 557.156C535.77 548.337 527.635 542.195 518.795 543.351C509.955 544.508 503.673 552.537 504.678 561.396L509.912 607.224ZM543.502 606.392H510.654L505.502 561.301C504.536 552.886 510.5 545.253 518.898 544.154C527.296 543.055 535.023 548.897 536.255 557.277L543.502 606.392Z" fill="black"/>
<path d="M507.204 586.511L509.23 605.54C509.357 606.734 510.364 607.639 511.564 607.639H570.316C570.986 607.638 571.625 607.351 572.07 606.85C572.516 606.349 572.727 605.681 572.649 605.015C571.315 593.505 561.568 584.822 549.981 584.821H540.505C530.495 589.787 518.795 590.039 508.58 585.51C508.259 585.367 507.886 585.406 507.602 585.613C507.318 585.819 507.166 586.162 507.204 586.511Z" fill="white"/>
<path fill-rule="evenodd" clip-rule="evenodd" d="M511.562 608.055H570.312C571.101 608.054 571.853 607.716 572.377 607.127C572.902 606.537 573.15 605.752 573.059 604.968C571.713 593.242 561.78 584.394 549.977 584.406H540.404L540.316 584.449C530.421 589.375 518.843 589.625 508.745 585.131C508.289 584.928 507.759 584.985 507.356 585.279C506.952 585.573 506.736 586.059 506.789 586.556L508.815 605.584C508.962 606.99 510.148 608.057 511.562 608.055ZM507.759 586.03C507.866 585.911 508.018 585.842 508.178 585.841H508.179C508.26 585.841 508.34 585.857 508.414 585.891C518.708 590.472 530.506 590.232 540.605 585.237H549.984C561.364 585.225 570.941 593.756 572.239 605.062C572.303 605.611 572.13 606.161 571.763 606.574C571.395 606.986 570.87 607.223 570.317 607.223H511.565C510.576 607.226 509.746 606.48 509.643 605.497L507.617 586.468C507.6 586.308 507.652 586.149 507.759 586.03Z" fill="black"/>
<path d="M461.606 561.348L456.413 606.807H422.712L430.03 557.215C431.183 549.403 437.887 543.615 445.785 543.615C450.323 543.615 454.646 545.552 457.667 548.938C460.688 552.325 462.121 556.839 461.606 561.348Z" fill="white"/>
<path fill-rule="evenodd" clip-rule="evenodd" d="M422.23 607.224H456.785L462.019 561.396C463.024 552.537 456.742 544.508 447.902 543.351C439.062 542.195 430.926 548.337 429.618 557.156L422.23 607.224ZM456.042 606.392H423.192L430.439 557.277C431.671 548.897 439.398 543.055 447.796 544.154C456.194 545.253 462.158 552.886 461.192 561.301L456.042 606.392Z" fill="black"/>
<path d="M459.359 586.511L457.333 605.54C457.206 606.733 456.199 607.639 454.999 607.639H396.249C395.579 607.638 394.94 607.351 394.494 606.85C394.049 606.349 393.838 605.681 393.916 605.015C395.25 593.505 404.997 584.822 416.584 584.821H426.06C436.07 589.787 447.77 590.039 457.985 585.51C458.306 585.368 458.678 585.407 458.961 585.614C459.245 585.82 459.396 586.163 459.359 586.511Z" fill="white"/>
<path fill-rule="evenodd" clip-rule="evenodd" d="M396.249 608.055H455.001C456.413 608.056 457.599 606.989 457.745 605.584L459.772 586.556C459.824 586.059 459.609 585.573 459.205 585.279C458.802 584.985 458.272 584.928 457.816 585.131C447.718 589.625 436.14 589.375 426.245 584.449L426.158 584.406H416.584C404.781 584.394 394.849 593.242 393.502 604.968C393.411 605.752 393.659 606.537 394.184 607.127C394.708 607.716 395.46 608.054 396.249 608.055ZM394.329 605.062C395.627 593.756 405.204 585.225 416.584 585.237H425.967C436.066 590.232 447.864 590.472 458.157 585.891C458.342 585.808 458.557 585.831 458.72 585.95C458.884 586.069 458.971 586.267 458.95 586.468L456.924 605.497C456.821 606.48 455.99 607.226 455.001 607.223H396.251C395.699 607.223 395.173 606.986 394.806 606.574C394.439 606.161 394.265 605.611 394.329 605.062Z" fill="black"/>
<path d="M535.18 466.111V466.1L534.535 460.853C534.535 460.849 534.531 460.84 534.531 460.836L523.417 370.282H445.164L434.051 460.836C434.051 460.84 434.047 460.849 434.047 460.853L433.402 466.1V466.108L420.227 573.443H470.145L477.544 470.136V470.131L477.884 465.373L484.289 396.7L490.693 465.373L491.034 470.131V470.136L498.432 573.443H548.353L535.18 466.111Z" fill="#0057E0" stroke="black"/>
<path d="M540.08 309.681C540.08 301.014 533.054 293.988 524.387 293.988H444.444C435.777 293.988 428.751 301.014 428.751 309.681V310.279C428.749 312.799 429.356 315.281 430.52 317.516L444.478 370.285H524.356L540.079 312.788H539.878C540.012 311.958 540.08 311.119 540.08 310.279V309.681Z" fill="white"/>
<path fill-rule="evenodd" clip-rule="evenodd" d="M444.158 370.701H524.673L540.624 312.372H540.359C540.45 311.678 540.496 310.979 540.496 310.279V309.681C540.486 300.789 533.279 293.582 524.387 293.573H444.444C435.552 293.583 428.346 300.789 428.335 309.681V310.279C428.328 312.85 428.944 315.385 430.13 317.666L444.158 370.701ZM524.038 369.869H444.797L430.922 317.41L430.888 317.324C429.751 315.151 429.16 312.733 429.166 310.28V309.682C429.176 301.248 436.01 294.414 444.444 294.404H524.386C532.82 294.414 539.655 301.248 539.664 309.682V310.28C539.663 311.098 539.598 311.914 539.467 312.722L539.39 313.203H539.534L524.038 369.869Z" fill="black"/>
<path d="M476.974 281.583H491.858V293.099C491.858 295.073 491.073 296.966 489.678 298.362C488.282 299.757 486.389 300.541 484.415 300.541C480.305 300.541 476.974 297.209 476.974 293.099V281.583Z" fill="white"/>
<path fill-rule="evenodd" clip-rule="evenodd" d="M476.558 293.097C476.562 297.436 480.077 300.952 484.416 300.957C488.754 300.952 492.27 297.435 492.273 293.097V281.166H476.558V293.097ZM477.389 293.097V281.999L491.442 281.997V293.097C491.442 296.978 488.296 300.123 484.416 300.123C480.535 300.123 477.389 296.978 477.389 293.097Z" fill="black"/>
<path d="M484.414 245.733C493.27 245.733 500.45 252.912 500.45 261.768V271.398C500.45 275.651 498.761 279.73 495.754 282.737C492.746 285.745 488.667 287.434 484.414 287.434C480.161 287.434 476.082 285.745 473.075 282.737C470.068 279.73 468.379 275.651 468.379 271.398V261.768C468.379 252.912 475.558 245.733 484.414 245.733Z" fill="white"/>
<path fill-rule="evenodd" clip-rule="evenodd" d="M467.964 271.399C467.974 280.48 475.334 287.84 484.415 287.85C493.496 287.84 500.855 280.481 500.866 271.4V261.769C500.866 252.684 493.501 245.318 484.415 245.318C475.33 245.318 467.964 252.684 467.964 261.769V271.399ZM468.794 261.769C468.803 253.146 475.792 246.157 484.415 246.148V246.149C493.037 246.16 500.024 253.147 500.033 261.769V271.4C500.023 280.023 493.036 287.01 484.413 287.02C475.791 287.01 468.804 280.023 468.794 271.4V261.769Z" fill="black"/>
<path d="M467.594 263.252C465.972 262.919 464.549 261.955 463.639 260.573C462.728 259.191 462.403 257.504 462.736 255.882L464.181 248.852C464.514 247.231 465.477 245.808 466.859 244.897C468.242 243.986 469.929 243.661 471.55 243.994C473.172 244.327 474.594 245.291 475.505 246.673C476.416 248.055 476.741 249.743 476.408 251.364C476.408 251.364 470.97 263.946 467.594 263.252Z" fill="black"/>
<path d="M489.595 242.364C490.168 244.641 489.813 247.054 488.607 249.069C487.402 251.085 485.445 252.54 483.167 253.113L481.285 253.586C479.007 254.159 476.595 253.804 474.579 252.598C472.563 251.393 471.109 249.436 470.536 247.158C469.343 242.415 472.221 237.602 476.964 236.409L478.846 235.936C483.589 234.743 488.402 237.62 489.595 242.364Z" fill="black"/>
<path d="M503.17 238.617C503.743 240.894 503.388 243.306 502.183 245.321C500.978 247.337 499.022 248.791 496.745 249.364L494.863 249.838C492.586 250.411 490.174 250.056 488.158 248.851C486.143 247.645 484.689 245.689 484.116 243.412C482.923 238.67 485.799 233.858 490.541 232.665L492.423 232.191C497.165 230.998 501.977 233.875 503.17 238.617Z" fill="black"/>
<path d="M501.713 264.117C498.27 264.292 494.8 251.032 494.8 251.032C494.625 247.59 497.274 244.657 500.717 244.483C504.159 244.308 507.091 246.957 507.266 250.4L507.63 257.569C507.804 261.011 505.155 263.943 501.713 264.117Z" fill="black"/>
<path d="M506.795 264.376V268.792C506.795 270.534 505.383 271.946 503.641 271.946C501.899 271.946 500.487 270.534 500.487 268.792V264.376C500.487 262.634 501.899 261.222 503.641 261.222C505.383 261.222 506.795 262.634 506.795 264.376Z" fill="white"/>
<path fill-rule="evenodd" clip-rule="evenodd" d="M500.072 268.792C500.075 270.763 501.671 272.359 503.642 272.361C505.612 272.359 507.209 270.763 507.211 268.792V264.376C507.211 262.405 505.613 260.807 503.642 260.807C501.67 260.807 500.072 262.405 500.072 264.376V268.792ZM500.902 264.376C500.904 262.864 502.129 261.639 503.641 261.637C505.152 261.639 506.377 262.864 506.379 264.376V268.792C506.379 270.304 505.153 271.53 503.641 271.53C502.128 271.53 500.902 270.304 500.902 268.792V264.376Z" fill="black"/>
<path d="M468.432 264.376V268.792C468.432 270.534 467.02 271.946 465.278 271.946C463.536 271.946 462.124 270.534 462.124 268.792V264.376C462.124 262.634 463.536 261.222 465.278 261.222C467.02 261.222 468.432 262.634 468.432 264.376Z" fill="white"/>
<path fill-rule="evenodd" clip-rule="evenodd" d="M461.708 268.793C461.711 270.763 463.307 272.359 465.277 272.362C467.248 272.36 468.845 270.763 468.847 268.793V264.377C468.847 262.405 467.249 260.807 465.278 260.807C463.306 260.807 461.708 262.405 461.708 264.377V268.793ZM462.54 264.376C462.542 262.864 463.766 261.639 465.278 261.637C466.789 261.639 468.014 262.864 468.016 264.376V268.792C468.03 269.779 467.511 270.697 466.658 271.195C465.805 271.692 464.751 271.692 463.898 271.195C463.045 270.697 462.526 269.779 462.54 268.792V264.376Z" fill="black"/>
<path d="M430.334 346.355L456.133 321.381L456.122 321.37C462.071 315.172 462.05 305.378 456.075 299.205C450.1 293.032 440.311 292.693 433.923 298.438L433.912 298.427L400.184 331.077L400.228 331.123C395.053 335.759 393.467 343.209 396.306 349.551L396.293 349.558L416.74 391.016C418.232 394.417 420.863 397.191 424.179 398.861L443.643 373.336L430.334 346.355Z" fill="white"/>
<path fill-rule="evenodd" clip-rule="evenodd" d="M423.993 399.237L424.301 399.393L444.13 373.388L430.841 346.444L456.422 321.681L456.711 321.38L456.697 321.366C462.542 314.972 462.4 305.134 456.374 298.912C450.348 292.689 440.52 292.232 433.942 297.868L433.918 297.843L399.596 331.068L399.632 331.106C394.65 335.78 393.107 343.062 395.766 349.354L395.735 349.369L416.36 391.188C417.893 394.675 420.592 397.521 423.993 399.237ZM417.112 390.838L396.85 349.75L396.684 349.385C393.895 343.211 395.443 335.941 400.504 331.437L400.826 331.149L400.77 331.091L433.905 299.016L434.2 298.751C440.422 293.156 449.955 293.487 455.775 299.499C461.595 305.511 461.615 315.05 455.821 321.087L429.826 346.271L443.154 373.296L424.059 398.337C420.967 396.688 418.52 394.047 417.112 390.838Z" fill="black"/>
<path d="M566.744 335.328L566.791 335.288L536.39 299.519L536.378 299.53C530.578 293.192 520.803 292.58 514.256 298.144C507.71 303.708 506.739 313.453 512.059 320.2L512.047 320.209L535.218 347.469L519.153 372.754L535.756 400.226C539.233 398.922 542.147 396.447 543.996 393.226L568.787 354.206L568.775 354.199C572.312 348.144 571.488 340.491 566.744 335.328Z" fill="white"/>
<path fill-rule="evenodd" clip-rule="evenodd" d="M518.662 372.749L535.576 400.735L535.899 400.616C539.46 399.279 542.446 396.746 544.345 393.45L569.136 354.43L569.349 354.067L569.332 354.056C572.624 348.02 571.829 340.575 567.338 335.369L567.377 335.336L536.706 299.25L536.424 298.942L536.409 298.955C530.406 292.713 520.582 292.221 513.984 297.831C507.387 303.441 506.295 313.216 511.491 320.144L511.465 320.167L534.701 347.505L518.662 372.749ZM535.929 399.713L519.64 372.76L535.734 347.434L512.631 320.253L512.387 319.941C507.206 313.371 508.152 303.879 514.528 298.461C520.903 293.042 530.423 293.638 536.073 299.809L536.214 299.952L566.207 335.239L566.146 335.291L566.44 335.61C571.029 340.653 571.828 348.086 568.414 353.989L568.319 354.165L543.634 393.019C541.89 396.051 539.176 398.409 535.929 399.713Z" fill="black"/>
<path d="M540.08 309.682C540.077 301.016 533.053 293.992 524.387 293.988H444.445C435.779 293.993 428.756 301.016 428.751 309.682V310.28C428.749 312.799 429.356 315.282 430.52 317.516L436.556 340.333L444.478 370.286H520.72L527.104 360.236L531.72 343.356L540.079 312.788H539.878C540.012 311.959 540.08 311.12 540.08 310.28V309.682Z" fill="#0057E0"/>
<path d="M444.445 293.988C435.779 293.993 428.756 301.016 428.751 309.682V310.28C428.749 312.799 429.356 315.282 430.52 317.516L436.556 340.333L444.478 370.286L420.476 505.847H468.221V293.988L444.445 293.988Z" fill="white"/>
<path fill-rule="evenodd" clip-rule="evenodd" d="M419.978 506.26H468.635L468.633 293.569H444.443C435.548 293.573 428.338 300.782 428.334 309.677V310.275C428.327 312.847 428.943 315.381 430.129 317.663L444.052 370.299L419.978 506.26ZM467.804 505.428H420.97L444.903 370.265L430.923 317.407L430.889 317.321C429.752 315.148 429.161 312.73 429.167 310.277V309.679C429.172 301.243 436.009 294.406 444.445 294.401H467.804V505.428Z" fill="black"/>
<path d="M524.576 293.988C533.242 293.992 540.265 301.016 540.27 309.681V310.279C540.272 312.799 539.665 315.281 538.501 317.516L532.465 340.333L524.543 370.285L548.545 505.846H500.801V293.988L524.576 293.988Z" fill="white"/>
<path fill-rule="evenodd" clip-rule="evenodd" d="M500.387 506.259H549.043L524.968 370.303L538.891 317.666C540.077 315.385 540.693 312.85 540.686 310.279V309.681C540.682 300.786 533.472 293.577 524.577 293.573H500.387V506.259ZM548.052 505.428H501.218V294.404H524.577C533.013 294.408 539.85 301.246 539.855 309.681V310.279C539.861 312.732 539.27 315.15 538.133 317.324L524.119 370.268L548.052 505.428Z" fill="black"/>
<path d="M443.012 340.645L476.441 376.562L431.545 418.348L398.116 382.431L443.012 340.645Z" fill="#0057E0"/>
<path d="M428.75 310.279V309.681C428.746 306.45 429.744 303.297 431.608 300.657L400.183 331.077L400.227 331.123C395.052 335.76 393.466 343.209 396.304 349.551L396.291 349.558L416.739 391.016C418.231 394.417 420.861 397.191 424.178 398.861L443.641 373.336L430.332 346.351L436.554 340.33L430.519 317.515C429.355 315.281 428.748 312.799 428.75 310.279Z" fill="white"/>
<path fill-rule="evenodd" clip-rule="evenodd" d="M423.993 399.237L424.301 399.392L444.129 373.387L430.84 346.444L437.018 340.463L430.921 317.41L430.888 317.325C429.75 315.151 429.159 312.733 429.166 310.28V309.682C429.16 306.536 430.133 303.466 431.948 300.897L431.32 300.359L399.596 331.068L399.632 331.106C394.65 335.779 393.107 343.062 395.766 349.354L395.735 349.369L416.36 391.188C417.893 394.675 420.592 397.521 423.993 399.237ZM417.112 390.837L396.85 349.75L396.684 349.385C393.895 343.211 395.443 335.941 400.504 331.437L400.826 331.149L400.77 331.091L429.782 303.007C428.824 305.103 428.33 307.381 428.334 309.686V310.284C428.327 312.855 428.943 315.389 430.129 317.671L436.089 340.208L429.826 346.271L443.154 373.296L424.059 398.337C420.967 396.688 418.52 394.046 417.112 390.837Z" fill="black"/>
<path d="M566.742 335.329L566.79 335.289L536.388 299.52L536.376 299.53C536.286 299.431 536.192 299.338 536.1 299.243C538.667 302.113 540.084 305.831 540.079 309.682V310.28C540.079 311.12 540.011 311.959 539.877 312.788H540.078L531.719 343.356L535.215 347.469L527.103 360.236L520.718 370.286L519.149 372.754L535.753 400.226C539.23 398.922 542.144 396.447 543.993 393.226L568.784 354.207L568.772 354.199C572.309 348.145 571.486 340.492 566.742 335.329Z" fill="white"/>
<path fill-rule="evenodd" clip-rule="evenodd" d="M518.661 372.749L535.576 400.736L535.899 400.617C539.46 399.28 542.445 396.747 544.344 393.451L569.136 354.432L569.349 354.068L569.332 354.058C572.623 348.021 571.829 340.576 567.338 335.37L567.377 335.337L536.705 299.251L536.424 298.943L536.404 298.959L536.4 298.955L536.107 299.215L536.112 299.222L535.791 299.52C538.287 302.316 539.666 305.934 539.664 309.683V310.281C539.664 311.098 539.598 311.915 539.467 312.722L539.39 313.204H539.534L531.261 343.459L534.7 347.505L518.661 372.749ZM535.929 399.713L519.639 372.76L535.732 347.433L532.18 343.253L540.625 312.372H540.36C540.451 311.678 540.497 310.978 540.497 310.278V309.681C540.498 307.589 540.091 305.518 539.299 303.583L566.206 335.239L566.145 335.291L566.439 335.61C571.028 340.653 571.827 348.086 568.413 353.989L568.319 354.165L543.633 393.019C541.889 396.052 539.175 398.409 535.929 399.713Z" fill="black"/>
<path d="M461.161 372.865C460.619 370.769 458.481 369.509 456.385 370.05L443.642 373.339L424.178 398.865C424.259 399.685 424.598 400.459 425.147 401.075L435.34 412.526C436.268 413.582 437.691 414.06 439.07 413.779C440.448 413.497 441.569 412.498 442.008 411.162C442.448 409.826 442.138 408.357 441.196 407.312L434.849 400.183C434.997 400.15 435.143 400.113 435.29 400.076L444.787 407.934C445.865 408.839 447.346 409.098 448.666 408.611C449.987 408.123 450.945 406.965 451.177 405.576C451.408 404.188 450.877 402.782 449.785 401.893L442.597 395.946C442.977 395.571 443.338 395.176 443.681 394.762L452.05 400.815C453.184 401.652 454.681 401.815 455.969 401.243C457.257 400.671 458.139 399.451 458.279 398.049C458.419 396.646 457.795 395.276 456.644 394.461L447.059 387.53C447.492 385.236 447.414 382.874 446.829 380.614L458.345 377.642C459.352 377.382 460.214 376.732 460.742 375.837C461.27 374.941 461.421 373.872 461.161 372.865Z" fill="white"/>
<path fill-rule="evenodd" clip-rule="evenodd" d="M435.03 412.8C435.852 413.725 437.033 414.253 438.271 414.251L438.272 414.252C439.98 414.253 441.529 413.25 442.227 411.692C442.926 410.134 442.645 408.311 441.509 407.036L437.194 402.189L444.524 408.253C445.718 409.241 447.347 409.517 448.799 408.977C450.251 408.437 451.305 407.164 451.563 405.636C451.822 404.109 451.246 402.56 450.052 401.573L443.213 395.914C443.397 395.722 443.577 395.525 443.751 395.324L451.809 401.151C453.749 402.546 456.453 402.108 457.853 400.171C459.254 398.235 458.823 395.53 456.89 394.124L447.516 387.346C447.887 385.211 447.824 383.024 447.333 380.914L458.451 378.043C460.768 377.442 462.161 375.08 461.566 372.762C460.965 370.445 458.602 369.051 456.283 369.648L443.399 372.973L423.749 398.741L423.766 398.904C423.855 399.812 424.23 400.668 424.837 401.349L435.03 412.8ZM425.457 400.799C425.003 400.289 424.709 399.656 424.612 398.98L443.887 373.7L456.492 370.446C458.366 369.966 460.275 371.092 460.761 372.964C461.242 374.838 460.116 376.748 458.244 377.234L446.326 380.31L446.43 380.713C447.001 382.913 447.078 385.213 446.653 387.447L446.605 387.707L456.403 394.793C457.433 395.521 457.992 396.746 457.868 398.001C457.743 399.256 456.954 400.347 455.801 400.859C454.648 401.37 453.31 401.223 452.296 400.473L443.611 394.192L443.363 394.492C443.031 394.893 442.676 395.282 442.308 395.645L441.981 395.969L449.523 402.208C451.015 403.442 451.224 405.652 449.99 407.144C448.757 408.636 446.547 408.845 445.055 407.611L435.395 399.619L435.187 399.671C435.045 399.707 434.902 399.742 434.759 399.775L434.069 399.93L440.886 407.588C442.173 409.034 442.044 411.25 440.598 412.537C439.152 413.824 436.937 413.695 435.65 412.249L425.457 400.799Z" fill="black"/>
<path d="M535.753 400.226C535.585 401.034 535.165 401.768 534.552 402.321L528.122 408.14L524.989 410.978L522.944 406.968L521.589 404.299L521.302 403.738L524.353 400.979L525.005 400.388C524.86 400.336 524.718 400.289 524.577 400.233L524.12 400.532L520.791 402.73L518.01 397.265L517.212 395.698L517.757 395.341C517.42 394.925 517.104 394.493 516.805 394.048L516.468 394.239L513.513 388.429L512.911 387.244L514.228 386.492C514.115 385.059 514.196 383.618 514.469 382.207C514.642 381.334 514.887 380.476 515.201 379.643L504.07 375.445C502.744 374.963 501.779 373.805 501.544 372.413C501.309 371.021 501.841 369.611 502.935 368.72C504.03 367.829 505.519 367.596 506.834 368.109L519.147 372.752L535.753 400.226Z" fill="white"/>
<path fill-rule="evenodd" clip-rule="evenodd" d="M520.786 403.645L524.865 411.653L534.831 402.632C535.509 402.021 535.974 401.209 536.16 400.314L536.193 400.155L519.504 372.542L519.43 372.419L506.98 367.726C504.74 366.888 502.244 368.018 501.395 370.254C500.989 371.33 501.028 372.523 501.502 373.571C501.976 374.618 502.847 375.434 503.923 375.839L514.67 379.892C514.415 380.624 514.211 381.373 514.06 382.134C513.798 383.494 513.708 384.883 513.794 386.266L512.36 387.085L516.294 394.821L516.678 394.603C516.834 394.824 516.991 395.039 517.15 395.247L516.673 395.558L520.631 403.337L522.468 402.124L520.786 403.645ZM525.113 410.308L521.817 403.835L525.809 400.23L525.143 400.001C525.001 399.952 524.864 399.904 524.728 399.852L524.529 399.776L520.952 402.135L517.754 395.849L518.37 395.443L518.082 395.086C517.768 394.699 517.455 394.274 517.151 393.823L516.936 393.504L516.643 393.67L513.463 387.417L514.665 386.729L514.644 386.466C514.535 385.072 514.614 383.669 514.879 382.295C515.048 381.444 515.286 380.609 515.591 379.797L515.738 379.408L504.218 375.063C503.347 374.738 502.643 374.079 502.262 373.231C501.676 371.939 501.926 370.422 502.895 369.387C503.865 368.352 505.363 368.003 506.69 368.503L518.87 373.095L535.313 400.3C535.142 400.962 534.781 401.558 534.274 402.015L525.113 410.308Z" fill="black"/>
<path d="M531.542 415.816H526.825L524.48 411.207L524.364 410.979L522.319 406.968L520.964 404.3L520.678 403.738L520.166 402.733L517.386 397.267L516.588 395.7L516.451 395.43L515.844 394.242L512.889 388.431L512.286 387.247L508.841 380.476H512.934L513.845 382.209L516.147 386.577L519.801 393.518L520.644 395.118L523.495 400.534L523.728 400.979L524.314 402.088L525.021 403.431L527.498 408.14L528.79 410.592L531.542 415.816Z" fill="black"/>
</g>
</svg>
