<svg width="567" height="441" viewBox="0 0 567 441" fill="none" xmlns="http://www.w3.org/2000/svg">
<path d="M0 389.883H566.431V390.547H0V389.883Z" fill="#25282B"/>
<path d="M361.758 300.503L352.476 297.213L347.586 305.937L347.888 306.042C346.072 305.919 344.247 306.015 342.454 306.329L342.741 306.193L336.961 298.028L328.056 302.269L330.773 311.898L331.059 311.763C329.688 312.954 328.467 314.307 327.422 315.792L327.528 315.49L317.657 313.8L314.367 323.097L323.09 327.987L323.196 327.685C323.08 329.502 323.176 331.325 323.483 333.119L323.347 332.832L315.182 338.613L319.423 347.517L329.052 344.801L328.916 344.514C330.113 345.884 331.471 347.106 332.961 348.151L332.659 348.046L330.969 357.901L340.251 361.206L345.156 352.468L344.854 352.362C346.67 352.483 348.493 352.392 350.287 352.09L350.001 352.226L355.781 360.391L364.671 356.15L361.969 346.521L361.682 346.657C363.042 345.449 364.262 344.092 365.32 342.612L365.214 342.914L375.07 344.604L378.36 335.307L369.636 330.357L369.531 330.659C369.654 328.843 369.558 327.018 369.244 325.225L369.38 325.512L377.545 319.732L373.304 310.842L363.675 313.543L363.811 313.83C362.611 312.467 361.259 311.247 359.781 310.193L360.083 310.299L361.758 300.503Z" fill="#25282B"/>
<path d="M333.411 313.755C339.667 308.539 348.449 307.606 355.661 311.391C362.873 315.176 367.094 322.933 366.356 331.044C365.617 339.155 360.064 346.023 352.287 348.443C344.51 350.863 336.041 348.359 330.83 342.099C327.412 337.999 325.764 332.708 326.248 327.392C326.732 322.076 329.309 317.17 333.411 313.755Z" fill="white"/>
<path d="M333.021 322.101C336.951 314.761 346.082 311.99 353.428 315.908C360.775 319.826 363.561 328.952 359.656 336.305C355.751 343.658 346.629 346.459 339.269 342.567C335.719 340.689 333.064 337.474 331.891 333.632C330.719 329.791 331.125 325.641 333.021 322.101Z" fill="#1DEBCE"/>
<path d="M339.451 321.301C342.662 318.472 347.264 317.86 351.104 319.752C354.943 321.643 357.262 325.665 356.976 329.936C356.689 334.206 353.854 337.882 349.796 339.244C345.738 340.606 341.26 339.386 338.455 336.152C334.651 331.769 335.096 325.138 339.451 321.301Z" fill="white"/>
<path d="M356.126 96.3128V305.106C356.126 316.486 347.327 325.693 336.505 325.693H57.2893C46.4225 325.693 37.6687 316.486 37.6687 305.106V96.3128C37.6687 84.9479 46.4829 75.7112 57.2893 75.7112H336.505C347.327 75.7263 356.126 84.9479 356.126 96.3128Z" fill="white"/>
<path fill-rule="evenodd" clip-rule="evenodd" d="M57.2153 326.04H336.431C347.479 326.04 356.475 316.653 356.459 305.107V96.3135C356.459 84.7676 347.464 75.3799 336.431 75.3799H57.2153C46.1674 75.3799 37.1873 84.7676 37.1873 96.3135V305.107C37.1873 316.653 46.1674 326.04 57.2153 326.04ZM37.8813 96.3135C37.8813 85.1298 46.5445 76.0742 57.2151 76.0742H336.431C347.087 76.0742 355.75 85.1449 355.75 96.3135V305.107C355.75 316.29 347.087 325.346 336.431 325.346H57.2151C46.5445 325.346 37.8813 316.275 37.8813 305.107V96.3135Z" fill="#25282B"/>
<path d="M356.126 96.3128V107.376H37.6687V96.3128C37.6687 84.9479 46.4829 75.7112 57.2893 75.7112H336.505C347.327 75.7263 356.126 84.9479 356.126 96.3128Z" fill="#0057E0"/>
<path d="M57.2147 86.6996C59.1997 86.6071 61.0411 87.7323 61.8643 89.5409C62.6875 91.3495 62.3267 93.4771 60.9533 94.9132C59.5798 96.3493 57.4704 96.8046 55.6269 96.0628C53.7834 95.321 52.5772 93.5316 52.5812 91.5444C52.5306 88.9301 54.6007 86.7656 57.2147 86.6996Z" fill="white"/>
<path d="M74.4787 86.6994C76.4637 86.6068 78.3051 87.7321 79.1283 89.5407C79.9515 91.3493 79.5907 93.4769 78.2172 94.913C76.8438 96.3491 74.7344 96.8043 72.8909 96.0625C71.0474 95.3207 69.8412 93.5313 69.8452 91.5442C69.8169 90.2872 70.2892 89.0705 71.1582 88.1618C72.0272 87.2532 73.2217 86.7271 74.4787 86.6994Z" fill="white"/>
<path d="M91.7921 86.6994C93.7771 86.6068 95.6185 87.7321 96.4417 89.5407C97.2649 91.3493 96.9041 93.4769 95.5307 94.913C94.1572 96.3491 92.0478 96.8043 90.2043 96.0625C88.3608 95.3207 87.1546 93.5313 87.1586 91.5442C87.108 88.9298 89.1781 86.7653 91.7921 86.6994Z" fill="white"/>
<path d="M397.134 223.923C397.285 223.787 396.772 208.83 396.772 208.83C396.772 208.83 384.411 205.54 380.97 202.793C376.548 199.322 372.337 188.712 372.337 188.712C372.337 188.712 357.44 189.874 355.735 190.221C357.34 200.205 362.568 209.248 370.42 215.622C375.691 219.796 381.913 222.601 388.531 223.787C390.554 224.149 395.579 225.281 397.134 223.923Z" fill="#0057E0"/>
<path d="M483.013 211.97C482.735 212.15 482.448 212.316 482.153 212.468C480.733 213.18 479.201 213.644 477.625 213.841C474.606 214.218 469.958 213.751 464.871 209.313C460.541 205.754 455.127 203.774 449.522 203.699C446.858 203.6 444.193 203.859 441.598 204.468L436.467 218.444V218.55H436.663H436.784C443.397 216.959 450.366 217.907 456.314 221.206C459.529 223.123 462.351 225.855 465.792 227.243C469.78 228.727 474.229 228.305 477.866 226.096L483.013 211.97Z" fill="#0057E0"/>
<path d="M380.953 205.691H380.847C380.755 206.008 380.634 206.317 380.485 206.612C379.82 208.05 378.911 209.362 377.798 210.49C375.655 212.649 371.761 215.169 365.015 214.882C359.41 214.76 353.931 216.554 349.484 219.969C347.329 221.538 345.395 223.391 343.734 225.478L348.368 239.635H348.458V239.559C352.524 234.272 358.408 230.685 364.97 229.492C368.713 228.934 372.591 229.402 376.229 228.375C380.18 227.215 383.441 224.411 385.179 220.678C385.813 219.471 380.953 205.691 380.953 205.691Z" fill="#0057E0"/>
<path d="M425.839 169.166C426.171 169.468 420.225 173.694 419.666 174.026C411.716 178.418 401.955 177.878 394.537 172.638L394.22 172.411C394.22 172.411 385.481 184.485 384.44 185.738C392.573 191.573 402.55 194.255 412.512 193.284C422.369 192.199 431.491 187.558 438.17 180.229L425.839 169.166Z" fill="#0057E0"/>
<path d="M346.707 168.698C346.707 168.698 330.376 159.643 329.818 159.507C328.731 159.371 328.656 160.02 327.977 161.016C325.441 164.622 322.337 167.792 318.785 170.404C311.873 175.535 302.515 179.309 293.761 178.735H293.641V178.841L311.148 188.364C313.212 188.45 315.279 188.339 317.321 188.032C323.844 187.121 330.053 184.663 335.432 180.863C339.971 177.594 343.853 173.498 346.873 168.789L346.707 168.698Z" fill="#0057E0"/>
<path d="M436.675 141.23C436.252 143.532 435.574 145.779 434.653 147.931C433.484 150.07 432.004 152.023 430.261 153.727C426.518 157.47 421.296 160.05 418.186 164.291L418.081 164.412L419.364 168.593L420.964 173.83L422.246 178.011H422.337C424.257 175.653 426.539 173.615 429.099 171.974C431.071 170.638 432.915 169.122 434.607 167.446C437.505 164.427 440.977 159.673 440.992 154.511L439.12 148.474C438.365 146.376 437.943 142.98 436.675 141.23Z" fill="#0057E0"/>
<path d="M510.146 258.198H510.071C509.95 264.432 505.347 270.016 500.668 273.699C497.77 275.993 494.525 277.925 492.095 280.702C491.825 280.973 491.632 281.312 491.537 281.683C491.52 281.986 491.567 282.289 491.673 282.573C492.548 285.401 493.419 288.228 494.284 291.055L495.567 295.236H495.657C497.573 292.875 499.856 290.836 502.419 289.199C504.391 287.863 506.235 286.348 507.928 284.671C510.826 281.653 514.297 276.898 514.312 271.752C512.923 267.269 511.505 262.756 510.146 258.198Z" fill="#0057E0"/>
<path d="M499.703 156.579C494.979 157.666 488.882 155.492 484.897 153.062C481.773 151.056 478.883 148.707 476.279 146.059C473.94 143.596 471.362 141.371 468.582 139.419C465.491 137.308 461.721 136.435 458.017 136.974C458.017 138.483 457.896 139.992 457.836 141.501V143.267V144.777V144.958L457.534 151.9V151.991C457.907 151.913 458.286 151.873 458.666 151.87C460.194 151.814 461.722 151.998 463.194 152.413C468.899 153.923 473.533 158.254 476.43 161.575C480.394 166.243 485.728 169.544 491.674 171.008C493.923 171.567 496.24 171.806 498.556 171.717C498.797 171.74 499.04 171.74 499.281 171.717L499.598 163.99C499.885 161.529 499.921 159.046 499.703 156.579Z" fill="#0057E0"/>
<path d="M377.785 254.26C377.333 253.716 376.352 253.897 375.416 253.928C372.437 253.928 369.492 253.306 366.768 252.101C363.192 250.552 359.918 248.386 357.093 245.702C354.407 243.212 351.947 240.45 349.034 238.156C345.74 235.489 341.62 234.054 337.382 234.096C337.007 234.11 336.633 234.156 336.265 234.231C336.054 239.202 335.848 244.173 335.646 249.143V249.234C336.019 249.155 336.398 249.114 336.778 249.113C338.307 249.056 339.835 249.24 341.306 249.656C347.011 251.166 351.66 255.497 354.543 258.818C358.509 263.483 363.841 266.783 369.786 268.251C372.041 268.808 374.362 269.051 376.684 268.975H377.393L377.71 261.172C377.801 259.195 377.891 257.218 378.012 255.241C378.051 254.897 377.971 254.551 377.785 254.26Z" fill="#0057E0"/>
<path d="M549.072 195.684C549.072 195.684 532.652 186.78 531.58 186.146C531.776 186.266 525.226 193.556 524.562 194.175C521.965 196.619 519.087 198.747 515.989 200.514C510.209 203.804 502.738 206.31 495.991 205.676V205.781L513.499 215.305C515.562 215.391 517.629 215.279 519.672 214.973C526.194 214.062 532.404 211.604 537.783 207.804C542.322 204.535 546.203 200.438 549.223 195.73L549.072 195.684Z" fill="#0057E0"/>
<path d="M486.045 177.513L468.537 167.989C461.097 179.43 447.574 187.866 433.658 187.534H433.417H432.964V187.655L450.456 197.164C452.071 198.039 456.177 196.937 457.897 196.635C461.223 196.028 464.462 195.014 467.541 193.617C475.16 190.164 481.617 184.582 486.136 177.543L486.045 177.513Z" fill="#0057E0"/>
<path d="M304.917 243.121C304.329 242.08 300.948 242.381 299.574 242.185C287.168 240.38 276.204 233.159 269.646 222.474C269.646 225.87 270.038 241.28 270.596 242.381C273.925 248.591 279.02 253.675 285.236 256.991C288.267 258.684 291.483 260.021 294.82 260.976C295.922 261.293 305.853 263.209 305.898 262.621V262.53C306.034 260.493 305.476 244.087 304.917 243.121Z" fill="#0057E0"/>
<path d="M385.105 152.263C381.882 153.485 378.482 154.178 375.038 154.315C372.354 154.494 369.691 154.919 367.084 155.583C362.556 156.911 356.429 159.568 353.501 164.639L349.833 180.335H349.939C350.105 180.048 350.286 179.777 350.467 179.52C353.485 175.143 358.632 172.668 363.643 171.415C368.276 170.253 373.061 169.906 377.785 169.242L378.524 169.136C379.308 169.058 380.068 168.822 380.758 168.442C382.765 167.205 383.113 161.318 383.626 159.145L385.21 152.353L385.105 152.263Z" fill="#0057E0"/>
<path d="M281.9 159.175C281.774 158.316 281.603 157.465 281.387 156.624V156.458C281.266 156.051 281.16 155.689 281.039 155.341L265.705 150.376H265.6C266.548 153.695 266.961 157.144 266.822 160.594C266.774 163.283 266.976 165.971 267.426 168.623C268.377 173.302 270.444 179.565 275.274 182.931L282.247 185.195C284.909 186.314 287.667 187.188 290.488 187.806C289.709 186.869 288.861 185.991 287.952 185.18C287.037 184.084 286.247 182.889 285.598 181.618C284.349 179.109 283.48 176.428 283.017 173.664C282.096 168.985 282.609 163.929 281.9 159.175Z" fill="#0057E0"/>
<path d="M538.93 165.212C538.647 162.85 538.141 160.521 537.421 158.254C536.033 154.285 533.391 149.063 528.803 146.708C526.66 146.331 517.197 144.263 514.857 144.339C516.487 146.044 518.495 147.116 519.929 149.138C521.374 151.227 522.484 153.528 523.219 155.96C524.728 160.911 524.728 166.721 527.067 171.385L527.158 171.581L541.179 174.041C539.962 171.237 539.203 168.256 538.93 165.212Z" fill="#0057E0"/>
<path d="M444.932 252.131C444.641 249.776 444.136 247.452 443.422 245.189C442.019 241.219 439.393 235.997 434.804 233.643L420.783 231.183V231.288C423.547 232.882 425.802 235.227 427.288 238.05C428.711 240.61 429.729 243.374 430.307 246.245C431.137 250.215 431.333 254.365 433.008 258.063C433.06 258.201 433.142 258.325 433.25 258.425C433.402 258.542 433.586 258.611 433.778 258.621L438.019 259.361L442.954 260.221L447.271 260.976H447.346C446.07 258.177 445.255 255.19 444.932 252.131Z" fill="#0057E0"/>
<path d="M408.877 306.646L403.685 303.869L400.002 308.578L400.168 308.669C399.109 308.427 398.024 308.321 396.939 308.352H397.105L394.433 302.994L388.789 304.699L389.528 310.646H389.694C388.783 311.237 387.942 311.931 387.189 312.713L387.279 312.547L381.589 310.661L378.812 315.853L383.521 319.535L383.612 319.369C383.385 320.431 383.279 321.514 383.295 322.599V322.418L377.952 325.105L379.657 330.749L385.589 330.01V329.829C386.166 330.75 386.856 331.597 387.641 332.349L387.475 332.259L385.589 337.933L390.781 340.726L394.463 336.002L394.297 335.911C395.357 336.15 396.441 336.262 397.527 336.243H397.361L400.033 341.601L405.677 339.895L404.938 333.949H404.772C405.679 333.358 406.519 332.67 407.277 331.896L407.202 332.062L412.877 333.949L415.654 328.742L410.945 325.059L410.854 325.225C411.081 324.164 411.187 323.081 411.171 321.995V322.177L416.514 319.505L414.808 313.86L408.877 314.585V314.766C408.3 313.844 407.61 312.998 406.824 312.246L406.99 312.336L408.877 306.646Z" fill="#25282B"/>
<path d="M390.933 311.928C396.637 308.481 404.055 310.308 407.507 316.01C410.958 321.711 409.137 329.131 403.438 332.587C397.739 336.042 390.318 334.227 386.858 328.53C385.193 325.789 384.687 322.499 385.451 319.384C386.216 316.269 388.188 313.587 390.933 311.928Z" fill="white"/>
<path d="M389.919 316.773C392.911 312.767 398.585 311.944 402.592 314.936C406.599 317.927 407.423 323.6 404.432 327.608C401.442 331.616 395.769 332.441 391.76 329.451C389.834 328.015 388.558 325.872 388.213 323.494C387.867 321.116 388.481 318.698 389.919 316.773Z" fill="#1DEBCE"/>
<path d="M393.784 316.924C396.717 315.06 400.605 315.926 402.47 318.858C404.335 321.79 403.471 325.679 400.54 327.545C397.608 329.411 393.719 328.548 391.852 325.618C390.954 324.209 390.654 322.501 391.016 320.871C391.378 319.24 392.374 317.82 393.784 316.924Z" fill="white"/>
<rect x="115.881" y="47.1724" width="12.9647" height="9.9914" fill="#25282B"/>
<path fill-rule="evenodd" clip-rule="evenodd" d="M115.667 57.3743H129.039V46.9753H115.667V57.3743ZM128.632 56.9817H116.075V47.3827H128.632V56.9817Z" fill="#25282B"/>
<path d="M135.995 29.4679C136.649 21.9659 131.098 15.3539 123.596 14.6996C116.094 14.0453 109.482 19.5964 108.828 27.0983C108.085 31.6347 109.516 36.2568 112.692 39.58C114.656 41.5497 115.771 44.2093 115.801 46.9906V47.1868H128.765V47.066C128.766 44.2877 129.849 41.6188 131.784 39.6253C134.468 36.9243 135.98 33.2754 135.995 29.4679Z" fill="#1DEBCE"/>
<path fill-rule="evenodd" clip-rule="evenodd" d="M115.622 47.4279H129.084L129.024 47.0657C129.041 44.3394 130.124 41.7281 132.043 39.791L132.329 39.4891C134.984 36.5673 136.369 32.7105 136.179 28.7675C135.989 24.8246 134.241 21.1185 131.318 18.4649C128.448 15.8688 124.596 14.6414 120.753 15.0992C114.51 15.9382 109.581 20.8179 108.679 27.0527C107.904 31.6663 109.359 36.3745 112.603 39.7457C114.513 41.6763 115.596 44.2748 115.622 46.9902V47.4279ZM128.586 46.9304H116.119H116.074C116.063 44.0816 114.936 41.3506 112.935 39.3236C109.807 36.0602 108.408 31.5099 109.161 27.0532C110.025 21.0399 114.777 16.3314 120.798 15.5224C124.516 15.0666 128.248 16.2448 131.031 18.7522L131.318 19.0239C134.072 21.6696 135.662 25.3012 135.738 29.1195C135.815 32.9379 134.371 36.6302 131.725 39.384C129.736 41.3951 128.61 44.1023 128.586 46.9304Z" fill="#1DEBCE"/>
<path d="M117.781 28.1396C118.505 28.1396 118.853 28.7434 119.154 29.2867C119.456 29.83 119.683 30.1772 120.075 30.1772C120.467 30.1772 120.679 29.8451 120.996 29.2867C121.313 28.7283 121.645 28.1396 122.369 28.1396C123.094 28.1396 123.426 28.7434 123.727 29.2867C124.029 29.83 124.256 30.1772 124.648 30.1772C125.041 30.1772 125.267 29.8451 125.569 29.2867C125.871 28.7283 126.218 28.1396 126.927 28.1396C127.637 28.1396 127.984 28.7434 128.301 29.2867C128.618 29.83 128.829 30.1772 129.221 30.1772C129.363 30.1772 129.478 30.292 129.478 30.4337C129.478 30.5755 129.363 30.6903 129.221 30.6903C128.497 30.6903 128.165 30.0866 127.863 29.5433C127.561 28.9999 127.335 28.6528 126.942 28.6528C126.55 28.6528 126.323 28.9848 126.006 29.5433C125.69 30.1017 125.373 30.6903 124.648 30.6903C123.924 30.6903 123.592 30.0866 123.29 29.5433C122.988 28.9999 122.762 28.6528 122.369 28.6528C121.977 28.6528 121.765 28.9848 121.448 29.5433C121.132 30.1017 120.815 30.6903 120.09 30.6903C119.366 30.6903 119.034 30.0866 118.717 29.5433C118.4 28.9999 118.188 28.6528 117.796 28.6528C117.404 28.6528 117.177 28.9848 116.875 29.5433C116.574 30.1017 116.226 30.6903 115.502 30.6903C115.36 30.6903 115.245 30.5755 115.245 30.4337C115.245 30.292 115.36 30.1772 115.502 30.1772C115.894 30.1772 116.121 29.8451 116.423 29.2867C116.724 28.7283 117.072 28.1396 117.781 28.1396Z" fill="white"/>
<path d="M122.837 38.4934H121.886C121.143 38.4826 120.503 39.014 120.376 39.7461V47.1869H124.452V39.7461C124.321 38.9722 123.619 38.4275 122.837 38.4934Z" fill="white"/>
<path d="M121.098 39.746C120.983 39.7461 120.876 39.6897 120.811 39.5951L114.955 30.6149C114.86 30.4558 114.906 30.2497 115.061 30.147C115.215 30.0531 115.417 30.1 115.513 30.2527L121.369 39.2329C121.421 39.3065 121.44 39.3978 121.423 39.4859C121.406 39.5741 121.354 39.6516 121.279 39.7007C121.219 39.7143 121.157 39.7143 121.098 39.7007V39.746Z" fill="white"/>
<path d="M123.623 39.7459C123.563 39.7594 123.501 39.7594 123.442 39.7459C123.366 39.6967 123.314 39.6192 123.297 39.5311C123.28 39.4429 123.3 39.3516 123.351 39.278L129.192 30.2978C129.29 30.1378 129.497 30.0843 129.66 30.1771C129.811 30.2739 129.864 30.4704 129.781 30.6298L123.925 39.61C123.853 39.7034 123.74 39.7546 123.623 39.7459Z" fill="white"/>
<path d="M136.771 6.25511C137.073 5.67935 136.859 4.96765 136.288 4.65528C135.751 4.39211 135.102 4.57391 134.779 5.07788L131.579 10.6169C131.316 11.1543 131.498 11.8036 132.002 12.1262C132.539 12.3894 133.189 12.2076 133.511 11.7036L136.771 6.25511Z" fill="#1DEBCE"/>
<path fill-rule="evenodd" clip-rule="evenodd" d="M131.187 11.5527C131.377 12.1588 131.926 12.5811 132.56 12.6092C133.067 12.6133 133.535 12.3415 133.783 11.8998L136.982 6.37588C137.173 6.04813 137.224 5.65789 137.125 5.29214C137.025 4.9264 136.784 4.61556 136.454 4.42891C136.131 4.2381 135.744 4.18498 135.381 4.28142C135.018 4.37786 134.709 4.61582 134.522 4.94207L131.323 10.4811C131.129 10.8036 131.08 11.1922 131.187 11.5527ZM135.503 4.73063H135.699C135.901 4.69149 136.111 4.72915 136.288 4.83628C136.503 4.95666 136.662 5.15884 136.727 5.3973C136.793 5.63576 136.759 5.89047 136.635 6.10407L133.435 11.628C133.173 12.0656 132.61 12.2132 132.167 11.9601C131.958 11.8368 131.806 11.6362 131.745 11.4016C131.647 11.1805 131.647 10.9285 131.745 10.7074L134.944 5.16832C135.071 4.95976 135.27 4.80429 135.503 4.73063Z" fill="#1DEBCE"/>
<path d="M146.141 16.4279C146.702 16.1054 146.897 15.3911 146.579 14.8281C146.429 14.5532 146.175 14.3501 145.874 14.2649C145.573 14.1797 145.25 14.2195 144.979 14.3753L139.44 17.5599C138.93 17.878 138.747 18.5325 139.017 19.0692C139.326 19.5909 139.987 19.7826 140.527 19.5069L146.141 16.4279Z" fill="#1DEBCE"/>
<path fill-rule="evenodd" clip-rule="evenodd" d="M139.652 20.08C139.777 20.0958 139.904 20.0958 140.029 20.08C140.268 20.0947 140.507 20.048 140.723 19.9442L146.263 16.7445C146.59 16.5553 146.828 16.2434 146.924 15.8778C147.021 15.5123 146.967 15.1234 146.776 14.7975C146.589 14.4713 146.28 14.2333 145.917 14.1369C145.554 14.0404 145.167 14.0936 144.844 14.2844L139.305 17.469C138.99 17.6661 138.759 17.9724 138.656 18.3292C138.493 19.0814 138.922 19.8358 139.652 20.08ZM145.085 14.6609C145.224 14.5841 145.379 14.5427 145.538 14.5402V14.5704C145.617 14.5485 145.7 14.5485 145.779 14.5704C146.018 14.6307 146.223 14.7845 146.348 14.9973C146.473 15.2101 146.507 15.4641 146.443 15.7023C146.385 15.9428 146.225 16.1463 146.006 16.2608L140.482 19.4604C140.271 19.5793 140.022 19.6118 139.787 19.551C139.541 19.4873 139.333 19.323 139.214 19.0982C138.972 18.6637 139.119 18.1158 139.546 17.8606L145.085 14.6609Z" fill="#1DEBCE"/>
<path d="M149.129 27.6728H142.715C142.073 27.6728 141.553 28.1931 141.553 28.8349C141.548 29.1444 141.67 29.4423 141.888 29.6612C142.107 29.88 142.405 30.0011 142.715 29.997H149.129C149.779 29.997 150.306 29.47 150.306 28.8198C150.31 28.509 150.19 28.2095 149.971 27.9883C149.753 27.7671 149.455 27.6426 149.144 27.6426L149.129 27.6728Z" fill="#1DEBCE"/>
<path fill-rule="evenodd" clip-rule="evenodd" d="M142.716 30.2679H149.13C149.914 30.2679 150.549 29.6327 150.549 28.8491C150.549 28.0656 149.914 27.4304 149.13 27.4304H142.716C141.932 27.4304 141.297 28.0656 141.297 28.8491C141.297 29.6327 141.932 30.2679 142.716 30.2679ZM142.061 28.1927C142.234 28.0192 142.471 27.9235 142.716 27.9276H149.146C149.654 27.9276 150.066 28.3398 150.066 28.8483C150.066 29.0965 149.968 29.3345 149.792 29.51C149.617 29.6855 149.379 29.784 149.13 29.784H142.716C142.205 29.7758 141.795 29.3593 141.795 28.8483C141.791 28.6029 141.887 28.3663 142.061 28.1927Z" fill="#1DEBCE"/>
<path d="M144.964 43.2476C145.23 43.4071 145.549 43.4538 145.849 43.3773C146.15 43.3008 146.407 43.1074 146.564 42.8401C146.725 42.5719 146.772 42.2511 146.695 41.9482C146.619 41.6453 146.425 41.3852 146.157 41.2252L140.618 38.0255C140.081 37.7549 139.427 37.9381 139.109 38.4481C138.798 39.0037 138.985 39.7058 139.531 40.0328L144.964 43.2476Z" fill="#1DEBCE"/>
<path fill-rule="evenodd" clip-rule="evenodd" d="M144.827 43.4136C145.045 43.5313 145.289 43.5935 145.537 43.5948C146.188 43.6092 146.765 43.1782 146.937 42.5497C147.108 41.9212 146.83 41.2567 146.261 40.9384L140.722 37.7539C140.399 37.5631 140.012 37.5099 139.649 37.6064C139.286 37.7028 138.977 37.9408 138.79 38.267C138.599 38.5929 138.545 38.9818 138.642 39.3473C138.738 39.7128 138.976 40.0248 139.303 40.214L144.827 43.4136ZM139.789 38.0559H140.03V38.1163C140.181 38.0902 140.337 38.1006 140.483 38.1464L146.007 41.3461C146.449 41.6003 146.601 42.1646 146.347 42.6063C146.092 43.0481 145.528 43.2002 145.086 42.9459L139.547 39.7614C139.35 39.6289 139.206 39.4312 139.14 39.2029C139.004 38.7072 139.294 38.1952 139.789 38.0559Z" fill="#1DEBCE"/>
<path d="M98.5822 41.2248C98.1002 41.582 97.9638 42.2445 98.2656 42.763C98.5674 43.2814 99.2108 43.49 99.7595 43.2473L105.298 40.0627C105.845 39.7356 106.032 39.0336 105.721 38.478C105.408 37.9625 104.752 37.7724 104.212 38.0403L98.5822 41.2248Z" fill="#1DEBCE"/>
<path fill-rule="evenodd" clip-rule="evenodd" d="M98.1677 43.179C98.4338 43.4451 98.7946 43.5945 99.1709 43.5945C99.4205 43.5927 99.6652 43.525 99.8803 43.3983L105.419 40.1987C105.743 40.0099 105.978 39.6995 106.071 39.3366C106.165 38.9738 106.109 38.5885 105.917 38.2668C105.734 37.9416 105.427 37.7038 105.067 37.6073C104.706 37.5107 104.322 37.5635 104.001 37.7536L98.4616 40.9382C98.0328 41.2059 97.7665 41.6705 97.7522 42.1758C97.7522 42.5521 97.9017 42.9129 98.1677 43.179ZM104.244 38.1761C104.383 38.0993 104.538 38.0578 104.697 38.0554L104.938 38.0856C105.182 38.1541 105.389 38.317 105.512 38.5383C105.755 38.9774 105.609 39.5301 105.18 39.791L99.6409 42.9756C99.4275 43.1036 99.1702 43.1364 98.9315 43.0662C98.6951 43.0026 98.4937 42.8474 98.3719 42.635C98.2501 42.4226 98.2179 42.1704 98.2825 41.9342C98.3413 41.6938 98.5008 41.4903 98.7202 41.3758L104.244 38.1761Z" fill="#1DEBCE"/>
<path d="M103.173 28.8335C103.173 28.1975 102.662 27.6796 102.026 27.6714H95.5963C94.9461 27.6714 94.419 28.1985 94.419 28.8486C94.415 29.1594 94.5357 29.4589 94.754 29.6802C94.9724 29.9014 95.2703 30.0259 95.5812 30.0259H102.026C102.659 30.0259 103.173 29.5123 103.173 28.8788V28.8335Z" fill="#1DEBCE"/>
<path fill-rule="evenodd" clip-rule="evenodd" d="M95.596 30.2679H102.01C102.392 30.2764 102.76 30.1275 103.028 29.8563C103.297 29.5851 103.442 29.2154 103.429 28.834C103.429 28.0588 102.801 27.4304 102.025 27.4304H95.596C94.8124 27.4304 94.1772 28.0656 94.1772 28.8491C94.1772 29.6327 94.8124 30.2679 95.596 30.2679ZM94.9367 28.1927C95.1126 28.0196 95.3507 27.9244 95.5975 27.9284L102.012 27.9586C102.252 27.9586 102.482 28.054 102.652 28.2239C102.822 28.3937 102.917 28.624 102.917 28.8642C102.91 29.3636 102.511 29.7688 102.012 29.7848H95.5975C95.0873 29.7691 94.6774 29.3592 94.6617 28.8491C94.6617 28.6023 94.7607 28.3658 94.9367 28.1927Z" fill="#1DEBCE"/>
<path d="M99.7623 14.4519C99.4882 14.3014 99.1655 14.2662 98.8654 14.354C98.5652 14.4417 98.3123 14.6453 98.1625 14.9198C97.9133 15.4584 98.0925 16.0982 98.5851 16.4291L104.124 19.6137C104.66 19.892 105.32 19.7073 105.633 19.1911C105.897 18.6537 105.715 18.0044 105.211 17.6818L99.7623 14.4519Z" fill="#1DEBCE"/>
<path fill-rule="evenodd" clip-rule="evenodd" d="M104.002 19.8992C104.214 20.0187 104.453 20.0811 104.696 20.0803C105.193 20.0644 105.65 19.8048 105.919 19.3861C106.281 18.7012 106.066 17.8532 105.421 17.424L99.8815 14.2394C99.442 13.986 98.9008 13.9863 98.4616 14.2402C98.0224 14.494 97.7519 14.9629 97.7522 15.4702C97.7525 15.9775 98.0233 16.4461 98.4628 16.6996L104.002 19.8992ZM98.9334 14.5413C99.0132 14.5266 99.0951 14.5266 99.1749 14.5413C99.3382 14.5438 99.4986 14.5851 99.6428 14.6621L105.167 17.8617C105.377 17.9843 105.528 18.186 105.588 18.4216C105.648 18.6572 105.61 18.9068 105.484 19.1144C105.229 19.5426 104.676 19.6843 104.246 19.4314L98.707 16.2468C98.4971 16.1176 98.3456 15.912 98.2844 15.6733C98.2198 15.4371 98.252 15.1849 98.3737 14.9725C98.4955 14.7601 98.6969 14.6049 98.9334 14.5413Z" fill="#1DEBCE"/>
<path d="M110.038 5.07882C109.704 4.52314 108.992 4.32995 108.423 4.64113C108.152 4.79865 107.955 5.05763 107.876 5.36074C107.797 5.66385 107.841 5.98607 108 6.25606L111.185 11.7951C111.512 12.3413 112.214 12.5285 112.77 12.2177C113.285 11.9047 113.48 11.2532 113.223 10.7084L110.038 5.07882Z" fill="#1DEBCE"/>
<path fill-rule="evenodd" clip-rule="evenodd" d="M110.929 11.915C111.198 12.3337 111.655 12.5934 112.152 12.6093C112.412 12.6039 112.667 12.5311 112.891 12.398C113.217 12.2147 113.454 11.9081 113.551 11.5475C113.647 11.1868 113.595 10.8025 113.404 10.4812L110.205 4.95727C110.023 4.62584 109.711 4.38519 109.345 4.29318C108.789 4.14129 108.196 4.34058 107.845 4.79749C107.494 5.2544 107.455 5.87819 107.745 6.37598L110.929 11.915ZM108.048 5.66602C108.048 5.14922 108.467 4.73027 108.984 4.73027C109.314 4.73694 109.616 4.91401 109.784 5.19814L112.968 10.7372C113.096 10.9453 113.129 11.1977 113.059 11.4315C112.997 11.6579 112.852 11.8522 112.652 11.9748C112.44 12.1067 112.185 12.1474 111.943 12.0877C111.701 12.028 111.494 11.8729 111.369 11.6578L108.169 6.13389C108.094 5.98916 108.052 5.82913 108.048 5.66602Z" fill="#1DEBCE"/>
<path d="M122.37 9.66684C123.011 9.65893 123.531 9.14557 123.547 8.5047V2.07518C123.547 1.42502 123.02 0.897949 122.37 0.897949C121.72 0.897949 121.193 1.42502 121.193 2.07518V8.5047C121.193 9.14653 121.713 9.66684 122.355 9.66684H122.37Z" fill="#1DEBCE"/>
<path fill-rule="evenodd" clip-rule="evenodd" d="M120.966 8.50401C120.966 9.27921 121.594 9.90764 122.369 9.90764H122.4C123.177 9.90768 123.81 9.28165 123.818 8.50401V2.0745C123.743 1.34337 123.127 0.787598 122.392 0.787598C121.657 0.787598 121.041 1.34337 120.966 2.0745V8.50401ZM122.358 1.15396C122.362 1.15391 122.366 1.15389 122.369 1.15389H122.354C122.356 1.15391 122.357 1.15394 122.358 1.15396ZM122.358 1.15396C121.855 1.16004 121.449 1.56988 121.449 2.07455V8.50406C121.449 9.00419 121.854 9.40963 122.354 9.40963C122.854 9.40963 123.26 9.00419 123.26 8.50406V2.07455C123.26 1.57317 122.859 1.16416 122.358 1.15396Z" fill="#1DEBCE"/>
<path d="M498.712 31.2485H510.666V90.4876H498.712V31.2485Z" fill="white"/>
<path fill-rule="evenodd" clip-rule="evenodd" d="M498.362 90.8352H511.01V30.9019H498.362V90.8352ZM510.317 90.1409H499.057V31.5961H510.317V90.1409Z" fill="#0057E0"/>
<path d="M483.303 50.7329H495.257V90.4872H483.303V50.7329Z" fill="white"/>
<path fill-rule="evenodd" clip-rule="evenodd" d="M482.956 90.8351H495.603V50.3865H482.956V90.8351ZM494.91 90.1408H483.651V51.1411H494.91V90.1408Z" fill="#0057E0"/>
<path d="M467.891 62.3701H479.845V90.4879H467.891V62.3701Z" fill="white"/>
<path fill-rule="evenodd" clip-rule="evenodd" d="M467.545 90.835H480.193V62.0229H467.545V90.835ZM479.499 90.1406H468.24V62.7171H479.499V90.1406Z" fill="#0057E0"/>
<path d="M452.481 72.105H464.45V90.488H452.481V72.105Z" fill="white"/>
<path fill-rule="evenodd" clip-rule="evenodd" d="M452.134 90.8351H464.797V71.7578H452.134V90.8351ZM464.105 90.1407H452.83V72.4369H464.105V90.1407Z" fill="#0057E0"/>
<path d="M437.073 79.6206H449.042V90.4874H437.073V79.6206Z" fill="white"/>
<path fill-rule="evenodd" clip-rule="evenodd" d="M436.724 90.8352H449.387V79.2742H436.724V90.8352ZM448.693 90.141H437.418V79.9685H448.693V90.141Z" fill="#0057E0"/>
<path d="M534.856 93.8536L525.348 91.3029V93.2197H434.535V30.6602H436.572L433.901 20.699L431.229 30.6602H433.267V94.4874H525.333V96.4193L534.856 93.8536Z" fill="#25282B"/>
<path d="M131.382 365.342L117.089 400.81L141.841 414.243L156.224 374.896C158.485 368.7 155.873 361.782 150.082 358.626C146.971 356.927 143.312 356.537 139.913 357.542C136.514 358.548 133.656 360.866 131.97 363.984C131.75 364.426 131.554 364.879 131.382 365.342Z" fill="white"/>
<path fill-rule="evenodd" clip-rule="evenodd" d="M116.652 400.961L142.023 414.725L156.557 375.016C159.262 367.977 155.748 360.078 148.709 357.373C141.669 354.668 133.77 358.182 131.065 365.221L116.652 400.961ZM141.676 413.744L117.527 400.644L131.775 365.478C134.635 359.266 141.827 356.344 148.209 358.801C154.591 361.258 157.967 368.249 155.923 374.775L141.676 413.744Z" fill="#25282B"/>
<path d="M122.917 384.691L116.88 399.467C116.503 400.394 116.879 401.458 117.755 401.942L160.905 425.351C161.86 425.867 163.053 425.517 163.577 424.566L163.667 424.355C167.276 415.37 163.576 405.108 155.064 400.493L148.107 396.72C138.777 396.374 130.084 391.901 124.381 384.51C124.254 384.336 124.063 384.22 123.85 384.189C123.637 384.157 123.42 384.213 123.249 384.344C123.108 384.426 122.993 384.547 122.917 384.691Z" fill="#0057E0"/>
<path d="M193.657 297.862C193.595 296.216 193.311 294.587 192.812 293.017C192.766 292.844 192.71 292.672 192.646 292.504C192.654 292.449 192.654 292.393 192.646 292.338C191.861 290.068 190.635 287.976 189.039 286.18L188.737 285.909C187.948 285.052 187.079 284.274 186.141 283.584L185.733 283.222L128.819 232.51L104.006 254.304L152.997 302.601L121.74 371.545L158.415 391.437L191.499 307.355L191.695 306.857C192.123 306.005 192.486 305.123 192.782 304.216C192.782 304.035 192.902 303.854 192.948 303.658L193.114 303.25C193.556 301.49 193.739 299.675 193.657 297.862Z" fill="white"/>
<path fill-rule="evenodd" clip-rule="evenodd" d="M121.226 371.726L158.52 391.966L191.694 307.537L191.906 307.024C192.338 306.156 192.707 305.258 193.007 304.337L193.173 303.809L193.339 303.386C193.804 301.588 194.007 299.733 193.943 297.877C193.868 296.202 193.579 294.544 193.083 292.942C193.066 292.882 193.04 292.819 193.013 292.756C192.966 292.644 192.917 292.529 192.917 292.414V292.263C192.105 289.94 190.849 287.798 189.219 285.954L188.932 285.697C188.13 284.839 187.251 284.056 186.306 283.358L128.758 232.043L103.432 254.289L152.514 302.707L121.226 371.726ZM158.173 391.045L122.131 371.424L153.283 302.933L153.389 302.707L104.488 254.41L128.787 233.069L185.476 283.584L185.898 283.947C186.825 284.639 187.688 285.412 188.479 286.256L188.751 286.497C190.309 288.264 191.513 290.313 192.298 292.534V292.685C192.362 292.853 192.417 293.025 192.464 293.199C192.946 294.74 193.22 296.339 193.279 297.953C193.357 299.722 193.169 301.492 192.72 303.205L192.554 303.673L192.373 304.216C192.083 305.112 191.724 305.985 191.302 306.827L191.12 307.295L158.173 391.045Z" fill="#25282B"/>
<path d="M71.5092 387.936L64.5364 425.517L91.4619 433.773L97.7555 392.358C98.7484 385.837 94.8107 379.574 88.5037 377.643C81.4819 375.506 74.0552 379.455 71.9016 386.472C71.7406 386.951 71.6096 387.44 71.5092 387.936Z" fill="white"/>
<path fill-rule="evenodd" clip-rule="evenodd" d="M64.1294 425.774L91.7491 434.225L98.0428 392.403C99.2931 384.968 94.2793 377.927 86.844 376.677C79.4087 375.426 72.3677 380.44 71.1173 387.876L64.1294 425.472V425.774ZM91.1735 433.32L64.9272 425.291L71.8548 387.996C73.2545 381.151 79.8269 376.646 86.7162 377.81C93.6056 378.974 98.3335 385.388 97.4069 392.313L91.1735 433.32Z" fill="#25282B"/>
<path d="M67.1476 408.583L64.129 424.279C63.9376 425.262 64.5164 426.231 65.4723 426.528L112.411 440.912C112.907 441.067 113.445 441.017 113.904 440.773C114.363 440.529 114.706 440.112 114.856 439.614C114.863 439.538 114.863 439.463 114.856 439.387C116.606 429.869 110.947 420.55 101.695 417.714L94.1485 415.39C84.942 416.905 75.5387 414.244 68.4908 408.13C68.168 407.814 67.6515 407.814 67.3287 408.13C67.2266 408.261 67.1638 408.418 67.1476 408.583Z" fill="#0057E0"/>
<path d="M117.029 318.645C114.304 327.712 105.092 333.185 95.8262 331.242C86.56 329.299 80.3228 320.587 81.47 311.189C81.6327 309.895 81.926 308.621 82.3454 307.386C85.3141 298.784 94.1711 293.688 103.1 295.445C112.029 297.201 118.295 305.273 117.783 314.359C117.707 315.813 117.454 317.252 117.029 318.645Z" fill="#25282B"/>
<path d="M99.8409 229.627L82.0164 307.264L81.1108 311.158L61.7317 395.497L101.622 407.722L117.364 318.674L118.133 314.328L132.894 231.016L99.8409 229.627Z" fill="white"/>
<path fill-rule="evenodd" clip-rule="evenodd" d="M61.3235 395.739L101.893 408.175L117.725 318.826L118.495 314.464L133.316 230.79L99.5836 229.281L61.399 395.422L61.3235 395.739ZM101.375 407.345L62.1339 395.271L100.153 230.111L132.527 231.514L117.826 314.419L101.375 407.345Z" fill="#25282B"/>
<path d="M208.146 246.864L197.324 244.872L173.176 215.712C168.406 210.322 160.22 209.688 154.676 214.279C149.132 218.869 148.229 227.03 152.635 232.722L177.659 262.908C181.506 267.56 187.998 269.049 193.488 266.539C198.978 264.029 202.099 258.145 201.098 252.192L206.954 253.278C207.806 253.437 208.687 253.249 209.401 252.756C210.115 252.263 210.603 251.506 210.757 250.652C211.088 248.877 209.92 247.169 208.146 246.834V246.864Z" fill="white"/>
<path fill-rule="evenodd" clip-rule="evenodd" d="M185.852 267.949C186.561 268.061 187.278 268.122 187.996 268.13L187.935 268.145C194.702 268.174 200.474 263.254 201.519 256.569C201.707 255.283 201.707 253.976 201.519 252.69L206.892 253.686C208.859 254.053 210.751 252.755 211.118 250.788C211.484 248.821 210.187 246.929 208.22 246.562L197.519 244.57L173.461 215.516L173.235 215.26C168.296 209.939 160.063 209.399 154.472 214.029C148.88 218.658 147.875 226.847 152.18 232.692L177.416 263.179L177.657 263.421C179.766 265.854 182.67 267.458 185.852 267.949ZM177.976 262.726L177.735 262.469L153.315 232.827L153.103 232.555C148.519 227.033 149.279 218.84 154.801 214.255C160.324 209.671 168.517 210.431 173.101 215.953L173.222 216.074L197.265 245.082V245.188L208.207 247.211C209.799 247.506 210.85 249.037 210.554 250.629C210.258 252.221 208.728 253.272 207.135 252.976L200.797 251.799V252.282C201.769 258.077 198.732 263.804 193.389 266.249C188.046 268.695 181.726 267.25 177.976 262.726Z" fill="#25282B"/>
<path d="M154.128 184.395L154.007 184.199V184.093L153.826 183.776C149.746 178.043 141.914 176.464 135.931 180.169C129.948 183.875 127.872 191.59 131.187 197.797L151.819 231.167L171.681 213.056L154.128 184.395Z" fill="white"/>
<path fill-rule="evenodd" clip-rule="evenodd" d="M130.568 197.692L151.592 231.711L171.892 213.162L154.354 184.244V184.169L154.263 184.033L153.81 183.324C149.634 177.422 141.588 175.785 135.438 179.587C129.288 183.389 127.155 191.318 130.568 197.692ZM151.743 230.624L131.518 197.918L131.413 197.556C128.201 191.499 130.247 183.989 136.088 180.398C141.928 176.807 149.554 178.372 153.508 183.973L153.78 184.38V184.486L171.092 213.011L151.743 230.624Z" fill="#25282B"/>
<path d="M154.19 193.526V193.39V188.968C154.162 186.011 152.96 183.187 150.848 181.117C148.736 179.048 145.887 177.903 142.931 177.935L98.0298 178.388C95.0744 178.412 92.25 179.611 90.18 181.721C88.1101 183.83 86.9648 186.677 86.997 189.632V194.054C87.0146 195.864 87.4759 197.641 88.3403 199.231L96.9884 242.14L139.55 241.581L152.334 199.699C153.551 197.871 154.197 195.722 154.19 193.526Z" fill="#25282B"/>
<path d="M115.122 170.901L127.438 169.211L128.751 178.734C129.226 182.135 126.854 185.277 123.453 185.753C120.053 186.218 116.918 183.84 116.45 180.44L115.122 170.901Z" fill="white"/>
<path fill-rule="evenodd" clip-rule="evenodd" d="M116.09 180.486C116.547 183.731 119.318 186.148 122.595 186.161V186.1C122.891 186.115 123.189 186.115 123.485 186.1C127.08 185.601 129.592 182.286 129.1 178.69L127.741 168.819L114.731 170.615L116.09 180.486ZM116.782 180.395L115.515 171.204L127.136 169.604L128.404 178.78C128.715 181.918 126.492 184.741 123.37 185.175C120.247 185.609 117.339 183.499 116.782 180.395Z" fill="#25282B"/>
<path d="M117.177 140.384C124.503 139.382 131.256 144.501 132.27 151.825L133.372 159.794C134.374 167.119 129.255 173.872 121.932 174.886C114.606 175.889 107.853 170.77 106.839 163.446L105.737 155.477C104.735 148.152 109.854 141.399 117.177 140.384Z" fill="white"/>
<path fill-rule="evenodd" clip-rule="evenodd" d="M106.509 163.507C107.436 170.299 113.236 175.365 120.092 175.369C120.708 175.372 121.323 175.331 121.933 175.249C129.447 174.196 134.696 167.267 133.675 159.748L132.574 151.779C132.242 146.638 129.064 142.113 124.34 140.057C119.615 138.001 114.138 138.759 110.149 142.02C106.161 145.281 104.33 150.499 105.407 155.538L106.509 163.507ZM133.042 159.839C134.018 166.975 129.037 173.556 121.904 174.554C114.765 175.539 108.179 170.554 107.188 163.416L106.086 155.432C105.339 148.418 110.299 142.079 117.286 141.116C124.274 140.153 130.763 144.915 131.94 151.87L133.042 159.839Z" fill="#25282B"/>
<path d="M133.086 134.377C132.216 132.242 130.533 130.539 128.407 129.645C126.281 128.75 123.887 128.737 121.752 129.608L109.677 134.498C106.06 135.971 103.869 139.674 104.32 143.554L103.776 143.795C100.973 145.023 98.7732 147.315 97.6606 150.165C96.5481 153.016 96.6143 156.192 97.8447 158.994L100.577 165.227C101.473 167.276 103.148 168.884 105.232 169.697C107.316 170.51 109.638 170.46 111.685 169.559C114.54 168.304 115.842 164.977 114.598 162.118L112.937 155.779L114.703 155.583C117.061 155.315 118.757 153.187 118.492 150.829L118.371 149.712L128.257 145.697C132.7 143.872 134.832 138.798 133.026 134.347L133.086 134.377Z" fill="#25282B"/>
<path d="M117.283 156.201L117.796 159.854C117.903 160.553 117.726 161.266 117.303 161.834C116.881 162.401 116.248 162.775 115.547 162.872C114.848 162.98 114.134 162.803 113.567 162.38C112.999 161.957 112.625 161.324 112.528 160.623L112.015 156.956C111.903 156.256 112.079 155.54 112.502 154.972C112.926 154.403 113.561 154.03 114.264 153.937C114.967 153.821 115.687 153.997 116.257 154.425C116.827 154.852 117.197 155.494 117.283 156.201Z" fill="white"/>
<path fill-rule="evenodd" clip-rule="evenodd" d="M112.228 160.624C112.449 162.084 113.694 163.169 115.171 163.189L115.593 163.174C117.218 162.933 118.351 161.438 118.144 159.809L117.631 156.156C117.662 154.96 116.983 153.859 115.901 153.349C114.819 152.839 113.537 153.016 112.634 153.8C111.731 154.585 111.376 155.828 111.73 156.971L112.228 160.624ZM115.451 162.279C114.275 162.44 113.17 161.676 112.905 160.518V160.533L112.407 156.866C112.398 156.795 112.398 156.725 112.407 156.654C112.207 155.783 112.532 154.875 113.239 154.327C113.946 153.78 114.907 153.694 115.7 154.106C116.493 154.518 116.975 155.354 116.934 156.247L117.432 159.899C117.488 161.086 116.628 162.118 115.451 162.279Z" fill="#25282B"/>
<path d="M275.611 236.102L240.46 240.011L206.803 243.754C191.548 245.402 177.823 234.424 176.08 219.178C174.338 203.933 185.23 190.141 200.465 188.303H200.646L234.755 184.515L269.906 180.621L267.431 156.472L232.265 160.381L197.959 164.185C179.416 166.245 163.38 178.041 155.892 195.13C148.404 212.219 150.601 232.005 161.657 247.034C172.713 262.063 190.946 270.053 209.49 267.993L242.951 264.265L278.102 260.371L275.611 236.102Z" fill="#1DEBCE"/>
<path fill-rule="evenodd" clip-rule="evenodd" d="M151.336 218.902C152.866 246.719 175.833 268.512 203.692 268.582C205.624 268.58 207.553 268.474 209.473 268.265L278.417 260.598L275.866 235.725L206.711 243.408C191.617 245.011 178.069 234.108 176.406 219.021C174.744 203.934 185.593 190.342 200.674 188.621L270.282 180.893L267.731 156.021L197.927 163.778C170.243 166.904 149.806 191.084 151.336 218.902ZM197.971 164.458L267.081 156.79L269.496 180.26L200.582 187.927C190.48 188.956 181.708 195.328 177.604 204.616C173.5 213.904 174.696 224.68 180.737 232.843C186.778 241.005 196.734 245.298 206.816 244.087L275.277 236.541L277.691 260.025L209.412 267.571C181.019 270.584 155.53 250.085 152.382 221.707C149.233 193.329 169.609 167.742 197.971 164.458Z" fill="#1DEBCE"/>
<path fill-rule="evenodd" clip-rule="evenodd" d="M234.752 184.485L269.918 180.591L267.428 156.428L232.277 160.337L234.752 184.485ZM240.458 240.012L275.624 236.103L278.1 260.266L242.949 264.16L240.458 240.012Z" fill="white"/>
<path fill-rule="evenodd" clip-rule="evenodd" d="M234.436 184.878L231.886 160.005L267.731 156.021L270.282 180.893L234.436 184.878ZM240.08 239.71L242.631 264.583L278.476 260.598L275.925 235.725L240.08 239.71ZM243.252 263.813L240.837 240.314L275.309 236.495L277.724 259.98L243.252 263.813ZM235.056 184.108L232.641 160.609L267.113 156.79L269.528 180.275L235.056 184.108Z" fill="#1DEBCE"/>
<path d="M183.691 269.321L183.223 269.08C182.519 268.7 181.994 268.055 181.765 267.288C181.536 266.521 181.62 265.694 182.001 264.99L186.876 255.934C187.253 255.227 187.897 254.699 188.664 254.467C189.431 254.235 190.259 254.317 190.966 254.697L191.419 254.953C192.882 255.739 193.436 257.561 192.656 259.028L187.781 268.084C187.404 268.791 186.76 269.319 185.993 269.551C185.226 269.783 184.397 269.701 183.691 269.321Z" fill="white"/>
<path fill-rule="evenodd" clip-rule="evenodd" d="M183.6 269.579C184.062 269.837 184.581 269.977 185.11 269.986C186.362 270.005 187.521 269.324 188.113 268.22L193.003 259.165C193.854 257.533 193.243 255.521 191.63 254.637L191.177 254.395C189.55 253.534 187.533 254.139 186.649 255.754L181.774 264.809C180.924 266.441 181.534 268.453 183.148 269.337L183.6 269.579ZM187.18 256.056C187.644 255.188 188.55 254.647 189.535 254.652C189.972 254.65 190.403 254.759 190.787 254.969L191.255 255.21C192.55 255.915 193.035 257.532 192.342 258.833L187.467 267.888C186.757 269.176 185.147 269.659 183.845 268.975L183.392 268.718C182.768 268.386 182.302 267.818 182.098 267.141C181.894 266.464 181.969 265.733 182.305 265.111L187.18 256.056Z" fill="#25282B"/>
<path d="M177.823 264.763L177.099 264.295C176.463 263.89 176.016 263.248 175.854 262.512C175.693 261.776 175.831 261.005 176.238 260.371L180.917 253.081C181.323 252.446 181.964 251.999 182.701 251.837C183.437 251.676 184.207 251.814 184.841 252.221L185.566 252.689C186.201 253.095 186.648 253.736 186.81 254.473C186.971 255.209 186.833 255.979 186.426 256.613L181.747 263.903C181.341 264.538 180.7 264.986 179.964 265.147C179.227 265.309 178.457 265.17 177.823 264.763Z" fill="white"/>
<path fill-rule="evenodd" clip-rule="evenodd" d="M177.641 265.066C178.147 265.4 178.74 265.579 179.347 265.579C179.58 265.577 179.813 265.552 180.041 265.504C180.87 265.322 181.593 264.817 182.048 264.1L186.727 256.81C187.185 256.098 187.34 255.233 187.159 254.406C186.978 253.579 186.475 252.858 185.761 252.403L185.022 251.935C183.537 250.99 181.568 251.422 180.614 252.901L175.951 260.191C175.492 260.901 175.334 261.765 175.512 262.592C175.69 263.418 176.19 264.14 176.902 264.598L177.641 265.066ZM182.774 252.131H183.318L183.378 252.071C183.852 252.069 184.315 252.211 184.706 252.478L185.446 252.946C186.002 253.302 186.395 253.865 186.536 254.51C186.678 255.156 186.557 255.831 186.201 256.387L181.522 263.677C181.166 264.238 180.6 264.633 179.951 264.775C179.302 264.917 178.623 264.793 178.066 264.432L177.341 263.964C176.785 263.608 176.392 263.045 176.251 262.4C176.109 261.754 176.23 261.079 176.586 260.523L181.265 253.233C181.609 252.686 182.149 252.292 182.774 252.131Z" fill="#25282B"/>
<path d="M196.069 257.549L196.733 257.805C197.458 258.077 198.046 258.625 198.366 259.33C198.686 260.036 198.712 260.839 198.438 261.564L195.088 270.468C194.817 271.194 194.268 271.781 193.563 272.101C192.858 272.421 192.054 272.447 191.33 272.174L190.65 271.917C189.146 271.346 188.384 269.668 188.945 268.159L192.311 259.254C192.882 257.75 194.56 256.988 196.069 257.549Z" fill="white"/>
<path fill-rule="evenodd" clip-rule="evenodd" d="M191.181 272.506C191.55 272.636 191.937 272.707 192.328 272.718C193.689 272.718 194.909 271.877 195.392 270.605L198.757 261.7C199.39 260.012 198.54 258.13 196.856 257.489L196.176 257.233C195.368 256.925 194.47 256.953 193.683 257.31C192.895 257.667 192.282 258.324 191.981 259.134L188.615 268.039C188.307 268.849 188.334 269.749 188.691 270.539C189.048 271.33 189.705 271.945 190.517 272.25L191.181 272.506ZM192.627 259.376C193.004 258.377 193.959 257.716 195.027 257.715V257.7C195.342 257.694 195.655 257.75 195.947 257.866L196.612 258.108C197.938 258.615 198.611 260.095 198.121 261.428L194.755 270.333C194.518 270.972 194.036 271.49 193.416 271.774C192.796 272.057 192.088 272.081 191.45 271.842L190.771 271.586C190.132 271.348 189.613 270.866 189.33 270.246C189.047 269.626 189.022 268.919 189.261 268.28L192.627 259.376Z" fill="#25282B"/>
<path d="M179.68 219.214H179.56V219.047C181.189 218.525 182.142 216.837 181.746 215.172C181.351 213.507 179.741 212.427 178.05 212.693L176.541 212.89C176.33 212.648 176.119 212.407 175.892 212.18L178.624 211.018C179.702 210.563 180.456 209.566 180.6 208.404C180.745 207.243 180.259 206.092 179.325 205.386C178.391 204.68 177.152 204.525 176.073 204.981L168.15 208.332C167.032 208.188 165.901 208.188 164.784 208.332L126.282 211.35C119.115 212.122 113.856 218.447 114.407 225.635C114.958 232.823 121.118 238.273 128.32 237.944L167.425 234.925C170.034 234.726 172.527 233.766 174.594 232.163L177.733 232.661C179.455 232.878 181.046 231.714 181.362 230.009C181.679 228.303 180.61 226.647 178.926 226.232C178.926 226.081 179.031 225.945 179.077 225.809H179.258C181.046 225.922 182.592 224.577 182.729 222.79C182.808 221.91 182.53 221.034 181.956 220.362C181.383 219.689 180.562 219.275 179.68 219.214Z" fill="white"/>
<path fill-rule="evenodd" clip-rule="evenodd" d="M114.06 225.648C114.614 232.895 120.735 238.446 128.002 238.291L167.439 235.167H167.786C170.287 234.916 172.67 233.975 174.668 232.45L177.687 232.933C178.638 233.085 179.61 232.852 180.389 232.286C181.168 231.719 181.689 230.866 181.837 229.915C181.596 229.688 181.369 229.446 181.158 229.19C181.148 229.177 181.138 229.164 181.127 229.151C181.071 228.337 180.676 227.589 180.056 227.083C179.892 226.547 179.8 225.996 179.778 225.444C180.615 225.338 181.376 224.873 181.852 224.155C182.431 223.282 182.5 222.165 182.033 221.227C181.925 221.01 181.792 220.809 181.638 220.629C181.809 220.456 181.991 220.291 182.185 220.135C181.296 219.744 180.519 219.19 179.879 218.519C180.971 217.884 181.554 216.595 181.256 215.321C180.913 213.854 179.512 212.887 178.019 213.086L177.905 213.102C177.921 212.861 177.948 212.619 177.989 212.377L176.691 212.558L176.495 212.332L178.774 211.366C179.988 210.876 180.843 209.77 181.011 208.472C181.18 207.174 180.635 205.886 179.586 205.103C178.537 204.32 177.148 204.164 175.951 204.695L168.118 208.015C167.01 207.879 165.89 207.879 164.783 208.015L126.266 211.034H125.919C118.713 211.984 113.506 218.401 114.06 225.648ZM177.905 213.102L176.343 213.313L176.223 213.177C176.026 212.95 175.815 212.709 175.589 212.483L175.226 212.105L178.441 210.747C179.856 210.073 180.49 208.406 179.879 206.963C179.269 205.52 177.631 204.813 176.162 205.359L168.163 208.755H168.057C166.97 208.619 165.87 208.619 164.782 208.755L126.492 211.637H126.341C119.38 212.409 114.282 218.559 114.815 225.542C115.349 232.526 121.32 237.831 128.318 237.537H128.665L167.076 234.518H167.423C169.962 234.329 172.387 233.394 174.396 231.831L174.517 231.726L177.807 232.254C179.356 232.467 180.798 231.426 181.084 229.89C181.131 229.641 181.144 229.393 181.127 229.151C180.635 228.513 180.279 227.812 180.056 227.083C179.723 226.811 179.324 226.609 178.879 226.504H178.486L178.622 226.126L178.773 225.719V225.462H179.226C179.412 225.474 179.597 225.467 179.778 225.444C179.709 223.695 180.346 221.938 181.638 220.629C181.128 220.032 180.392 219.656 179.588 219.606H179.181L179.06 218.867L179.347 218.761C179.535 218.697 179.713 218.616 179.879 218.519C178.515 217.09 177.775 215.132 177.905 213.102Z" fill="#25282B"/>
<path d="M109.137 182.569C104.189 177.309 95.9537 176.941 90.5559 181.738C85.158 186.535 84.5567 194.756 89.1991 200.287L115.249 229.598L134.764 210.686L109.137 182.569Z" fill="white"/>
<path fill-rule="evenodd" clip-rule="evenodd" d="M88.7012 200.273L115.219 230.126L135.187 210.792L109.363 182.403L109.122 182.161C103.977 177.2 95.8827 177.032 90.5361 181.774C85.1895 186.516 84.3903 194.573 88.7012 200.273ZM115.324 229.114L89.6661 200.317H89.7415L89.5302 200.06C85.1195 194.665 85.7494 186.752 90.9579 182.122C96.1664 177.493 104.099 177.796 108.94 182.809L109.181 183.051L134.31 210.686L115.324 229.114Z" fill="#25282B"/>
</svg>
