<svg width="339" height="339" viewBox="0 0 339 339" fill="none" xmlns="http://www.w3.org/2000/svg">
<path d="M230.52 143.15L188.145 197.699L157.943 161.333L115.568 215.727H285.068L230.52 143.15ZM30.8182 61.6364H0V308.182C0 325.132 13.8682 339 30.8182 339H277.364V308.182H30.8182V61.6364ZM308.182 0H92.4545C75.5045 0 61.6364 13.8682 61.6364 30.8182V246.545C61.6364 263.495 75.5045 277.364 92.4545 277.364H308.182C325.132 277.364 339 263.495 339 246.545V30.8182C339 13.8682 325.132 0 308.182 0ZM308.182 246.545H92.4545V30.8182H308.182V246.545Z" fill="black" fill-opacity="0.02"/>
</svg>
