<svg width="136" height="30" viewBox="0 0 136 30" fill="none" xmlns="http://www.w3.org/2000/svg">
<path fill-rule="evenodd" clip-rule="evenodd" d="M17.3384 16.4299C17.7713 16.8747 18.705 17.1904 20.1394 17.3771H30.4166C30.6159 17.3771 30.8087 17.3925 30.9951 17.4235C31.6001 18.4085 32.2606 19.477 32.9968 20.6618C34.8651 23.5497 33.8575 30.878 25.7886 29.8603C24.4058 29.3879 23.9539 29.0991 22.6421 28.3463C18.04 25.7052 15.5264 25.7052 11.2612 28.3463C10.2463 28.9747 10.0013 29.0984 9.04651 29.461C3.09847 31.7199 -1.42584 26.4612 0.416068 21.4383C1.19331 20.1729 1.92664 18.9679 2.65019 17.7722L3.19822 16.8654C3.76996 16.7402 4.4211 16.6959 5.15128 16.7318L11.7977 16.8025C12.1987 17.0509 13.3917 18.841 15.3769 22.1727L17.3384 16.4299ZM22.0898 2.85034C25.071 7.65325 26.7586 10.4817 28.9781 14.1284C28.7994 14.2716 28.6068 14.3558 28.4375 14.3904C28.2309 14.3981 28.1572 14.3904 28.0195 14.3904H19.5716C19.122 14.3904 18.6963 13.8336 18.2944 12.72L16.6889 9.03012L14.3726 15.4592C13.8825 14.4031 13.169 13.8397 12.2323 13.769H6.04333C5.68466 13.769 5.44095 13.6302 5.3122 13.3527C7.1001 10.3793 9.06783 7.10791 11.6773 2.85034C14.0066 -0.950114 19.7309 -0.950114 22.0898 2.85034Z" fill="white"/>
<path d="M54.7813 22.895L58.2963 11.0964H58.3717L61.8867 22.895H66.1299L71.2017 5.45579H66.7325L63.8702 17.0573H63.7949L60.6062 5.45579H56.1371L52.9735 17.0573H52.8982L50.0861 5.45579H45.4663L50.513 22.895H54.7813ZM77.328 22.895V15.604H84.2577V22.895H88.5511V5.45579H84.2577V12.0571H77.328V5.45579H73.0346V22.895H77.328ZM101.055 23.3629C102.444 23.3629 103.733 23.1413 104.921 22.6979C106.11 22.2545 107.135 21.6264 107.997 20.8136C108.859 20.0007 109.533 19.0237 110.018 17.8824C110.504 16.7412 110.746 15.4808 110.746 14.1015C110.746 12.7057 110.504 11.4454 110.018 10.3205C109.533 9.19569 108.859 8.23916 107.997 7.45095C107.135 6.66274 106.11 6.05516 104.921 5.62821C103.733 5.20127 102.444 4.98779 101.055 4.98779C99.6654 4.98779 98.3808 5.20127 97.2007 5.62821C96.0206 6.05516 94.9996 6.66274 94.1376 7.45095C93.2755 8.23916 92.6018 9.19569 92.1164 10.3205C91.631 11.4454 91.3883 12.7057 91.3883 14.1015C91.3883 15.4808 91.631 16.7412 92.1164 17.8824C92.6018 19.0237 93.2755 20.0007 94.1376 20.8136C94.9996 21.6264 96.0206 22.2545 97.2007 22.6979C98.3808 23.1413 99.6654 23.3629 101.055 23.3629ZM101.055 19.5204C100.302 19.5204 99.6152 19.385 98.9959 19.114C98.3766 18.8431 97.8451 18.4695 97.4016 17.9933C96.958 17.5171 96.6107 16.9464 96.3596 16.2814C96.1085 15.6163 95.983 14.8897 95.983 14.1015C95.983 13.3461 96.1043 12.64 96.347 11.9832C96.5898 11.3263 96.9371 10.7639 97.389 10.2959C97.841 9.8279 98.3766 9.45842 98.9959 9.18748C99.6152 8.91653 100.302 8.78106 101.055 8.78106C101.808 8.78106 102.498 8.91653 103.126 9.18748C103.754 9.45842 104.289 9.8279 104.733 10.2959C105.177 10.7639 105.524 11.3263 105.775 11.9832C106.026 12.64 106.152 13.3461 106.152 14.1015C106.152 14.8897 106.026 15.6163 105.775 16.2814C105.524 16.9464 105.172 17.5171 104.72 17.9933C104.269 18.4695 103.733 18.8431 103.114 19.114C102.494 19.385 101.808 19.5204 101.055 19.5204ZM115.09 22.895L116.697 18.9046H124.405L126.062 22.895H129.678L122.02 5.45579H119.283L111.55 22.895H115.09ZM123.3 16.2444H117.776L120.563 9.15053L123.3 16.2444ZM135.251 17.4267V5.45579H132.238V17.4267H135.251ZM133.745 23.0427C134.297 23.0427 134.77 22.8539 135.164 22.4762C135.557 22.0985 135.754 21.647 135.754 21.1215C135.754 20.596 135.553 20.1526 135.151 19.7914C134.749 19.4301 134.281 19.2495 133.745 19.2495C133.193 19.2495 132.72 19.4383 132.326 19.816C131.933 20.1937 131.736 20.6453 131.736 21.1707C131.736 21.4335 131.791 21.6798 131.9 21.9097C132.008 22.1396 132.155 22.3366 132.339 22.5008C132.523 22.6651 132.736 22.7964 132.979 22.895C133.222 22.9935 133.477 23.0427 133.745 23.0427Z" fill="white"/>
</svg>
