<svg width="136" height="30" viewBox="0 0 136 30" fill="none" xmlns="http://www.w3.org/2000/svg">
<path fill-rule="evenodd" clip-rule="evenodd" d="M17.3384 16.4299C17.7713 16.8747 18.705 17.1904 20.1394 17.3771H30.4166C30.6159 17.3771 30.8087 17.3925 30.9951 17.4235C31.6001 18.4085 32.2606 19.477 32.9968 20.6618C34.8651 23.5497 33.8575 30.878 25.7886 29.8603C24.4058 29.3879 23.9539 29.0991 22.6421 28.3463C18.04 25.7052 15.5264 25.7052 11.2612 28.3463C10.2463 28.9747 10.0013 29.0984 9.04651 29.461C3.09847 31.7199 -1.42584 26.4612 0.416068 21.4383C1.19331 20.1729 1.92664 18.9679 2.65019 17.7722L3.19822 16.8654C3.76996 16.7402 4.4211 16.6959 5.15128 16.7318L11.7977 16.8025C12.1987 17.0509 13.3917 18.841 15.3769 22.1727L17.3384 16.4299ZM22.0898 2.85034C25.071 7.65325 26.7586 10.4817 28.9781 14.1284C28.7994 14.2716 28.6068 14.3558 28.4375 14.3904C28.2309 14.3981 28.1572 14.3904 28.0195 14.3904H19.5716C19.122 14.3904 18.6963 13.8336 18.2944 12.72L16.6889 9.03012L14.3726 15.4592C13.8825 14.4031 13.169 13.8397 12.2323 13.769H6.04333C5.68466 13.769 5.44095 13.6302 5.3122 13.3527C7.1001 10.3793 9.06783 7.10791 11.6773 2.85034C14.0066 -0.950114 19.7309 -0.950114 22.0898 2.85034Z" fill="#0057E0"/>
<path d="M54.7813 22.8947L58.2963 11.0962H58.3717L61.8867 22.8947H66.1299L71.2017 5.45555H66.7325L63.8702 17.057H63.7949L60.6062 5.45555H56.1371L52.9735 17.057H52.8982L50.0861 5.45555H45.4663L50.513 22.8947H54.7813ZM77.328 22.8947V15.6038H84.2577V22.8947H88.5511V5.45555H84.2577V12.0568H77.328V5.45555H73.0346V22.8947H77.328ZM101.055 23.3627C102.444 23.3627 103.733 23.141 104.921 22.6977C106.11 22.2543 107.135 21.6262 107.997 20.8133C108.859 20.0005 109.533 19.0234 110.018 17.8822C110.504 16.7409 110.746 15.4806 110.746 14.1012C110.746 12.7054 110.504 11.4451 110.018 10.3203C109.533 9.19544 108.859 8.23892 107.997 7.45071C107.135 6.6625 106.11 6.05492 104.921 5.62797C103.733 5.20102 102.444 4.98755 101.055 4.98755C99.6654 4.98755 98.3808 5.20102 97.2007 5.62797C96.0206 6.05492 94.9996 6.6625 94.1376 7.45071C93.2755 8.23892 92.6018 9.19544 92.1164 10.3203C91.631 11.4451 91.3883 12.7054 91.3883 14.1012C91.3883 15.4806 91.631 16.7409 92.1164 17.8822C92.6018 19.0234 93.2755 20.0005 94.1376 20.8133C94.9996 21.6262 96.0206 22.2543 97.2007 22.6977C98.3808 23.141 99.6654 23.3627 101.055 23.3627ZM101.055 19.5202C100.302 19.5202 99.6152 19.3847 98.9959 19.1138C98.3766 18.8428 97.8451 18.4692 97.4016 17.993C96.958 17.5168 96.6107 16.9462 96.3596 16.2811C96.1085 15.6161 95.983 14.8894 95.983 14.1012C95.983 13.3459 96.1043 12.6398 96.347 11.9829C96.5898 11.3261 96.9371 10.7637 97.389 10.2957C97.841 9.82765 98.3766 9.45818 98.9959 9.18723C99.6152 8.91629 100.302 8.78081 101.055 8.78081C101.808 8.78081 102.498 8.91629 103.126 9.18723C103.754 9.45818 104.289 9.82765 104.733 10.2957C105.177 10.7637 105.524 11.3261 105.775 11.9829C106.026 12.6398 106.152 13.3459 106.152 14.1012C106.152 14.8894 106.026 15.6161 105.775 16.2811C105.524 16.9462 105.172 17.5168 104.72 17.993C104.269 18.4692 103.733 18.8428 103.114 19.1138C102.494 19.3847 101.808 19.5202 101.055 19.5202ZM115.09 22.8947L116.697 18.9044H124.405L126.062 22.8947H129.678L122.02 5.45555H119.283L111.55 22.8947H115.09ZM123.3 16.2442H117.776L120.563 9.15029L123.3 16.2442ZM135.251 17.4265V5.45555H132.238V17.4265H135.251ZM133.745 23.0425C134.297 23.0425 134.77 22.8537 135.164 22.476C135.557 22.0983 135.754 21.6467 135.754 21.1212C135.754 20.5958 135.553 20.1524 135.151 19.7911C134.749 19.4299 134.281 19.2492 133.745 19.2492C133.193 19.2492 132.72 19.4381 132.326 19.8158C131.933 20.1934 131.736 20.645 131.736 21.1705C131.736 21.4332 131.791 21.6796 131.9 21.9094C132.008 22.1393 132.155 22.3364 132.339 22.5006C132.523 22.6648 132.736 22.7962 132.979 22.8947C133.222 22.9932 133.477 23.0425 133.745 23.0425Z" fill="#0057E0"/>
</svg>
